G04 #@! TF.GenerationSoftware,KiCad,Pcbnew,5.1.2*
G04 #@! TF.CreationDate,2019-06-04T19:46:48+02:00*
G04 #@! TF.ProjectId,ohren,6f687265-6e2e-46b6-9963-61645f706362,rev?*
G04 #@! TF.SameCoordinates,Original*
G04 #@! TF.FileFunction,Legend,Top*
G04 #@! TF.FilePolarity,Positive*
%FSLAX46Y46*%
G04 Gerber Fmt 4.6, Leading zero omitted, Abs format (unit mm)*
G04 Created by KiCad (PCBNEW 5.1.2) date 2019-06-04 19:46:48*
%MOMM*%
%LPD*%
G04 APERTURE LIST*
%ADD10C,0.150000*%
%ADD11C,0.400000*%
%ADD12C,0.120000*%
G04 APERTURE END LIST*
D10*
X178042619Y-154939047D02*
X179042619Y-154939047D01*
X178042619Y-155510476D01*
X179042619Y-155510476D01*
X178090238Y-156367619D02*
X178042619Y-156272380D01*
X178042619Y-156081904D01*
X178090238Y-155986666D01*
X178185476Y-155939047D01*
X178566428Y-155939047D01*
X178661666Y-155986666D01*
X178709285Y-156081904D01*
X178709285Y-156272380D01*
X178661666Y-156367619D01*
X178566428Y-156415238D01*
X178471190Y-156415238D01*
X178375952Y-155939047D01*
X178042619Y-156843809D02*
X179042619Y-156843809D01*
X178423571Y-156939047D02*
X178042619Y-157224761D01*
X178709285Y-157224761D02*
X178328333Y-156843809D01*
X178042619Y-157796190D02*
X178090238Y-157700952D01*
X178137857Y-157653333D01*
X178233095Y-157605714D01*
X178518809Y-157605714D01*
X178614047Y-157653333D01*
X178661666Y-157700952D01*
X178709285Y-157796190D01*
X178709285Y-157939047D01*
X178661666Y-158034285D01*
X178614047Y-158081904D01*
X178518809Y-158129523D01*
X178233095Y-158129523D01*
X178137857Y-158081904D01*
X178090238Y-158034285D01*
X178042619Y-157939047D01*
X178042619Y-157796190D01*
X178042619Y-158558095D02*
X178709285Y-158558095D01*
X178614047Y-158558095D02*
X178661666Y-158605714D01*
X178709285Y-158700952D01*
X178709285Y-158843809D01*
X178661666Y-158939047D01*
X178566428Y-158986666D01*
X178042619Y-158986666D01*
X178566428Y-158986666D02*
X178661666Y-159034285D01*
X178709285Y-159129523D01*
X178709285Y-159272380D01*
X178661666Y-159367619D01*
X178566428Y-159415238D01*
X178042619Y-159415238D01*
X178042619Y-159891428D02*
X178709285Y-159891428D01*
X179042619Y-159891428D02*
X178995000Y-159843809D01*
X178947380Y-159891428D01*
X178995000Y-159939047D01*
X179042619Y-159891428D01*
X178947380Y-159891428D01*
X178042619Y-160367619D02*
X178709285Y-160367619D01*
X178614047Y-160367619D02*
X178661666Y-160415238D01*
X178709285Y-160510476D01*
X178709285Y-160653333D01*
X178661666Y-160748571D01*
X178566428Y-160796190D01*
X178042619Y-160796190D01*
X178566428Y-160796190D02*
X178661666Y-160843809D01*
X178709285Y-160939047D01*
X178709285Y-161081904D01*
X178661666Y-161177142D01*
X178566428Y-161224761D01*
X178042619Y-161224761D01*
X178042619Y-161700952D02*
X178709285Y-161700952D01*
X179042619Y-161700952D02*
X178995000Y-161653333D01*
X178947380Y-161700952D01*
X178995000Y-161748571D01*
X179042619Y-161700952D01*
X178947380Y-161700952D01*
X176392619Y-155010476D02*
X177392619Y-155010476D01*
X177011666Y-155010476D02*
X177059285Y-155105714D01*
X177059285Y-155296190D01*
X177011666Y-155391428D01*
X176964047Y-155439047D01*
X176868809Y-155486666D01*
X176583095Y-155486666D01*
X176487857Y-155439047D01*
X176440238Y-155391428D01*
X176392619Y-155296190D01*
X176392619Y-155105714D01*
X176440238Y-155010476D01*
X177059285Y-155820000D02*
X176392619Y-156058095D01*
X177059285Y-156296190D02*
X176392619Y-156058095D01*
X176154523Y-155962857D01*
X176106904Y-155915238D01*
X176059285Y-155820000D01*
X176916428Y-157772380D02*
X176868809Y-157915238D01*
X176821190Y-157962857D01*
X176725952Y-158010476D01*
X176583095Y-158010476D01*
X176487857Y-157962857D01*
X176440238Y-157915238D01*
X176392619Y-157820000D01*
X176392619Y-157439047D01*
X177392619Y-157439047D01*
X177392619Y-157772380D01*
X177345000Y-157867619D01*
X177297380Y-157915238D01*
X177202142Y-157962857D01*
X177106904Y-157962857D01*
X177011666Y-157915238D01*
X176964047Y-157867619D01*
X176916428Y-157772380D01*
X176916428Y-157439047D01*
X176440238Y-158820000D02*
X176392619Y-158724761D01*
X176392619Y-158534285D01*
X176440238Y-158439047D01*
X176535476Y-158391428D01*
X176916428Y-158391428D01*
X177011666Y-158439047D01*
X177059285Y-158534285D01*
X177059285Y-158724761D01*
X177011666Y-158820000D01*
X176916428Y-158867619D01*
X176821190Y-158867619D01*
X176725952Y-158391428D01*
X177059285Y-159296190D02*
X176392619Y-159296190D01*
X176964047Y-159296190D02*
X177011666Y-159343809D01*
X177059285Y-159439047D01*
X177059285Y-159581904D01*
X177011666Y-159677142D01*
X176916428Y-159724761D01*
X176392619Y-159724761D01*
X176916428Y-160534285D02*
X176868809Y-160677142D01*
X176821190Y-160724761D01*
X176725952Y-160772380D01*
X176583095Y-160772380D01*
X176487857Y-160724761D01*
X176440238Y-160677142D01*
X176392619Y-160581904D01*
X176392619Y-160200952D01*
X177392619Y-160200952D01*
X177392619Y-160534285D01*
X177345000Y-160629523D01*
X177297380Y-160677142D01*
X177202142Y-160724761D01*
X177106904Y-160724761D01*
X177011666Y-160677142D01*
X176964047Y-160629523D01*
X176916428Y-160534285D01*
X176916428Y-160200952D01*
X176916428Y-161200952D02*
X176916428Y-161534285D01*
X176392619Y-161677142D02*
X176392619Y-161200952D01*
X177392619Y-161200952D01*
X177392619Y-161677142D01*
X179737619Y-140675833D02*
X179737619Y-141247261D01*
X178737619Y-140961547D02*
X179737619Y-140961547D01*
X178737619Y-141723452D02*
X178785238Y-141628214D01*
X178832857Y-141580595D01*
X178928095Y-141532976D01*
X179213809Y-141532976D01*
X179309047Y-141580595D01*
X179356666Y-141628214D01*
X179404285Y-141723452D01*
X179404285Y-141866309D01*
X179356666Y-141961547D01*
X179309047Y-142009166D01*
X179213809Y-142056785D01*
X178928095Y-142056785D01*
X178832857Y-142009166D01*
X178785238Y-141961547D01*
X178737619Y-141866309D01*
X178737619Y-141723452D01*
X178737619Y-142485357D02*
X179737619Y-142485357D01*
X179356666Y-142485357D02*
X179404285Y-142580595D01*
X179404285Y-142771071D01*
X179356666Y-142866309D01*
X179309047Y-142913928D01*
X179213809Y-142961547D01*
X178928095Y-142961547D01*
X178832857Y-142913928D01*
X178785238Y-142866309D01*
X178737619Y-142771071D01*
X178737619Y-142580595D01*
X178785238Y-142485357D01*
X178737619Y-143390119D02*
X179404285Y-143390119D01*
X179737619Y-143390119D02*
X179690000Y-143342500D01*
X179642380Y-143390119D01*
X179690000Y-143437738D01*
X179737619Y-143390119D01*
X179642380Y-143390119D01*
X178737619Y-144294880D02*
X179261428Y-144294880D01*
X179356666Y-144247261D01*
X179404285Y-144152023D01*
X179404285Y-143961547D01*
X179356666Y-143866309D01*
X178785238Y-144294880D02*
X178737619Y-144199642D01*
X178737619Y-143961547D01*
X178785238Y-143866309D01*
X178880476Y-143818690D01*
X178975714Y-143818690D01*
X179070952Y-143866309D01*
X179118571Y-143961547D01*
X179118571Y-144199642D01*
X179166190Y-144294880D01*
X178785238Y-144723452D02*
X178737619Y-144818690D01*
X178737619Y-145009166D01*
X178785238Y-145104404D01*
X178880476Y-145152023D01*
X178928095Y-145152023D01*
X179023333Y-145104404D01*
X179070952Y-145009166D01*
X179070952Y-144866309D01*
X179118571Y-144771071D01*
X179213809Y-144723452D01*
X179261428Y-144723452D01*
X179356666Y-144771071D01*
X179404285Y-144866309D01*
X179404285Y-145009166D01*
X179356666Y-145104404D01*
X172867619Y-148666666D02*
X173343809Y-148333333D01*
X172867619Y-148095238D02*
X173867619Y-148095238D01*
X173867619Y-148476190D01*
X173820000Y-148571428D01*
X173772380Y-148619047D01*
X173677142Y-148666666D01*
X173534285Y-148666666D01*
X173439047Y-148619047D01*
X173391428Y-148571428D01*
X173343809Y-148476190D01*
X173343809Y-148095238D01*
X172915238Y-149476190D02*
X172867619Y-149380952D01*
X172867619Y-149190476D01*
X172915238Y-149095238D01*
X173010476Y-149047619D01*
X173391428Y-149047619D01*
X173486666Y-149095238D01*
X173534285Y-149190476D01*
X173534285Y-149380952D01*
X173486666Y-149476190D01*
X173391428Y-149523809D01*
X173296190Y-149523809D01*
X173200952Y-149047619D01*
X173534285Y-149857142D02*
X172867619Y-150095238D01*
X173534285Y-150333333D01*
X173391428Y-151476190D02*
X173391428Y-151809523D01*
X172867619Y-151952380D02*
X172867619Y-151476190D01*
X173867619Y-151476190D01*
X173867619Y-151952380D01*
X176942380Y-138695714D02*
X176990000Y-138743333D01*
X177037619Y-138838571D01*
X177037619Y-139076666D01*
X176990000Y-139171904D01*
X176942380Y-139219523D01*
X176847142Y-139267142D01*
X176751904Y-139267142D01*
X176609047Y-139219523D01*
X176037619Y-138648095D01*
X176037619Y-139267142D01*
X177037619Y-139886190D02*
X177037619Y-139981428D01*
X176990000Y-140076666D01*
X176942380Y-140124285D01*
X176847142Y-140171904D01*
X176656666Y-140219523D01*
X176418571Y-140219523D01*
X176228095Y-140171904D01*
X176132857Y-140124285D01*
X176085238Y-140076666D01*
X176037619Y-139981428D01*
X176037619Y-139886190D01*
X176085238Y-139790952D01*
X176132857Y-139743333D01*
X176228095Y-139695714D01*
X176418571Y-139648095D01*
X176656666Y-139648095D01*
X176847142Y-139695714D01*
X176942380Y-139743333D01*
X176990000Y-139790952D01*
X177037619Y-139886190D01*
X176037619Y-141171904D02*
X176037619Y-140600476D01*
X176037619Y-140886190D02*
X177037619Y-140886190D01*
X176894761Y-140790952D01*
X176799523Y-140695714D01*
X176751904Y-140600476D01*
X176037619Y-141648095D02*
X176037619Y-141838571D01*
X176085238Y-141933809D01*
X176132857Y-141981428D01*
X176275714Y-142076666D01*
X176466190Y-142124285D01*
X176847142Y-142124285D01*
X176942380Y-142076666D01*
X176990000Y-142029047D01*
X177037619Y-141933809D01*
X177037619Y-141743333D01*
X176990000Y-141648095D01*
X176942380Y-141600476D01*
X176847142Y-141552857D01*
X176609047Y-141552857D01*
X176513809Y-141600476D01*
X176466190Y-141648095D01*
X176418571Y-141743333D01*
X176418571Y-141933809D01*
X176466190Y-142029047D01*
X176513809Y-142076666D01*
X176609047Y-142124285D01*
X177575238Y-138638214D02*
X177527619Y-138781071D01*
X177527619Y-139019166D01*
X177575238Y-139114404D01*
X177622857Y-139162023D01*
X177718095Y-139209642D01*
X177813333Y-139209642D01*
X177908571Y-139162023D01*
X177956190Y-139114404D01*
X178003809Y-139019166D01*
X178051428Y-138828690D01*
X178099047Y-138733452D01*
X178146666Y-138685833D01*
X178241904Y-138638214D01*
X178337142Y-138638214D01*
X178432380Y-138685833D01*
X178480000Y-138733452D01*
X178527619Y-138828690D01*
X178527619Y-139066785D01*
X178480000Y-139209642D01*
X177575238Y-140066785D02*
X177527619Y-139971547D01*
X177527619Y-139781071D01*
X177575238Y-139685833D01*
X177622857Y-139638214D01*
X177718095Y-139590595D01*
X178003809Y-139590595D01*
X178099047Y-139638214D01*
X178146666Y-139685833D01*
X178194285Y-139781071D01*
X178194285Y-139971547D01*
X178146666Y-140066785D01*
X177527619Y-140495357D02*
X178527619Y-140495357D01*
X177527619Y-140923928D02*
X178051428Y-140923928D01*
X178146666Y-140876309D01*
X178194285Y-140781071D01*
X178194285Y-140638214D01*
X178146666Y-140542976D01*
X178099047Y-140495357D01*
X177527619Y-141400119D02*
X178194285Y-141400119D01*
X178003809Y-141400119D02*
X178099047Y-141447738D01*
X178146666Y-141495357D01*
X178194285Y-141590595D01*
X178194285Y-141685833D01*
X177527619Y-142447738D02*
X178051428Y-142447738D01*
X178146666Y-142400119D01*
X178194285Y-142304880D01*
X178194285Y-142114404D01*
X178146666Y-142019166D01*
X177575238Y-142447738D02*
X177527619Y-142352500D01*
X177527619Y-142114404D01*
X177575238Y-142019166D01*
X177670476Y-141971547D01*
X177765714Y-141971547D01*
X177860952Y-142019166D01*
X177908571Y-142114404D01*
X177908571Y-142352500D01*
X177956190Y-142447738D01*
X177527619Y-142923928D02*
X178194285Y-142923928D01*
X178099047Y-142923928D02*
X178146666Y-142971547D01*
X178194285Y-143066785D01*
X178194285Y-143209642D01*
X178146666Y-143304880D01*
X178051428Y-143352500D01*
X177527619Y-143352500D01*
X178051428Y-143352500D02*
X178146666Y-143400119D01*
X178194285Y-143495357D01*
X178194285Y-143638214D01*
X178146666Y-143733452D01*
X178051428Y-143781071D01*
X177527619Y-143781071D01*
X177527619Y-144257261D02*
X178194285Y-144257261D01*
X178099047Y-144257261D02*
X178146666Y-144304880D01*
X178194285Y-144400119D01*
X178194285Y-144542976D01*
X178146666Y-144638214D01*
X178051428Y-144685833D01*
X177527619Y-144685833D01*
X178051428Y-144685833D02*
X178146666Y-144733452D01*
X178194285Y-144828690D01*
X178194285Y-144971547D01*
X178146666Y-145066785D01*
X178051428Y-145114404D01*
X177527619Y-145114404D01*
X129560952Y-177542619D02*
X129560952Y-178542619D01*
X128989523Y-177542619D01*
X128989523Y-178542619D01*
X128132380Y-177590238D02*
X128227619Y-177542619D01*
X128418095Y-177542619D01*
X128513333Y-177590238D01*
X128560952Y-177685476D01*
X128560952Y-178066428D01*
X128513333Y-178161666D01*
X128418095Y-178209285D01*
X128227619Y-178209285D01*
X128132380Y-178161666D01*
X128084761Y-178066428D01*
X128084761Y-177971190D01*
X128560952Y-177875952D01*
X127656190Y-177542619D02*
X127656190Y-178542619D01*
X127560952Y-177923571D02*
X127275238Y-177542619D01*
X127275238Y-178209285D02*
X127656190Y-177828333D01*
X126703809Y-177542619D02*
X126799047Y-177590238D01*
X126846666Y-177637857D01*
X126894285Y-177733095D01*
X126894285Y-178018809D01*
X126846666Y-178114047D01*
X126799047Y-178161666D01*
X126703809Y-178209285D01*
X126560952Y-178209285D01*
X126465714Y-178161666D01*
X126418095Y-178114047D01*
X126370476Y-178018809D01*
X126370476Y-177733095D01*
X126418095Y-177637857D01*
X126465714Y-177590238D01*
X126560952Y-177542619D01*
X126703809Y-177542619D01*
X125941904Y-177542619D02*
X125941904Y-178209285D01*
X125941904Y-178114047D02*
X125894285Y-178161666D01*
X125799047Y-178209285D01*
X125656190Y-178209285D01*
X125560952Y-178161666D01*
X125513333Y-178066428D01*
X125513333Y-177542619D01*
X125513333Y-178066428D02*
X125465714Y-178161666D01*
X125370476Y-178209285D01*
X125227619Y-178209285D01*
X125132380Y-178161666D01*
X125084761Y-178066428D01*
X125084761Y-177542619D01*
X124608571Y-177542619D02*
X124608571Y-178209285D01*
X124608571Y-178542619D02*
X124656190Y-178495000D01*
X124608571Y-178447380D01*
X124560952Y-178495000D01*
X124608571Y-178542619D01*
X124608571Y-178447380D01*
X124132380Y-177542619D02*
X124132380Y-178209285D01*
X124132380Y-178114047D02*
X124084761Y-178161666D01*
X123989523Y-178209285D01*
X123846666Y-178209285D01*
X123751428Y-178161666D01*
X123703809Y-178066428D01*
X123703809Y-177542619D01*
X123703809Y-178066428D02*
X123656190Y-178161666D01*
X123560952Y-178209285D01*
X123418095Y-178209285D01*
X123322857Y-178161666D01*
X123275238Y-178066428D01*
X123275238Y-177542619D01*
X122799047Y-177542619D02*
X122799047Y-178209285D01*
X122799047Y-178542619D02*
X122846666Y-178495000D01*
X122799047Y-178447380D01*
X122751428Y-178495000D01*
X122799047Y-178542619D01*
X122799047Y-178447380D01*
X129489523Y-175892619D02*
X129489523Y-176892619D01*
X129489523Y-176511666D02*
X129394285Y-176559285D01*
X129203809Y-176559285D01*
X129108571Y-176511666D01*
X129060952Y-176464047D01*
X129013333Y-176368809D01*
X129013333Y-176083095D01*
X129060952Y-175987857D01*
X129108571Y-175940238D01*
X129203809Y-175892619D01*
X129394285Y-175892619D01*
X129489523Y-175940238D01*
X128680000Y-176559285D02*
X128441904Y-175892619D01*
X128203809Y-176559285D02*
X128441904Y-175892619D01*
X128537142Y-175654523D01*
X128584761Y-175606904D01*
X128680000Y-175559285D01*
X126727619Y-176416428D02*
X126584761Y-176368809D01*
X126537142Y-176321190D01*
X126489523Y-176225952D01*
X126489523Y-176083095D01*
X126537142Y-175987857D01*
X126584761Y-175940238D01*
X126680000Y-175892619D01*
X127060952Y-175892619D01*
X127060952Y-176892619D01*
X126727619Y-176892619D01*
X126632380Y-176845000D01*
X126584761Y-176797380D01*
X126537142Y-176702142D01*
X126537142Y-176606904D01*
X126584761Y-176511666D01*
X126632380Y-176464047D01*
X126727619Y-176416428D01*
X127060952Y-176416428D01*
X125680000Y-175940238D02*
X125775238Y-175892619D01*
X125965714Y-175892619D01*
X126060952Y-175940238D01*
X126108571Y-176035476D01*
X126108571Y-176416428D01*
X126060952Y-176511666D01*
X125965714Y-176559285D01*
X125775238Y-176559285D01*
X125680000Y-176511666D01*
X125632380Y-176416428D01*
X125632380Y-176321190D01*
X126108571Y-176225952D01*
X125203809Y-176559285D02*
X125203809Y-175892619D01*
X125203809Y-176464047D02*
X125156190Y-176511666D01*
X125060952Y-176559285D01*
X124918095Y-176559285D01*
X124822857Y-176511666D01*
X124775238Y-176416428D01*
X124775238Y-175892619D01*
X123965714Y-176416428D02*
X123822857Y-176368809D01*
X123775238Y-176321190D01*
X123727619Y-176225952D01*
X123727619Y-176083095D01*
X123775238Y-175987857D01*
X123822857Y-175940238D01*
X123918095Y-175892619D01*
X124299047Y-175892619D01*
X124299047Y-176892619D01*
X123965714Y-176892619D01*
X123870476Y-176845000D01*
X123822857Y-176797380D01*
X123775238Y-176702142D01*
X123775238Y-176606904D01*
X123822857Y-176511666D01*
X123870476Y-176464047D01*
X123965714Y-176416428D01*
X124299047Y-176416428D01*
X123299047Y-176416428D02*
X122965714Y-176416428D01*
X122822857Y-175892619D02*
X123299047Y-175892619D01*
X123299047Y-176892619D01*
X122822857Y-176892619D01*
X143824166Y-179237619D02*
X143252738Y-179237619D01*
X143538452Y-178237619D02*
X143538452Y-179237619D01*
X142776547Y-178237619D02*
X142871785Y-178285238D01*
X142919404Y-178332857D01*
X142967023Y-178428095D01*
X142967023Y-178713809D01*
X142919404Y-178809047D01*
X142871785Y-178856666D01*
X142776547Y-178904285D01*
X142633690Y-178904285D01*
X142538452Y-178856666D01*
X142490833Y-178809047D01*
X142443214Y-178713809D01*
X142443214Y-178428095D01*
X142490833Y-178332857D01*
X142538452Y-178285238D01*
X142633690Y-178237619D01*
X142776547Y-178237619D01*
X142014642Y-178237619D02*
X142014642Y-179237619D01*
X142014642Y-178856666D02*
X141919404Y-178904285D01*
X141728928Y-178904285D01*
X141633690Y-178856666D01*
X141586071Y-178809047D01*
X141538452Y-178713809D01*
X141538452Y-178428095D01*
X141586071Y-178332857D01*
X141633690Y-178285238D01*
X141728928Y-178237619D01*
X141919404Y-178237619D01*
X142014642Y-178285238D01*
X141109880Y-178237619D02*
X141109880Y-178904285D01*
X141109880Y-179237619D02*
X141157500Y-179190000D01*
X141109880Y-179142380D01*
X141062261Y-179190000D01*
X141109880Y-179237619D01*
X141109880Y-179142380D01*
X140205119Y-178237619D02*
X140205119Y-178761428D01*
X140252738Y-178856666D01*
X140347976Y-178904285D01*
X140538452Y-178904285D01*
X140633690Y-178856666D01*
X140205119Y-178285238D02*
X140300357Y-178237619D01*
X140538452Y-178237619D01*
X140633690Y-178285238D01*
X140681309Y-178380476D01*
X140681309Y-178475714D01*
X140633690Y-178570952D01*
X140538452Y-178618571D01*
X140300357Y-178618571D01*
X140205119Y-178666190D01*
X139776547Y-178285238D02*
X139681309Y-178237619D01*
X139490833Y-178237619D01*
X139395595Y-178285238D01*
X139347976Y-178380476D01*
X139347976Y-178428095D01*
X139395595Y-178523333D01*
X139490833Y-178570952D01*
X139633690Y-178570952D01*
X139728928Y-178618571D01*
X139776547Y-178713809D01*
X139776547Y-178761428D01*
X139728928Y-178856666D01*
X139633690Y-178904285D01*
X139490833Y-178904285D01*
X139395595Y-178856666D01*
X135833333Y-172367619D02*
X136166666Y-172843809D01*
X136404761Y-172367619D02*
X136404761Y-173367619D01*
X136023809Y-173367619D01*
X135928571Y-173320000D01*
X135880952Y-173272380D01*
X135833333Y-173177142D01*
X135833333Y-173034285D01*
X135880952Y-172939047D01*
X135928571Y-172891428D01*
X136023809Y-172843809D01*
X136404761Y-172843809D01*
X135023809Y-172415238D02*
X135119047Y-172367619D01*
X135309523Y-172367619D01*
X135404761Y-172415238D01*
X135452380Y-172510476D01*
X135452380Y-172891428D01*
X135404761Y-172986666D01*
X135309523Y-173034285D01*
X135119047Y-173034285D01*
X135023809Y-172986666D01*
X134976190Y-172891428D01*
X134976190Y-172796190D01*
X135452380Y-172700952D01*
X134642857Y-173034285D02*
X134404761Y-172367619D01*
X134166666Y-173034285D01*
X133023809Y-172891428D02*
X132690476Y-172891428D01*
X132547619Y-172367619D02*
X133023809Y-172367619D01*
X133023809Y-173367619D01*
X132547619Y-173367619D01*
X145804285Y-176442380D02*
X145756666Y-176490000D01*
X145661428Y-176537619D01*
X145423333Y-176537619D01*
X145328095Y-176490000D01*
X145280476Y-176442380D01*
X145232857Y-176347142D01*
X145232857Y-176251904D01*
X145280476Y-176109047D01*
X145851904Y-175537619D01*
X145232857Y-175537619D01*
X144613809Y-176537619D02*
X144518571Y-176537619D01*
X144423333Y-176490000D01*
X144375714Y-176442380D01*
X144328095Y-176347142D01*
X144280476Y-176156666D01*
X144280476Y-175918571D01*
X144328095Y-175728095D01*
X144375714Y-175632857D01*
X144423333Y-175585238D01*
X144518571Y-175537619D01*
X144613809Y-175537619D01*
X144709047Y-175585238D01*
X144756666Y-175632857D01*
X144804285Y-175728095D01*
X144851904Y-175918571D01*
X144851904Y-176156666D01*
X144804285Y-176347142D01*
X144756666Y-176442380D01*
X144709047Y-176490000D01*
X144613809Y-176537619D01*
X143328095Y-175537619D02*
X143899523Y-175537619D01*
X143613809Y-175537619D02*
X143613809Y-176537619D01*
X143709047Y-176394761D01*
X143804285Y-176299523D01*
X143899523Y-176251904D01*
X142851904Y-175537619D02*
X142661428Y-175537619D01*
X142566190Y-175585238D01*
X142518571Y-175632857D01*
X142423333Y-175775714D01*
X142375714Y-175966190D01*
X142375714Y-176347142D01*
X142423333Y-176442380D01*
X142470952Y-176490000D01*
X142566190Y-176537619D01*
X142756666Y-176537619D01*
X142851904Y-176490000D01*
X142899523Y-176442380D01*
X142947142Y-176347142D01*
X142947142Y-176109047D01*
X142899523Y-176013809D01*
X142851904Y-175966190D01*
X142756666Y-175918571D01*
X142566190Y-175918571D01*
X142470952Y-175966190D01*
X142423333Y-176013809D01*
X142375714Y-176109047D01*
X145861785Y-177075238D02*
X145718928Y-177027619D01*
X145480833Y-177027619D01*
X145385595Y-177075238D01*
X145337976Y-177122857D01*
X145290357Y-177218095D01*
X145290357Y-177313333D01*
X145337976Y-177408571D01*
X145385595Y-177456190D01*
X145480833Y-177503809D01*
X145671309Y-177551428D01*
X145766547Y-177599047D01*
X145814166Y-177646666D01*
X145861785Y-177741904D01*
X145861785Y-177837142D01*
X145814166Y-177932380D01*
X145766547Y-177980000D01*
X145671309Y-178027619D01*
X145433214Y-178027619D01*
X145290357Y-177980000D01*
X144433214Y-177075238D02*
X144528452Y-177027619D01*
X144718928Y-177027619D01*
X144814166Y-177075238D01*
X144861785Y-177122857D01*
X144909404Y-177218095D01*
X144909404Y-177503809D01*
X144861785Y-177599047D01*
X144814166Y-177646666D01*
X144718928Y-177694285D01*
X144528452Y-177694285D01*
X144433214Y-177646666D01*
X144004642Y-177027619D02*
X144004642Y-178027619D01*
X143576071Y-177027619D02*
X143576071Y-177551428D01*
X143623690Y-177646666D01*
X143718928Y-177694285D01*
X143861785Y-177694285D01*
X143957023Y-177646666D01*
X144004642Y-177599047D01*
X143099880Y-177027619D02*
X143099880Y-177694285D01*
X143099880Y-177503809D02*
X143052261Y-177599047D01*
X143004642Y-177646666D01*
X142909404Y-177694285D01*
X142814166Y-177694285D01*
X142052261Y-177027619D02*
X142052261Y-177551428D01*
X142099880Y-177646666D01*
X142195119Y-177694285D01*
X142385595Y-177694285D01*
X142480833Y-177646666D01*
X142052261Y-177075238D02*
X142147500Y-177027619D01*
X142385595Y-177027619D01*
X142480833Y-177075238D01*
X142528452Y-177170476D01*
X142528452Y-177265714D01*
X142480833Y-177360952D01*
X142385595Y-177408571D01*
X142147500Y-177408571D01*
X142052261Y-177456190D01*
X141576071Y-177027619D02*
X141576071Y-177694285D01*
X141576071Y-177599047D02*
X141528452Y-177646666D01*
X141433214Y-177694285D01*
X141290357Y-177694285D01*
X141195119Y-177646666D01*
X141147500Y-177551428D01*
X141147500Y-177027619D01*
X141147500Y-177551428D02*
X141099880Y-177646666D01*
X141004642Y-177694285D01*
X140861785Y-177694285D01*
X140766547Y-177646666D01*
X140718928Y-177551428D01*
X140718928Y-177027619D01*
X140242738Y-177027619D02*
X140242738Y-177694285D01*
X140242738Y-177599047D02*
X140195119Y-177646666D01*
X140099880Y-177694285D01*
X139957023Y-177694285D01*
X139861785Y-177646666D01*
X139814166Y-177551428D01*
X139814166Y-177027619D01*
X139814166Y-177551428D02*
X139766547Y-177646666D01*
X139671309Y-177694285D01*
X139528452Y-177694285D01*
X139433214Y-177646666D01*
X139385595Y-177551428D01*
X139385595Y-177027619D01*
X139439047Y-121957380D02*
X139439047Y-120957380D01*
X140010476Y-121957380D01*
X140010476Y-120957380D01*
X140867619Y-121909761D02*
X140772380Y-121957380D01*
X140581904Y-121957380D01*
X140486666Y-121909761D01*
X140439047Y-121814523D01*
X140439047Y-121433571D01*
X140486666Y-121338333D01*
X140581904Y-121290714D01*
X140772380Y-121290714D01*
X140867619Y-121338333D01*
X140915238Y-121433571D01*
X140915238Y-121528809D01*
X140439047Y-121624047D01*
X141343809Y-121957380D02*
X141343809Y-120957380D01*
X141439047Y-121576428D02*
X141724761Y-121957380D01*
X141724761Y-121290714D02*
X141343809Y-121671666D01*
X142296190Y-121957380D02*
X142200952Y-121909761D01*
X142153333Y-121862142D01*
X142105714Y-121766904D01*
X142105714Y-121481190D01*
X142153333Y-121385952D01*
X142200952Y-121338333D01*
X142296190Y-121290714D01*
X142439047Y-121290714D01*
X142534285Y-121338333D01*
X142581904Y-121385952D01*
X142629523Y-121481190D01*
X142629523Y-121766904D01*
X142581904Y-121862142D01*
X142534285Y-121909761D01*
X142439047Y-121957380D01*
X142296190Y-121957380D01*
X143058095Y-121957380D02*
X143058095Y-121290714D01*
X143058095Y-121385952D02*
X143105714Y-121338333D01*
X143200952Y-121290714D01*
X143343809Y-121290714D01*
X143439047Y-121338333D01*
X143486666Y-121433571D01*
X143486666Y-121957380D01*
X143486666Y-121433571D02*
X143534285Y-121338333D01*
X143629523Y-121290714D01*
X143772380Y-121290714D01*
X143867619Y-121338333D01*
X143915238Y-121433571D01*
X143915238Y-121957380D01*
X144391428Y-121957380D02*
X144391428Y-121290714D01*
X144391428Y-120957380D02*
X144343809Y-121005000D01*
X144391428Y-121052619D01*
X144439047Y-121005000D01*
X144391428Y-120957380D01*
X144391428Y-121052619D01*
X144867619Y-121957380D02*
X144867619Y-121290714D01*
X144867619Y-121385952D02*
X144915238Y-121338333D01*
X145010476Y-121290714D01*
X145153333Y-121290714D01*
X145248571Y-121338333D01*
X145296190Y-121433571D01*
X145296190Y-121957380D01*
X145296190Y-121433571D02*
X145343809Y-121338333D01*
X145439047Y-121290714D01*
X145581904Y-121290714D01*
X145677142Y-121338333D01*
X145724761Y-121433571D01*
X145724761Y-121957380D01*
X146200952Y-121957380D02*
X146200952Y-121290714D01*
X146200952Y-120957380D02*
X146153333Y-121005000D01*
X146200952Y-121052619D01*
X146248571Y-121005000D01*
X146200952Y-120957380D01*
X146200952Y-121052619D01*
X139510476Y-123607380D02*
X139510476Y-122607380D01*
X139510476Y-122988333D02*
X139605714Y-122940714D01*
X139796190Y-122940714D01*
X139891428Y-122988333D01*
X139939047Y-123035952D01*
X139986666Y-123131190D01*
X139986666Y-123416904D01*
X139939047Y-123512142D01*
X139891428Y-123559761D01*
X139796190Y-123607380D01*
X139605714Y-123607380D01*
X139510476Y-123559761D01*
X140320000Y-122940714D02*
X140558095Y-123607380D01*
X140796190Y-122940714D02*
X140558095Y-123607380D01*
X140462857Y-123845476D01*
X140415238Y-123893095D01*
X140320000Y-123940714D01*
X142272380Y-123083571D02*
X142415238Y-123131190D01*
X142462857Y-123178809D01*
X142510476Y-123274047D01*
X142510476Y-123416904D01*
X142462857Y-123512142D01*
X142415238Y-123559761D01*
X142320000Y-123607380D01*
X141939047Y-123607380D01*
X141939047Y-122607380D01*
X142272380Y-122607380D01*
X142367619Y-122655000D01*
X142415238Y-122702619D01*
X142462857Y-122797857D01*
X142462857Y-122893095D01*
X142415238Y-122988333D01*
X142367619Y-123035952D01*
X142272380Y-123083571D01*
X141939047Y-123083571D01*
X143320000Y-123559761D02*
X143224761Y-123607380D01*
X143034285Y-123607380D01*
X142939047Y-123559761D01*
X142891428Y-123464523D01*
X142891428Y-123083571D01*
X142939047Y-122988333D01*
X143034285Y-122940714D01*
X143224761Y-122940714D01*
X143320000Y-122988333D01*
X143367619Y-123083571D01*
X143367619Y-123178809D01*
X142891428Y-123274047D01*
X143796190Y-122940714D02*
X143796190Y-123607380D01*
X143796190Y-123035952D02*
X143843809Y-122988333D01*
X143939047Y-122940714D01*
X144081904Y-122940714D01*
X144177142Y-122988333D01*
X144224761Y-123083571D01*
X144224761Y-123607380D01*
X145034285Y-123083571D02*
X145177142Y-123131190D01*
X145224761Y-123178809D01*
X145272380Y-123274047D01*
X145272380Y-123416904D01*
X145224761Y-123512142D01*
X145177142Y-123559761D01*
X145081904Y-123607380D01*
X144700952Y-123607380D01*
X144700952Y-122607380D01*
X145034285Y-122607380D01*
X145129523Y-122655000D01*
X145177142Y-122702619D01*
X145224761Y-122797857D01*
X145224761Y-122893095D01*
X145177142Y-122988333D01*
X145129523Y-123035952D01*
X145034285Y-123083571D01*
X144700952Y-123083571D01*
X145700952Y-123083571D02*
X146034285Y-123083571D01*
X146177142Y-123607380D02*
X145700952Y-123607380D01*
X145700952Y-122607380D01*
X146177142Y-122607380D01*
X125175833Y-120262380D02*
X125747261Y-120262380D01*
X125461547Y-121262380D02*
X125461547Y-120262380D01*
X126223452Y-121262380D02*
X126128214Y-121214761D01*
X126080595Y-121167142D01*
X126032976Y-121071904D01*
X126032976Y-120786190D01*
X126080595Y-120690952D01*
X126128214Y-120643333D01*
X126223452Y-120595714D01*
X126366309Y-120595714D01*
X126461547Y-120643333D01*
X126509166Y-120690952D01*
X126556785Y-120786190D01*
X126556785Y-121071904D01*
X126509166Y-121167142D01*
X126461547Y-121214761D01*
X126366309Y-121262380D01*
X126223452Y-121262380D01*
X126985357Y-121262380D02*
X126985357Y-120262380D01*
X126985357Y-120643333D02*
X127080595Y-120595714D01*
X127271071Y-120595714D01*
X127366309Y-120643333D01*
X127413928Y-120690952D01*
X127461547Y-120786190D01*
X127461547Y-121071904D01*
X127413928Y-121167142D01*
X127366309Y-121214761D01*
X127271071Y-121262380D01*
X127080595Y-121262380D01*
X126985357Y-121214761D01*
X127890119Y-121262380D02*
X127890119Y-120595714D01*
X127890119Y-120262380D02*
X127842500Y-120310000D01*
X127890119Y-120357619D01*
X127937738Y-120310000D01*
X127890119Y-120262380D01*
X127890119Y-120357619D01*
X128794880Y-121262380D02*
X128794880Y-120738571D01*
X128747261Y-120643333D01*
X128652023Y-120595714D01*
X128461547Y-120595714D01*
X128366309Y-120643333D01*
X128794880Y-121214761D02*
X128699642Y-121262380D01*
X128461547Y-121262380D01*
X128366309Y-121214761D01*
X128318690Y-121119523D01*
X128318690Y-121024285D01*
X128366309Y-120929047D01*
X128461547Y-120881428D01*
X128699642Y-120881428D01*
X128794880Y-120833809D01*
X129223452Y-121214761D02*
X129318690Y-121262380D01*
X129509166Y-121262380D01*
X129604404Y-121214761D01*
X129652023Y-121119523D01*
X129652023Y-121071904D01*
X129604404Y-120976666D01*
X129509166Y-120929047D01*
X129366309Y-120929047D01*
X129271071Y-120881428D01*
X129223452Y-120786190D01*
X129223452Y-120738571D01*
X129271071Y-120643333D01*
X129366309Y-120595714D01*
X129509166Y-120595714D01*
X129604404Y-120643333D01*
X133166666Y-127132380D02*
X132833333Y-126656190D01*
X132595238Y-127132380D02*
X132595238Y-126132380D01*
X132976190Y-126132380D01*
X133071428Y-126180000D01*
X133119047Y-126227619D01*
X133166666Y-126322857D01*
X133166666Y-126465714D01*
X133119047Y-126560952D01*
X133071428Y-126608571D01*
X132976190Y-126656190D01*
X132595238Y-126656190D01*
X133976190Y-127084761D02*
X133880952Y-127132380D01*
X133690476Y-127132380D01*
X133595238Y-127084761D01*
X133547619Y-126989523D01*
X133547619Y-126608571D01*
X133595238Y-126513333D01*
X133690476Y-126465714D01*
X133880952Y-126465714D01*
X133976190Y-126513333D01*
X134023809Y-126608571D01*
X134023809Y-126703809D01*
X133547619Y-126799047D01*
X134357142Y-126465714D02*
X134595238Y-127132380D01*
X134833333Y-126465714D01*
X135976190Y-126608571D02*
X136309523Y-126608571D01*
X136452380Y-127132380D02*
X135976190Y-127132380D01*
X135976190Y-126132380D01*
X136452380Y-126132380D01*
X123195714Y-123057619D02*
X123243333Y-123010000D01*
X123338571Y-122962380D01*
X123576666Y-122962380D01*
X123671904Y-123010000D01*
X123719523Y-123057619D01*
X123767142Y-123152857D01*
X123767142Y-123248095D01*
X123719523Y-123390952D01*
X123148095Y-123962380D01*
X123767142Y-123962380D01*
X124386190Y-122962380D02*
X124481428Y-122962380D01*
X124576666Y-123010000D01*
X124624285Y-123057619D01*
X124671904Y-123152857D01*
X124719523Y-123343333D01*
X124719523Y-123581428D01*
X124671904Y-123771904D01*
X124624285Y-123867142D01*
X124576666Y-123914761D01*
X124481428Y-123962380D01*
X124386190Y-123962380D01*
X124290952Y-123914761D01*
X124243333Y-123867142D01*
X124195714Y-123771904D01*
X124148095Y-123581428D01*
X124148095Y-123343333D01*
X124195714Y-123152857D01*
X124243333Y-123057619D01*
X124290952Y-123010000D01*
X124386190Y-122962380D01*
X125671904Y-123962380D02*
X125100476Y-123962380D01*
X125386190Y-123962380D02*
X125386190Y-122962380D01*
X125290952Y-123105238D01*
X125195714Y-123200476D01*
X125100476Y-123248095D01*
X126148095Y-123962380D02*
X126338571Y-123962380D01*
X126433809Y-123914761D01*
X126481428Y-123867142D01*
X126576666Y-123724285D01*
X126624285Y-123533809D01*
X126624285Y-123152857D01*
X126576666Y-123057619D01*
X126529047Y-123010000D01*
X126433809Y-122962380D01*
X126243333Y-122962380D01*
X126148095Y-123010000D01*
X126100476Y-123057619D01*
X126052857Y-123152857D01*
X126052857Y-123390952D01*
X126100476Y-123486190D01*
X126148095Y-123533809D01*
X126243333Y-123581428D01*
X126433809Y-123581428D01*
X126529047Y-123533809D01*
X126576666Y-123486190D01*
X126624285Y-123390952D01*
X123138214Y-122424761D02*
X123281071Y-122472380D01*
X123519166Y-122472380D01*
X123614404Y-122424761D01*
X123662023Y-122377142D01*
X123709642Y-122281904D01*
X123709642Y-122186666D01*
X123662023Y-122091428D01*
X123614404Y-122043809D01*
X123519166Y-121996190D01*
X123328690Y-121948571D01*
X123233452Y-121900952D01*
X123185833Y-121853333D01*
X123138214Y-121758095D01*
X123138214Y-121662857D01*
X123185833Y-121567619D01*
X123233452Y-121520000D01*
X123328690Y-121472380D01*
X123566785Y-121472380D01*
X123709642Y-121520000D01*
X124566785Y-122424761D02*
X124471547Y-122472380D01*
X124281071Y-122472380D01*
X124185833Y-122424761D01*
X124138214Y-122377142D01*
X124090595Y-122281904D01*
X124090595Y-121996190D01*
X124138214Y-121900952D01*
X124185833Y-121853333D01*
X124281071Y-121805714D01*
X124471547Y-121805714D01*
X124566785Y-121853333D01*
X124995357Y-122472380D02*
X124995357Y-121472380D01*
X125423928Y-122472380D02*
X125423928Y-121948571D01*
X125376309Y-121853333D01*
X125281071Y-121805714D01*
X125138214Y-121805714D01*
X125042976Y-121853333D01*
X124995357Y-121900952D01*
X125900119Y-122472380D02*
X125900119Y-121805714D01*
X125900119Y-121996190D02*
X125947738Y-121900952D01*
X125995357Y-121853333D01*
X126090595Y-121805714D01*
X126185833Y-121805714D01*
X126947738Y-122472380D02*
X126947738Y-121948571D01*
X126900119Y-121853333D01*
X126804880Y-121805714D01*
X126614404Y-121805714D01*
X126519166Y-121853333D01*
X126947738Y-122424761D02*
X126852500Y-122472380D01*
X126614404Y-122472380D01*
X126519166Y-122424761D01*
X126471547Y-122329523D01*
X126471547Y-122234285D01*
X126519166Y-122139047D01*
X126614404Y-122091428D01*
X126852500Y-122091428D01*
X126947738Y-122043809D01*
X127423928Y-122472380D02*
X127423928Y-121805714D01*
X127423928Y-121900952D02*
X127471547Y-121853333D01*
X127566785Y-121805714D01*
X127709642Y-121805714D01*
X127804880Y-121853333D01*
X127852500Y-121948571D01*
X127852500Y-122472380D01*
X127852500Y-121948571D02*
X127900119Y-121853333D01*
X127995357Y-121805714D01*
X128138214Y-121805714D01*
X128233452Y-121853333D01*
X128281071Y-121948571D01*
X128281071Y-122472380D01*
X128757261Y-122472380D02*
X128757261Y-121805714D01*
X128757261Y-121900952D02*
X128804880Y-121853333D01*
X128900119Y-121805714D01*
X129042976Y-121805714D01*
X129138214Y-121853333D01*
X129185833Y-121948571D01*
X129185833Y-122472380D01*
X129185833Y-121948571D02*
X129233452Y-121853333D01*
X129328690Y-121805714D01*
X129471547Y-121805714D01*
X129566785Y-121853333D01*
X129614404Y-121948571D01*
X129614404Y-122472380D01*
D11*
X168857142Y-106457142D02*
X168857142Y-103457142D01*
X170571428Y-106457142D01*
X170571428Y-103457142D01*
X173142857Y-106314285D02*
X172857142Y-106457142D01*
X172285714Y-106457142D01*
X172000000Y-106314285D01*
X171857142Y-106028571D01*
X171857142Y-104885714D01*
X172000000Y-104600000D01*
X172285714Y-104457142D01*
X172857142Y-104457142D01*
X173142857Y-104600000D01*
X173285714Y-104885714D01*
X173285714Y-105171428D01*
X171857142Y-105457142D01*
X174571428Y-106457142D02*
X174571428Y-103457142D01*
X174857142Y-105314285D02*
X175714285Y-106457142D01*
X175714285Y-104457142D02*
X174571428Y-105600000D01*
X177428571Y-106457142D02*
X177142857Y-106314285D01*
X177000000Y-106171428D01*
X176857142Y-105885714D01*
X176857142Y-105028571D01*
X177000000Y-104742857D01*
X177142857Y-104600000D01*
X177428571Y-104457142D01*
X177857142Y-104457142D01*
X178142857Y-104600000D01*
X178285714Y-104742857D01*
X178428571Y-105028571D01*
X178428571Y-105885714D01*
X178285714Y-106171428D01*
X178142857Y-106314285D01*
X177857142Y-106457142D01*
X177428571Y-106457142D01*
X179714285Y-106457142D02*
X179714285Y-104457142D01*
X179714285Y-104742857D02*
X179857142Y-104600000D01*
X180142857Y-104457142D01*
X180571428Y-104457142D01*
X180857142Y-104600000D01*
X181000000Y-104885714D01*
X181000000Y-106457142D01*
X181000000Y-104885714D02*
X181142857Y-104600000D01*
X181428571Y-104457142D01*
X181857142Y-104457142D01*
X182142857Y-104600000D01*
X182285714Y-104885714D01*
X182285714Y-106457142D01*
X183714285Y-106457142D02*
X183714285Y-104457142D01*
X183714285Y-103457142D02*
X183571428Y-103600000D01*
X183714285Y-103742857D01*
X183857142Y-103600000D01*
X183714285Y-103457142D01*
X183714285Y-103742857D01*
X185142857Y-106457142D02*
X185142857Y-104457142D01*
X185142857Y-104742857D02*
X185285714Y-104600000D01*
X185571428Y-104457142D01*
X186000000Y-104457142D01*
X186285714Y-104600000D01*
X186428571Y-104885714D01*
X186428571Y-106457142D01*
X186428571Y-104885714D02*
X186571428Y-104600000D01*
X186857142Y-104457142D01*
X187285714Y-104457142D01*
X187571428Y-104600000D01*
X187714285Y-104885714D01*
X187714285Y-106457142D01*
X189142857Y-106457142D02*
X189142857Y-104457142D01*
X189142857Y-103457142D02*
X189000000Y-103600000D01*
X189142857Y-103742857D01*
X189285714Y-103600000D01*
X189142857Y-103457142D01*
X189142857Y-103742857D01*
X169571428Y-111357142D02*
X169571428Y-108357142D01*
X170714285Y-108357142D01*
X171000000Y-108500000D01*
X171142857Y-108642857D01*
X171285714Y-108928571D01*
X171285714Y-109357142D01*
X171142857Y-109642857D01*
X171000000Y-109785714D01*
X170714285Y-109928571D01*
X169571428Y-109928571D01*
X173857142Y-111357142D02*
X173857142Y-109785714D01*
X173714285Y-109500000D01*
X173428571Y-109357142D01*
X172857142Y-109357142D01*
X172571428Y-109500000D01*
X173857142Y-111214285D02*
X173571428Y-111357142D01*
X172857142Y-111357142D01*
X172571428Y-111214285D01*
X172428571Y-110928571D01*
X172428571Y-110642857D01*
X172571428Y-110357142D01*
X172857142Y-110214285D01*
X173571428Y-110214285D01*
X173857142Y-110071428D01*
X175285714Y-109357142D02*
X175285714Y-111357142D01*
X175285714Y-109642857D02*
X175428571Y-109500000D01*
X175714285Y-109357142D01*
X176142857Y-109357142D01*
X176428571Y-109500000D01*
X176571428Y-109785714D01*
X176571428Y-111357142D01*
X179142857Y-111214285D02*
X178857142Y-111357142D01*
X178285714Y-111357142D01*
X178000000Y-111214285D01*
X177857142Y-110928571D01*
X177857142Y-109785714D01*
X178000000Y-109500000D01*
X178285714Y-109357142D01*
X178857142Y-109357142D01*
X179142857Y-109500000D01*
X179285714Y-109785714D01*
X179285714Y-110071428D01*
X177857142Y-110357142D01*
X181000000Y-111357142D02*
X180714285Y-111214285D01*
X180571428Y-110928571D01*
X180571428Y-108357142D01*
X184000000Y-108357142D02*
X185000000Y-111357142D01*
X186000000Y-108357142D01*
X188571428Y-111357142D02*
X186857142Y-111357142D01*
X187714285Y-111357142D02*
X187714285Y-108357142D01*
X187428571Y-108785714D01*
X187142857Y-109071428D01*
X186857142Y-109214285D01*
X175000000Y-116257142D02*
X174000000Y-114828571D01*
X173285714Y-116257142D02*
X173285714Y-113257142D01*
X174428571Y-113257142D01*
X174714285Y-113400000D01*
X174857142Y-113542857D01*
X175000000Y-113828571D01*
X175000000Y-114257142D01*
X174857142Y-114542857D01*
X174714285Y-114685714D01*
X174428571Y-114828571D01*
X173285714Y-114828571D01*
X177428571Y-116114285D02*
X177142857Y-116257142D01*
X176571428Y-116257142D01*
X176285714Y-116114285D01*
X176142857Y-115828571D01*
X176142857Y-114685714D01*
X176285714Y-114400000D01*
X176571428Y-114257142D01*
X177142857Y-114257142D01*
X177428571Y-114400000D01*
X177571428Y-114685714D01*
X177571428Y-114971428D01*
X176142857Y-115257142D01*
X178571428Y-114257142D02*
X179285714Y-116257142D01*
X180000000Y-114257142D01*
X183428571Y-114685714D02*
X184428571Y-114685714D01*
X184857142Y-116257142D02*
X183428571Y-116257142D01*
X183428571Y-113257142D01*
X184857142Y-113257142D01*
D10*
X139439047Y-153957380D02*
X139439047Y-152957380D01*
X140010476Y-153957380D01*
X140010476Y-152957380D01*
X140867619Y-153909761D02*
X140772380Y-153957380D01*
X140581904Y-153957380D01*
X140486666Y-153909761D01*
X140439047Y-153814523D01*
X140439047Y-153433571D01*
X140486666Y-153338333D01*
X140581904Y-153290714D01*
X140772380Y-153290714D01*
X140867619Y-153338333D01*
X140915238Y-153433571D01*
X140915238Y-153528809D01*
X140439047Y-153624047D01*
X141343809Y-153957380D02*
X141343809Y-152957380D01*
X141439047Y-153576428D02*
X141724761Y-153957380D01*
X141724761Y-153290714D02*
X141343809Y-153671666D01*
X142296190Y-153957380D02*
X142200952Y-153909761D01*
X142153333Y-153862142D01*
X142105714Y-153766904D01*
X142105714Y-153481190D01*
X142153333Y-153385952D01*
X142200952Y-153338333D01*
X142296190Y-153290714D01*
X142439047Y-153290714D01*
X142534285Y-153338333D01*
X142581904Y-153385952D01*
X142629523Y-153481190D01*
X142629523Y-153766904D01*
X142581904Y-153862142D01*
X142534285Y-153909761D01*
X142439047Y-153957380D01*
X142296190Y-153957380D01*
X143058095Y-153957380D02*
X143058095Y-153290714D01*
X143058095Y-153385952D02*
X143105714Y-153338333D01*
X143200952Y-153290714D01*
X143343809Y-153290714D01*
X143439047Y-153338333D01*
X143486666Y-153433571D01*
X143486666Y-153957380D01*
X143486666Y-153433571D02*
X143534285Y-153338333D01*
X143629523Y-153290714D01*
X143772380Y-153290714D01*
X143867619Y-153338333D01*
X143915238Y-153433571D01*
X143915238Y-153957380D01*
X144391428Y-153957380D02*
X144391428Y-153290714D01*
X144391428Y-152957380D02*
X144343809Y-153005000D01*
X144391428Y-153052619D01*
X144439047Y-153005000D01*
X144391428Y-152957380D01*
X144391428Y-153052619D01*
X144867619Y-153957380D02*
X144867619Y-153290714D01*
X144867619Y-153385952D02*
X144915238Y-153338333D01*
X145010476Y-153290714D01*
X145153333Y-153290714D01*
X145248571Y-153338333D01*
X145296190Y-153433571D01*
X145296190Y-153957380D01*
X145296190Y-153433571D02*
X145343809Y-153338333D01*
X145439047Y-153290714D01*
X145581904Y-153290714D01*
X145677142Y-153338333D01*
X145724761Y-153433571D01*
X145724761Y-153957380D01*
X146200952Y-153957380D02*
X146200952Y-153290714D01*
X146200952Y-152957380D02*
X146153333Y-153005000D01*
X146200952Y-153052619D01*
X146248571Y-153005000D01*
X146200952Y-152957380D01*
X146200952Y-153052619D01*
X139510476Y-155607380D02*
X139510476Y-154607380D01*
X139510476Y-154988333D02*
X139605714Y-154940714D01*
X139796190Y-154940714D01*
X139891428Y-154988333D01*
X139939047Y-155035952D01*
X139986666Y-155131190D01*
X139986666Y-155416904D01*
X139939047Y-155512142D01*
X139891428Y-155559761D01*
X139796190Y-155607380D01*
X139605714Y-155607380D01*
X139510476Y-155559761D01*
X140320000Y-154940714D02*
X140558095Y-155607380D01*
X140796190Y-154940714D02*
X140558095Y-155607380D01*
X140462857Y-155845476D01*
X140415238Y-155893095D01*
X140320000Y-155940714D01*
X142272380Y-155083571D02*
X142415238Y-155131190D01*
X142462857Y-155178809D01*
X142510476Y-155274047D01*
X142510476Y-155416904D01*
X142462857Y-155512142D01*
X142415238Y-155559761D01*
X142320000Y-155607380D01*
X141939047Y-155607380D01*
X141939047Y-154607380D01*
X142272380Y-154607380D01*
X142367619Y-154655000D01*
X142415238Y-154702619D01*
X142462857Y-154797857D01*
X142462857Y-154893095D01*
X142415238Y-154988333D01*
X142367619Y-155035952D01*
X142272380Y-155083571D01*
X141939047Y-155083571D01*
X143320000Y-155559761D02*
X143224761Y-155607380D01*
X143034285Y-155607380D01*
X142939047Y-155559761D01*
X142891428Y-155464523D01*
X142891428Y-155083571D01*
X142939047Y-154988333D01*
X143034285Y-154940714D01*
X143224761Y-154940714D01*
X143320000Y-154988333D01*
X143367619Y-155083571D01*
X143367619Y-155178809D01*
X142891428Y-155274047D01*
X143796190Y-154940714D02*
X143796190Y-155607380D01*
X143796190Y-155035952D02*
X143843809Y-154988333D01*
X143939047Y-154940714D01*
X144081904Y-154940714D01*
X144177142Y-154988333D01*
X144224761Y-155083571D01*
X144224761Y-155607380D01*
X145034285Y-155083571D02*
X145177142Y-155131190D01*
X145224761Y-155178809D01*
X145272380Y-155274047D01*
X145272380Y-155416904D01*
X145224761Y-155512142D01*
X145177142Y-155559761D01*
X145081904Y-155607380D01*
X144700952Y-155607380D01*
X144700952Y-154607380D01*
X145034285Y-154607380D01*
X145129523Y-154655000D01*
X145177142Y-154702619D01*
X145224761Y-154797857D01*
X145224761Y-154893095D01*
X145177142Y-154988333D01*
X145129523Y-155035952D01*
X145034285Y-155083571D01*
X144700952Y-155083571D01*
X145700952Y-155083571D02*
X146034285Y-155083571D01*
X146177142Y-155607380D02*
X145700952Y-155607380D01*
X145700952Y-154607380D01*
X146177142Y-154607380D01*
X125175833Y-152262380D02*
X125747261Y-152262380D01*
X125461547Y-153262380D02*
X125461547Y-152262380D01*
X126223452Y-153262380D02*
X126128214Y-153214761D01*
X126080595Y-153167142D01*
X126032976Y-153071904D01*
X126032976Y-152786190D01*
X126080595Y-152690952D01*
X126128214Y-152643333D01*
X126223452Y-152595714D01*
X126366309Y-152595714D01*
X126461547Y-152643333D01*
X126509166Y-152690952D01*
X126556785Y-152786190D01*
X126556785Y-153071904D01*
X126509166Y-153167142D01*
X126461547Y-153214761D01*
X126366309Y-153262380D01*
X126223452Y-153262380D01*
X126985357Y-153262380D02*
X126985357Y-152262380D01*
X126985357Y-152643333D02*
X127080595Y-152595714D01*
X127271071Y-152595714D01*
X127366309Y-152643333D01*
X127413928Y-152690952D01*
X127461547Y-152786190D01*
X127461547Y-153071904D01*
X127413928Y-153167142D01*
X127366309Y-153214761D01*
X127271071Y-153262380D01*
X127080595Y-153262380D01*
X126985357Y-153214761D01*
X127890119Y-153262380D02*
X127890119Y-152595714D01*
X127890119Y-152262380D02*
X127842500Y-152310000D01*
X127890119Y-152357619D01*
X127937738Y-152310000D01*
X127890119Y-152262380D01*
X127890119Y-152357619D01*
X128794880Y-153262380D02*
X128794880Y-152738571D01*
X128747261Y-152643333D01*
X128652023Y-152595714D01*
X128461547Y-152595714D01*
X128366309Y-152643333D01*
X128794880Y-153214761D02*
X128699642Y-153262380D01*
X128461547Y-153262380D01*
X128366309Y-153214761D01*
X128318690Y-153119523D01*
X128318690Y-153024285D01*
X128366309Y-152929047D01*
X128461547Y-152881428D01*
X128699642Y-152881428D01*
X128794880Y-152833809D01*
X129223452Y-153214761D02*
X129318690Y-153262380D01*
X129509166Y-153262380D01*
X129604404Y-153214761D01*
X129652023Y-153119523D01*
X129652023Y-153071904D01*
X129604404Y-152976666D01*
X129509166Y-152929047D01*
X129366309Y-152929047D01*
X129271071Y-152881428D01*
X129223452Y-152786190D01*
X129223452Y-152738571D01*
X129271071Y-152643333D01*
X129366309Y-152595714D01*
X129509166Y-152595714D01*
X129604404Y-152643333D01*
X133166666Y-159132380D02*
X132833333Y-158656190D01*
X132595238Y-159132380D02*
X132595238Y-158132380D01*
X132976190Y-158132380D01*
X133071428Y-158180000D01*
X133119047Y-158227619D01*
X133166666Y-158322857D01*
X133166666Y-158465714D01*
X133119047Y-158560952D01*
X133071428Y-158608571D01*
X132976190Y-158656190D01*
X132595238Y-158656190D01*
X133976190Y-159084761D02*
X133880952Y-159132380D01*
X133690476Y-159132380D01*
X133595238Y-159084761D01*
X133547619Y-158989523D01*
X133547619Y-158608571D01*
X133595238Y-158513333D01*
X133690476Y-158465714D01*
X133880952Y-158465714D01*
X133976190Y-158513333D01*
X134023809Y-158608571D01*
X134023809Y-158703809D01*
X133547619Y-158799047D01*
X134357142Y-158465714D02*
X134595238Y-159132380D01*
X134833333Y-158465714D01*
X135976190Y-158608571D02*
X136309523Y-158608571D01*
X136452380Y-159132380D02*
X135976190Y-159132380D01*
X135976190Y-158132380D01*
X136452380Y-158132380D01*
X123195714Y-155057619D02*
X123243333Y-155010000D01*
X123338571Y-154962380D01*
X123576666Y-154962380D01*
X123671904Y-155010000D01*
X123719523Y-155057619D01*
X123767142Y-155152857D01*
X123767142Y-155248095D01*
X123719523Y-155390952D01*
X123148095Y-155962380D01*
X123767142Y-155962380D01*
X124386190Y-154962380D02*
X124481428Y-154962380D01*
X124576666Y-155010000D01*
X124624285Y-155057619D01*
X124671904Y-155152857D01*
X124719523Y-155343333D01*
X124719523Y-155581428D01*
X124671904Y-155771904D01*
X124624285Y-155867142D01*
X124576666Y-155914761D01*
X124481428Y-155962380D01*
X124386190Y-155962380D01*
X124290952Y-155914761D01*
X124243333Y-155867142D01*
X124195714Y-155771904D01*
X124148095Y-155581428D01*
X124148095Y-155343333D01*
X124195714Y-155152857D01*
X124243333Y-155057619D01*
X124290952Y-155010000D01*
X124386190Y-154962380D01*
X125671904Y-155962380D02*
X125100476Y-155962380D01*
X125386190Y-155962380D02*
X125386190Y-154962380D01*
X125290952Y-155105238D01*
X125195714Y-155200476D01*
X125100476Y-155248095D01*
X126148095Y-155962380D02*
X126338571Y-155962380D01*
X126433809Y-155914761D01*
X126481428Y-155867142D01*
X126576666Y-155724285D01*
X126624285Y-155533809D01*
X126624285Y-155152857D01*
X126576666Y-155057619D01*
X126529047Y-155010000D01*
X126433809Y-154962380D01*
X126243333Y-154962380D01*
X126148095Y-155010000D01*
X126100476Y-155057619D01*
X126052857Y-155152857D01*
X126052857Y-155390952D01*
X126100476Y-155486190D01*
X126148095Y-155533809D01*
X126243333Y-155581428D01*
X126433809Y-155581428D01*
X126529047Y-155533809D01*
X126576666Y-155486190D01*
X126624285Y-155390952D01*
X123138214Y-154424761D02*
X123281071Y-154472380D01*
X123519166Y-154472380D01*
X123614404Y-154424761D01*
X123662023Y-154377142D01*
X123709642Y-154281904D01*
X123709642Y-154186666D01*
X123662023Y-154091428D01*
X123614404Y-154043809D01*
X123519166Y-153996190D01*
X123328690Y-153948571D01*
X123233452Y-153900952D01*
X123185833Y-153853333D01*
X123138214Y-153758095D01*
X123138214Y-153662857D01*
X123185833Y-153567619D01*
X123233452Y-153520000D01*
X123328690Y-153472380D01*
X123566785Y-153472380D01*
X123709642Y-153520000D01*
X124566785Y-154424761D02*
X124471547Y-154472380D01*
X124281071Y-154472380D01*
X124185833Y-154424761D01*
X124138214Y-154377142D01*
X124090595Y-154281904D01*
X124090595Y-153996190D01*
X124138214Y-153900952D01*
X124185833Y-153853333D01*
X124281071Y-153805714D01*
X124471547Y-153805714D01*
X124566785Y-153853333D01*
X124995357Y-154472380D02*
X124995357Y-153472380D01*
X125423928Y-154472380D02*
X125423928Y-153948571D01*
X125376309Y-153853333D01*
X125281071Y-153805714D01*
X125138214Y-153805714D01*
X125042976Y-153853333D01*
X124995357Y-153900952D01*
X125900119Y-154472380D02*
X125900119Y-153805714D01*
X125900119Y-153996190D02*
X125947738Y-153900952D01*
X125995357Y-153853333D01*
X126090595Y-153805714D01*
X126185833Y-153805714D01*
X126947738Y-154472380D02*
X126947738Y-153948571D01*
X126900119Y-153853333D01*
X126804880Y-153805714D01*
X126614404Y-153805714D01*
X126519166Y-153853333D01*
X126947738Y-154424761D02*
X126852500Y-154472380D01*
X126614404Y-154472380D01*
X126519166Y-154424761D01*
X126471547Y-154329523D01*
X126471547Y-154234285D01*
X126519166Y-154139047D01*
X126614404Y-154091428D01*
X126852500Y-154091428D01*
X126947738Y-154043809D01*
X127423928Y-154472380D02*
X127423928Y-153805714D01*
X127423928Y-153900952D02*
X127471547Y-153853333D01*
X127566785Y-153805714D01*
X127709642Y-153805714D01*
X127804880Y-153853333D01*
X127852500Y-153948571D01*
X127852500Y-154472380D01*
X127852500Y-153948571D02*
X127900119Y-153853333D01*
X127995357Y-153805714D01*
X128138214Y-153805714D01*
X128233452Y-153853333D01*
X128281071Y-153948571D01*
X128281071Y-154472380D01*
X128757261Y-154472380D02*
X128757261Y-153805714D01*
X128757261Y-153900952D02*
X128804880Y-153853333D01*
X128900119Y-153805714D01*
X129042976Y-153805714D01*
X129138214Y-153853333D01*
X129185833Y-153948571D01*
X129185833Y-154472380D01*
X129185833Y-153948571D02*
X129233452Y-153853333D01*
X129328690Y-153805714D01*
X129471547Y-153805714D01*
X129566785Y-153853333D01*
X129614404Y-153948571D01*
X129614404Y-154472380D01*
D12*
X185635000Y-154110000D02*
X186110000Y-154110000D01*
X177890000Y-145890000D02*
X177890000Y-146365000D01*
X178365000Y-145890000D02*
X177890000Y-145890000D01*
X186110000Y-145890000D02*
X186110000Y-146365000D01*
X185635000Y-145890000D02*
X186110000Y-145890000D01*
X177890000Y-154110000D02*
X177890000Y-153635000D01*
X178365000Y-154110000D02*
X177890000Y-154110000D01*
X185956447Y-157438680D02*
X185602893Y-157085126D01*
X183835126Y-158852893D02*
X184188680Y-159206447D01*
X188431320Y-159913553D02*
X188784874Y-160267107D01*
X187017107Y-162034874D02*
X186663553Y-161681320D01*
X188784874Y-160267107D02*
X188431320Y-160620660D01*
X187017107Y-162034874D02*
X187370660Y-161681320D01*
X183835126Y-158852893D02*
X184188680Y-158499340D01*
X185602893Y-157085126D02*
X185249340Y-157438680D01*
X184428680Y-140643553D02*
X184075126Y-140997107D01*
X185842893Y-142764874D02*
X186196447Y-142411320D01*
X186903553Y-138168680D02*
X187257107Y-137815126D01*
X189024874Y-139582893D02*
X188671320Y-139936447D01*
X187257107Y-137815126D02*
X187610660Y-138168680D01*
X189024874Y-139582893D02*
X188671320Y-139229340D01*
X185842893Y-142764874D02*
X185489340Y-142411320D01*
X184075126Y-140997107D02*
X184428680Y-141350660D01*
X182026167Y-163583883D02*
X181460482Y-163018198D01*
X181460482Y-163018198D02*
X184218198Y-160260482D01*
X183581802Y-165139518D02*
X186339518Y-162381802D01*
X188677738Y-146464187D02*
X188294715Y-146785581D01*
X189901685Y-148700692D02*
X190284707Y-148379298D01*
X191358893Y-144214430D02*
X191741915Y-143893036D01*
X193348885Y-145808147D02*
X192965862Y-146129541D01*
X191741915Y-143893036D02*
X192063309Y-144276059D01*
X193348885Y-145808147D02*
X193027491Y-145425125D01*
X189901685Y-148700692D02*
X189580291Y-148317669D01*
X188294715Y-146785581D02*
X188616109Y-147168603D01*
X173166680Y-129813553D02*
X172813126Y-130167107D01*
X174580893Y-131934874D02*
X174934447Y-131581320D01*
X175641553Y-127338680D02*
X175995107Y-126985126D01*
X177762874Y-128752893D02*
X177409320Y-129106447D01*
X175995107Y-126985126D02*
X176348660Y-127338680D01*
X177762874Y-128752893D02*
X177409320Y-128399340D01*
X174580893Y-131934874D02*
X174227340Y-131581320D01*
X172813126Y-130167107D02*
X173166680Y-130520660D01*
X170876167Y-174522792D02*
X170310482Y-173957107D01*
X170310482Y-173957107D02*
X173068198Y-171199391D01*
X172431802Y-176078427D02*
X175189518Y-173320711D01*
X173602060Y-161474312D02*
X174111359Y-161564115D01*
X173848641Y-160075885D02*
X174357940Y-160165688D01*
X192150000Y-151950000D02*
X191350000Y-151950000D01*
X191350000Y-151950000D02*
X191350000Y-148050000D01*
X194350000Y-151950000D02*
X194350000Y-148050000D01*
X173633883Y-128234924D02*
X173068198Y-128800609D01*
X173068198Y-128800609D02*
X170310482Y-126042893D01*
X175189518Y-126679289D02*
X172431802Y-123921573D01*
X176665025Y-169094974D02*
X176099340Y-168529289D01*
X176099340Y-168529289D02*
X178857056Y-165771573D01*
X178220660Y-170650609D02*
X180978376Y-167892893D01*
X187180333Y-157883835D02*
X186567497Y-157369605D01*
X186567497Y-157369605D02*
X189074369Y-154382032D01*
X188865631Y-159297968D02*
X191372503Y-156310395D01*
X174027979Y-163791179D02*
X174815826Y-163930097D01*
X174815826Y-163930097D02*
X174138598Y-167770847D01*
X171861402Y-163409153D02*
X171184174Y-167249903D01*
X189687205Y-145103738D02*
X189074369Y-145617968D01*
X189074369Y-145617968D02*
X186567497Y-142630395D01*
X191372503Y-143689605D02*
X188865631Y-140702032D01*
X189358578Y-149300000D02*
X188841422Y-149300000D01*
X189358578Y-150720000D02*
X188841422Y-150720000D01*
X178754680Y-135321553D02*
X178401126Y-135675107D01*
X180168893Y-137442874D02*
X180522447Y-137089320D01*
X181229553Y-132846680D02*
X181583107Y-132493126D01*
X183350874Y-134260893D02*
X182997320Y-134614447D01*
X181583107Y-132493126D02*
X181936660Y-132846680D01*
X183350874Y-134260893D02*
X182997320Y-133907340D01*
X180168893Y-137442874D02*
X179815340Y-137089320D01*
X178401126Y-135675107D02*
X178754680Y-136028660D01*
X190284707Y-151627566D02*
X189901685Y-151306172D01*
X188294715Y-153221283D02*
X188677738Y-153542677D01*
X192965862Y-153877323D02*
X193348885Y-154198717D01*
X191741915Y-156113828D02*
X191358893Y-155792434D01*
X193348885Y-154198717D02*
X193027491Y-154581739D01*
X191741915Y-156113828D02*
X192063309Y-155730805D01*
X188294715Y-153221283D02*
X188616109Y-152838261D01*
X189901685Y-151306172D02*
X189580291Y-151689195D01*
X174934447Y-168418680D02*
X174580893Y-168065126D01*
X172813126Y-169832893D02*
X173166680Y-170186447D01*
X177409320Y-170893553D02*
X177762874Y-171247107D01*
X175995107Y-173014874D02*
X175641553Y-172661320D01*
X177762874Y-171247107D02*
X177409320Y-171600660D01*
X175995107Y-173014874D02*
X176348660Y-172661320D01*
X172813126Y-169832893D02*
X173166680Y-169479340D01*
X174580893Y-168065126D02*
X174227340Y-168418680D01*
X180522447Y-163024175D02*
X180168893Y-162670621D01*
X178401126Y-164438388D02*
X178754680Y-164791942D01*
X182997320Y-165499048D02*
X183350874Y-165852602D01*
X181583107Y-167620369D02*
X181229553Y-167266815D01*
X183350874Y-165852602D02*
X182997320Y-166206155D01*
X181583107Y-167620369D02*
X181936660Y-167266815D01*
X178401126Y-164438388D02*
X178754680Y-164084835D01*
X180168893Y-162670621D02*
X179815340Y-163024175D01*
X180230000Y-139711422D02*
X180230000Y-140228578D01*
X181650000Y-139711422D02*
X181650000Y-140228578D01*
X173350751Y-132368071D02*
X174138598Y-132229153D01*
X174138598Y-132229153D02*
X174815826Y-136069903D01*
X171184174Y-132750097D02*
X171861402Y-136590847D01*
X181650000Y-160288578D02*
X181650000Y-159771422D01*
X180230000Y-160288578D02*
X180230000Y-159771422D01*
X173888641Y-140074115D02*
X174397940Y-139984312D01*
X173642060Y-138675688D02*
X174151359Y-138585885D01*
X174930000Y-142050000D02*
X175730000Y-142050000D01*
X175730000Y-142050000D02*
X175730000Y-145950000D01*
X172730000Y-142050000D02*
X172730000Y-145950000D01*
X174970000Y-154050000D02*
X175770000Y-154050000D01*
X175770000Y-154050000D02*
X175770000Y-157950000D01*
X172770000Y-154050000D02*
X172770000Y-157950000D01*
X179422741Y-133662742D02*
X178857056Y-134228427D01*
X178857056Y-134228427D02*
X176099340Y-131470711D01*
X180978376Y-132107107D02*
X178220660Y-129349391D01*
X184783883Y-139173833D02*
X184218198Y-139739518D01*
X184218198Y-139739518D02*
X181460482Y-136981802D01*
X186339518Y-137618198D02*
X183581802Y-134860482D01*
X174770000Y-148551422D02*
X174770000Y-149068578D01*
X176190000Y-148551422D02*
X176190000Y-149068578D01*
X130390000Y-185135000D02*
X130390000Y-185610000D01*
X138610000Y-177390000D02*
X138135000Y-177390000D01*
X138610000Y-177865000D02*
X138610000Y-177390000D01*
X138610000Y-185610000D02*
X138135000Y-185610000D01*
X138610000Y-185135000D02*
X138610000Y-185610000D01*
X130390000Y-177390000D02*
X130865000Y-177390000D01*
X130390000Y-177865000D02*
X130390000Y-177390000D01*
X127061320Y-185456447D02*
X127414874Y-185102893D01*
X125647107Y-183335126D02*
X125293553Y-183688680D01*
X124586447Y-187931320D02*
X124232893Y-188284874D01*
X122465126Y-186517107D02*
X122818680Y-186163553D01*
X124232893Y-188284874D02*
X123879340Y-187931320D01*
X122465126Y-186517107D02*
X122818680Y-186870660D01*
X125647107Y-183335126D02*
X126000660Y-183688680D01*
X127414874Y-185102893D02*
X127061320Y-184749340D01*
X143856447Y-183928680D02*
X143502893Y-183575126D01*
X141735126Y-185342893D02*
X142088680Y-185696447D01*
X146331320Y-186403553D02*
X146684874Y-186757107D01*
X144917107Y-188524874D02*
X144563553Y-188171320D01*
X146684874Y-186757107D02*
X146331320Y-187110660D01*
X144917107Y-188524874D02*
X145270660Y-188171320D01*
X141735126Y-185342893D02*
X142088680Y-184989340D01*
X143502893Y-183575126D02*
X143149340Y-183928680D01*
X120916117Y-181526167D02*
X121481802Y-180960482D01*
X121481802Y-180960482D02*
X124239518Y-183718198D01*
X119360482Y-183081802D02*
X122118198Y-185839518D01*
X138035813Y-188177738D02*
X137714419Y-187794715D01*
X135799308Y-189401685D02*
X136120702Y-189784707D01*
X140285570Y-190858893D02*
X140606964Y-191241915D01*
X138691853Y-192848885D02*
X138370459Y-192465862D01*
X140606964Y-191241915D02*
X140223941Y-191563309D01*
X138691853Y-192848885D02*
X139074875Y-192527491D01*
X135799308Y-189401685D02*
X136182331Y-189080291D01*
X137714419Y-187794715D02*
X137331397Y-188116109D01*
X154686447Y-172666680D02*
X154332893Y-172313126D01*
X152565126Y-174080893D02*
X152918680Y-174434447D01*
X157161320Y-175141553D02*
X157514874Y-175495107D01*
X155747107Y-177262874D02*
X155393553Y-176909320D01*
X157514874Y-175495107D02*
X157161320Y-175848660D01*
X155747107Y-177262874D02*
X156100660Y-176909320D01*
X152565126Y-174080893D02*
X152918680Y-173727340D01*
X154332893Y-172313126D02*
X153979340Y-172666680D01*
X109977208Y-170376167D02*
X110542893Y-169810482D01*
X110542893Y-169810482D02*
X113300609Y-172568198D01*
X108421573Y-171931802D02*
X111179289Y-174689518D01*
X123025688Y-173102060D02*
X122935885Y-173611359D01*
X124424115Y-173348641D02*
X124334312Y-173857940D01*
X132550000Y-191650000D02*
X132550000Y-190850000D01*
X132550000Y-190850000D02*
X136450000Y-190850000D01*
X132550000Y-193850000D02*
X136450000Y-193850000D01*
X156265076Y-173133883D02*
X155699391Y-172568198D01*
X155699391Y-172568198D02*
X158457107Y-169810482D01*
X157820711Y-174689518D02*
X160578427Y-171931802D01*
X115405026Y-176165025D02*
X115970711Y-175599340D01*
X115970711Y-175599340D02*
X118728427Y-178357056D01*
X113849391Y-177720660D02*
X116607107Y-180478376D01*
X126616165Y-186680333D02*
X127130395Y-186067497D01*
X127130395Y-186067497D02*
X130117968Y-188574369D01*
X125202032Y-188365631D02*
X128189605Y-190872503D01*
X120708821Y-173527979D02*
X120569903Y-174315826D01*
X120569903Y-174315826D02*
X116729153Y-173638598D01*
X121090847Y-171361402D02*
X117250097Y-170684174D01*
X139396262Y-189187205D02*
X138882032Y-188574369D01*
X138882032Y-188574369D02*
X141869605Y-186067497D01*
X140810395Y-190872503D02*
X143797968Y-188365631D01*
X135200000Y-188858578D02*
X135200000Y-188341422D01*
X133780000Y-188858578D02*
X133780000Y-188341422D01*
X149178447Y-178254680D02*
X148824893Y-177901126D01*
X147057126Y-179668893D02*
X147410680Y-180022447D01*
X151653320Y-180729553D02*
X152006874Y-181083107D01*
X150239107Y-182850874D02*
X149885553Y-182497320D01*
X152006874Y-181083107D02*
X151653320Y-181436660D01*
X150239107Y-182850874D02*
X150592660Y-182497320D01*
X147057126Y-179668893D02*
X147410680Y-179315340D01*
X148824893Y-177901126D02*
X148471340Y-178254680D01*
X132872434Y-189784707D02*
X133193828Y-189401685D01*
X131278717Y-187794715D02*
X130957323Y-188177738D01*
X130622677Y-192465862D02*
X130301283Y-192848885D01*
X128386172Y-191241915D02*
X128707566Y-190858893D01*
X130301283Y-192848885D02*
X129918261Y-192527491D01*
X128386172Y-191241915D02*
X128769195Y-191563309D01*
X131278717Y-187794715D02*
X131661739Y-188116109D01*
X133193828Y-189401685D02*
X132810805Y-189080291D01*
X116081320Y-174434447D02*
X116434874Y-174080893D01*
X114667107Y-172313126D02*
X114313553Y-172666680D01*
X113606447Y-176909320D02*
X113252893Y-177262874D01*
X111485126Y-175495107D02*
X111838680Y-175141553D01*
X113252893Y-177262874D02*
X112899340Y-176909320D01*
X111485126Y-175495107D02*
X111838680Y-175848660D01*
X114667107Y-172313126D02*
X115020660Y-172666680D01*
X116434874Y-174080893D02*
X116081320Y-173727340D01*
X121475825Y-180022447D02*
X121829379Y-179668893D01*
X120061612Y-177901126D02*
X119708058Y-178254680D01*
X119000952Y-182497320D02*
X118647398Y-182850874D01*
X116879631Y-181083107D02*
X117233185Y-180729553D01*
X118647398Y-182850874D02*
X118293845Y-182497320D01*
X116879631Y-181083107D02*
X117233185Y-181436660D01*
X120061612Y-177901126D02*
X120415165Y-178254680D01*
X121829379Y-179668893D02*
X121475825Y-179315340D01*
X144788578Y-179730000D02*
X144271422Y-179730000D01*
X144788578Y-181150000D02*
X144271422Y-181150000D01*
X152131929Y-172850751D02*
X152270847Y-173638598D01*
X152270847Y-173638598D02*
X148430097Y-174315826D01*
X151749903Y-170684174D02*
X147909153Y-171361402D01*
X124211422Y-181150000D02*
X124728578Y-181150000D01*
X124211422Y-179730000D02*
X124728578Y-179730000D01*
X144425885Y-173388641D02*
X144515688Y-173897940D01*
X145824312Y-173142060D02*
X145914115Y-173651359D01*
X142450000Y-174430000D02*
X142450000Y-175230000D01*
X142450000Y-175230000D02*
X138550000Y-175230000D01*
X142450000Y-172230000D02*
X138550000Y-172230000D01*
X130450000Y-174470000D02*
X130450000Y-175270000D01*
X130450000Y-175270000D02*
X126550000Y-175270000D01*
X130450000Y-172270000D02*
X126550000Y-172270000D01*
X150837258Y-178922741D02*
X150271573Y-178357056D01*
X150271573Y-178357056D02*
X153029289Y-175599340D01*
X152392893Y-180478376D02*
X155150609Y-177720660D01*
X145326167Y-184283883D02*
X144760482Y-183718198D01*
X144760482Y-183718198D02*
X147518198Y-180960482D01*
X146881802Y-185839518D02*
X149639518Y-183081802D01*
X135948578Y-174270000D02*
X135431422Y-174270000D01*
X135948578Y-175690000D02*
X135431422Y-175690000D01*
X138610000Y-114365000D02*
X138610000Y-113890000D01*
X130390000Y-122110000D02*
X130865000Y-122110000D01*
X130390000Y-121635000D02*
X130390000Y-122110000D01*
X130390000Y-113890000D02*
X130865000Y-113890000D01*
X130390000Y-114365000D02*
X130390000Y-113890000D01*
X138610000Y-122110000D02*
X138135000Y-122110000D01*
X138610000Y-121635000D02*
X138610000Y-122110000D01*
X141938680Y-114043553D02*
X141585126Y-114397107D01*
X143352893Y-116164874D02*
X143706447Y-115811320D01*
X144413553Y-111568680D02*
X144767107Y-111215126D01*
X146534874Y-112982893D02*
X146181320Y-113336447D01*
X144767107Y-111215126D02*
X145120660Y-111568680D01*
X146534874Y-112982893D02*
X146181320Y-112629340D01*
X143352893Y-116164874D02*
X142999340Y-115811320D01*
X141585126Y-114397107D02*
X141938680Y-114750660D01*
X125143553Y-115571320D02*
X125497107Y-115924874D01*
X127264874Y-114157107D02*
X126911320Y-113803553D01*
X122668680Y-113096447D02*
X122315126Y-112742893D01*
X124082893Y-110975126D02*
X124436447Y-111328680D01*
X122315126Y-112742893D02*
X122668680Y-112389340D01*
X124082893Y-110975126D02*
X123729340Y-111328680D01*
X127264874Y-114157107D02*
X126911320Y-114510660D01*
X125497107Y-115924874D02*
X125850660Y-115571320D01*
X148083883Y-117973833D02*
X147518198Y-118539518D01*
X147518198Y-118539518D02*
X144760482Y-115781802D01*
X149639518Y-116418198D02*
X146881802Y-113660482D01*
X130964187Y-111322262D02*
X131285581Y-111705285D01*
X133200692Y-110098315D02*
X132879298Y-109715293D01*
X128714430Y-108641107D02*
X128393036Y-108258085D01*
X130308147Y-106651115D02*
X130629541Y-107034138D01*
X128393036Y-108258085D02*
X128776059Y-107936691D01*
X130308147Y-106651115D02*
X129925125Y-106972509D01*
X133200692Y-110098315D02*
X132817669Y-110419709D01*
X131285581Y-111705285D02*
X131668603Y-111383891D01*
X114313553Y-126833320D02*
X114667107Y-127186874D01*
X116434874Y-125419107D02*
X116081320Y-125065553D01*
X111838680Y-124358447D02*
X111485126Y-124004893D01*
X113252893Y-122237126D02*
X113606447Y-122590680D01*
X111485126Y-124004893D02*
X111838680Y-123651340D01*
X113252893Y-122237126D02*
X112899340Y-122590680D01*
X116434874Y-125419107D02*
X116081320Y-125772660D01*
X114667107Y-127186874D02*
X115020660Y-126833320D01*
X159022792Y-129123833D02*
X158457107Y-129689518D01*
X158457107Y-129689518D02*
X155699391Y-126931802D01*
X160578427Y-127568198D02*
X157820711Y-124810482D01*
X145974312Y-126397940D02*
X146064115Y-125888641D01*
X144575885Y-126151359D02*
X144665688Y-125642060D01*
X136450000Y-107850000D02*
X136450000Y-108650000D01*
X136450000Y-108650000D02*
X132550000Y-108650000D01*
X136450000Y-105650000D02*
X132550000Y-105650000D01*
X112734924Y-126366117D02*
X113300609Y-126931802D01*
X113300609Y-126931802D02*
X110542893Y-129689518D01*
X111179289Y-124810482D02*
X108421573Y-127568198D01*
X153594974Y-123334975D02*
X153029289Y-123900660D01*
X153029289Y-123900660D02*
X150271573Y-121142944D01*
X155150609Y-121779340D02*
X152392893Y-119021624D01*
X142383835Y-112819667D02*
X141869605Y-113432503D01*
X141869605Y-113432503D02*
X138882032Y-110925631D01*
X143797968Y-111134369D02*
X140810395Y-108627497D01*
X148291179Y-125972021D02*
X148430097Y-125184174D01*
X148430097Y-125184174D02*
X152270847Y-125861402D01*
X147909153Y-128138598D02*
X151749903Y-128815826D01*
X129603738Y-110312795D02*
X130117968Y-110925631D01*
X130117968Y-110925631D02*
X127130395Y-113432503D01*
X128189605Y-108627497D02*
X125202032Y-111134369D01*
X133800000Y-110641422D02*
X133800000Y-111158578D01*
X135220000Y-110641422D02*
X135220000Y-111158578D01*
X119821553Y-121245320D02*
X120175107Y-121598874D01*
X121942874Y-119831107D02*
X121589320Y-119477553D01*
X117346680Y-118770447D02*
X116993126Y-118416893D01*
X118760893Y-116649126D02*
X119114447Y-117002680D01*
X116993126Y-118416893D02*
X117346680Y-118063340D01*
X118760893Y-116649126D02*
X118407340Y-117002680D01*
X121942874Y-119831107D02*
X121589320Y-120184660D01*
X120175107Y-121598874D02*
X120528660Y-121245320D01*
X136127566Y-109715293D02*
X135806172Y-110098315D01*
X137721283Y-111705285D02*
X138042677Y-111322262D01*
X138377323Y-107034138D02*
X138698717Y-106651115D01*
X140613828Y-108258085D02*
X140292434Y-108641107D01*
X138698717Y-106651115D02*
X139081739Y-106972509D01*
X140613828Y-108258085D02*
X140230805Y-107936691D01*
X137721283Y-111705285D02*
X137338261Y-111383891D01*
X135806172Y-110098315D02*
X136189195Y-110419709D01*
X152918680Y-125065553D02*
X152565126Y-125419107D01*
X154332893Y-127186874D02*
X154686447Y-126833320D01*
X155393553Y-122590680D02*
X155747107Y-122237126D01*
X157514874Y-124004893D02*
X157161320Y-124358447D01*
X155747107Y-122237126D02*
X156100660Y-122590680D01*
X157514874Y-124004893D02*
X157161320Y-123651340D01*
X154332893Y-127186874D02*
X153979340Y-126833320D01*
X152565126Y-125419107D02*
X152918680Y-125772660D01*
X147524175Y-119477553D02*
X147170621Y-119831107D01*
X148938388Y-121598874D02*
X149291942Y-121245320D01*
X149999048Y-117002680D02*
X150352602Y-116649126D01*
X152120369Y-118416893D02*
X151766815Y-118770447D01*
X150352602Y-116649126D02*
X150706155Y-117002680D01*
X152120369Y-118416893D02*
X151766815Y-118063340D01*
X148938388Y-121598874D02*
X148584835Y-121245320D01*
X147170621Y-119831107D02*
X147524175Y-120184660D01*
X124211422Y-119770000D02*
X124728578Y-119770000D01*
X124211422Y-118350000D02*
X124728578Y-118350000D01*
X116868071Y-126649249D02*
X116729153Y-125861402D01*
X116729153Y-125861402D02*
X120569903Y-125184174D01*
X117250097Y-128815826D02*
X121090847Y-128138598D01*
X144788578Y-118350000D02*
X144271422Y-118350000D01*
X144788578Y-119770000D02*
X144271422Y-119770000D01*
X124574115Y-126111359D02*
X124484312Y-125602060D01*
X123175688Y-126357940D02*
X123085885Y-125848641D01*
X126550000Y-125070000D02*
X126550000Y-124270000D01*
X126550000Y-124270000D02*
X130450000Y-124270000D01*
X126550000Y-127270000D02*
X130450000Y-127270000D01*
X138550000Y-125030000D02*
X138550000Y-124230000D01*
X138550000Y-124230000D02*
X142450000Y-124230000D01*
X138550000Y-127230000D02*
X142450000Y-127230000D01*
X118162742Y-120577259D02*
X118728427Y-121142944D01*
X118728427Y-121142944D02*
X115970711Y-123900660D01*
X116607107Y-119021624D02*
X113849391Y-121779340D01*
X123673833Y-115216117D02*
X124239518Y-115781802D01*
X124239518Y-115781802D02*
X121481802Y-118539518D01*
X122118198Y-113660482D02*
X119360482Y-116418198D01*
X133051422Y-125230000D02*
X133568578Y-125230000D01*
X133051422Y-123810000D02*
X133568578Y-123810000D01*
X138610000Y-153635000D02*
X138610000Y-154110000D01*
X138610000Y-154110000D02*
X138135000Y-154110000D01*
X130390000Y-146365000D02*
X130390000Y-145890000D01*
X130390000Y-145890000D02*
X130865000Y-145890000D01*
X130390000Y-153635000D02*
X130390000Y-154110000D01*
X130390000Y-154110000D02*
X130865000Y-154110000D01*
X138610000Y-146365000D02*
X138610000Y-145890000D01*
X141585126Y-146397107D02*
X141938680Y-146750660D01*
X143352893Y-148164874D02*
X142999340Y-147811320D01*
X146534874Y-144982893D02*
X146181320Y-144629340D01*
X144767107Y-143215126D02*
X145120660Y-143568680D01*
X146534874Y-144982893D02*
X146181320Y-145336447D01*
X144413553Y-143568680D02*
X144767107Y-143215126D01*
X143352893Y-148164874D02*
X143706447Y-147811320D01*
X141938680Y-146043553D02*
X141585126Y-146397107D01*
X144788578Y-151770000D02*
X144271422Y-151770000D01*
X144788578Y-150350000D02*
X144271422Y-150350000D01*
X123175688Y-158357940D02*
X123085885Y-157848641D01*
X124574115Y-158111359D02*
X124484312Y-157602060D01*
X126550000Y-159270000D02*
X130450000Y-159270000D01*
X126550000Y-156270000D02*
X130450000Y-156270000D01*
X126550000Y-157070000D02*
X126550000Y-156270000D01*
X138550000Y-159230000D02*
X142450000Y-159230000D01*
X138550000Y-156230000D02*
X142450000Y-156230000D01*
X138550000Y-157030000D02*
X138550000Y-156230000D01*
X111179289Y-156810482D02*
X108421573Y-159568198D01*
X113300609Y-158931802D02*
X110542893Y-161689518D01*
X112734924Y-158366117D02*
X113300609Y-158931802D01*
X114667107Y-159186874D02*
X115020660Y-158833320D01*
X116434874Y-157419107D02*
X116081320Y-157772660D01*
X113252893Y-154237126D02*
X112899340Y-154590680D01*
X111485126Y-156004893D02*
X111838680Y-155651340D01*
X113252893Y-154237126D02*
X113606447Y-154590680D01*
X111838680Y-156358447D02*
X111485126Y-156004893D01*
X116434874Y-157419107D02*
X116081320Y-157065553D01*
X114313553Y-158833320D02*
X114667107Y-159186874D01*
X160578427Y-159568198D02*
X157820711Y-156810482D01*
X158457107Y-161689518D02*
X155699391Y-158931802D01*
X159022792Y-161123833D02*
X158457107Y-161689518D01*
X135220000Y-142641422D02*
X135220000Y-143158578D01*
X133800000Y-142641422D02*
X133800000Y-143158578D01*
X120175107Y-153598874D02*
X120528660Y-153245320D01*
X121942874Y-151831107D02*
X121589320Y-152184660D01*
X118760893Y-148649126D02*
X118407340Y-149002680D01*
X116993126Y-150416893D02*
X117346680Y-150063340D01*
X118760893Y-148649126D02*
X119114447Y-149002680D01*
X117346680Y-150770447D02*
X116993126Y-150416893D01*
X121942874Y-151831107D02*
X121589320Y-151477553D01*
X119821553Y-153245320D02*
X120175107Y-153598874D01*
X125497107Y-147924874D02*
X125850660Y-147571320D01*
X127264874Y-146157107D02*
X126911320Y-146510660D01*
X124082893Y-142975126D02*
X123729340Y-143328680D01*
X122315126Y-144742893D02*
X122668680Y-144389340D01*
X124082893Y-142975126D02*
X124436447Y-143328680D01*
X122668680Y-145096447D02*
X122315126Y-144742893D01*
X127264874Y-146157107D02*
X126911320Y-145803553D01*
X125143553Y-147571320D02*
X125497107Y-147924874D01*
X149639518Y-148418198D02*
X146881802Y-145660482D01*
X147518198Y-150539518D02*
X144760482Y-147781802D01*
X148083883Y-149973833D02*
X147518198Y-150539518D01*
X131285581Y-143705285D02*
X131668603Y-143383891D01*
X133200692Y-142098315D02*
X132817669Y-142419709D01*
X130308147Y-138651115D02*
X129925125Y-138972509D01*
X128393036Y-140258085D02*
X128776059Y-139936691D01*
X130308147Y-138651115D02*
X130629541Y-139034138D01*
X128714430Y-140641107D02*
X128393036Y-140258085D01*
X133200692Y-142098315D02*
X132879298Y-141715293D01*
X130964187Y-143322262D02*
X131285581Y-143705285D01*
X135806172Y-142098315D02*
X136189195Y-142419709D01*
X137721283Y-143705285D02*
X137338261Y-143383891D01*
X140613828Y-140258085D02*
X140230805Y-139936691D01*
X138698717Y-138651115D02*
X139081739Y-138972509D01*
X140613828Y-140258085D02*
X140292434Y-140641107D01*
X138377323Y-139034138D02*
X138698717Y-138651115D01*
X137721283Y-143705285D02*
X138042677Y-143322262D01*
X136127566Y-141715293D02*
X135806172Y-142098315D01*
X152565126Y-157419107D02*
X152918680Y-157772660D01*
X154332893Y-159186874D02*
X153979340Y-158833320D01*
X157514874Y-156004893D02*
X157161320Y-155651340D01*
X155747107Y-154237126D02*
X156100660Y-154590680D01*
X157514874Y-156004893D02*
X157161320Y-156358447D01*
X155393553Y-154590680D02*
X155747107Y-154237126D01*
X154332893Y-159186874D02*
X154686447Y-158833320D01*
X152918680Y-157065553D02*
X152565126Y-157419107D01*
X147170621Y-151831107D02*
X147524175Y-152184660D01*
X148938388Y-153598874D02*
X148584835Y-153245320D01*
X152120369Y-150416893D02*
X151766815Y-150063340D01*
X150352602Y-148649126D02*
X150706155Y-149002680D01*
X152120369Y-150416893D02*
X151766815Y-150770447D01*
X149999048Y-149002680D02*
X150352602Y-148649126D01*
X148938388Y-153598874D02*
X149291942Y-153245320D01*
X147524175Y-151477553D02*
X147170621Y-151831107D01*
X143797968Y-143134369D02*
X140810395Y-140627497D01*
X141869605Y-145432503D02*
X138882032Y-142925631D01*
X142383835Y-144819667D02*
X141869605Y-145432503D01*
X144575885Y-158151359D02*
X144665688Y-157642060D01*
X145974312Y-158397940D02*
X146064115Y-157888641D01*
X133051422Y-155810000D02*
X133568578Y-155810000D01*
X133051422Y-157230000D02*
X133568578Y-157230000D01*
X147909153Y-160138598D02*
X151749903Y-160815826D01*
X148430097Y-157184174D02*
X152270847Y-157861402D01*
X148291179Y-157972021D02*
X148430097Y-157184174D01*
X124211422Y-150350000D02*
X124728578Y-150350000D01*
X124211422Y-151770000D02*
X124728578Y-151770000D01*
X155150609Y-153779340D02*
X152392893Y-151021624D01*
X153029289Y-155900660D02*
X150271573Y-153142944D01*
X153594974Y-155334975D02*
X153029289Y-155900660D01*
X128189605Y-140627497D02*
X125202032Y-143134369D01*
X130117968Y-142925631D02*
X127130395Y-145432503D01*
X129603738Y-142312795D02*
X130117968Y-142925631D01*
X116607107Y-151021624D02*
X113849391Y-153779340D01*
X118728427Y-153142944D02*
X115970711Y-155900660D01*
X118162742Y-152577259D02*
X118728427Y-153142944D01*
X117250097Y-160815826D02*
X121090847Y-160138598D01*
X116729153Y-157861402D02*
X120569903Y-157184174D01*
X116868071Y-158649249D02*
X116729153Y-157861402D01*
X122118198Y-145660482D02*
X119360482Y-148418198D01*
X124239518Y-147781802D02*
X121481802Y-150539518D01*
X123673833Y-147216117D02*
X124239518Y-147781802D01*
X136450000Y-137650000D02*
X132550000Y-137650000D01*
X136450000Y-140650000D02*
X132550000Y-140650000D01*
X136450000Y-139850000D02*
X136450000Y-140650000D01*
D10*
X181238095Y-154772380D02*
X181238095Y-155581904D01*
X181285714Y-155677142D01*
X181333333Y-155724761D01*
X181428571Y-155772380D01*
X181619047Y-155772380D01*
X181714285Y-155724761D01*
X181761904Y-155677142D01*
X181809523Y-155581904D01*
X181809523Y-154772380D01*
X182809523Y-155772380D02*
X182238095Y-155772380D01*
X182523809Y-155772380D02*
X182523809Y-154772380D01*
X182428571Y-154915238D01*
X182333333Y-155010476D01*
X182238095Y-155058095D01*
X183577969Y-156821793D02*
X182870862Y-156114687D01*
X183039221Y-155946328D01*
X183173908Y-155878984D01*
X183308595Y-155878984D01*
X183409610Y-155912656D01*
X183577969Y-156013671D01*
X183678984Y-156114687D01*
X183780000Y-156283045D01*
X183813671Y-156384061D01*
X183813671Y-156518748D01*
X183746328Y-156653435D01*
X183577969Y-156821793D01*
X183510625Y-155474923D02*
X183948358Y-155037190D01*
X183982030Y-155542267D01*
X184083045Y-155441251D01*
X184184061Y-155407580D01*
X184251404Y-155407580D01*
X184352419Y-155441251D01*
X184520778Y-155609610D01*
X184554450Y-155710625D01*
X184554450Y-155777969D01*
X184520778Y-155878984D01*
X184318748Y-156081015D01*
X184217732Y-156114687D01*
X184150389Y-156114687D01*
X183608206Y-142522969D02*
X184315312Y-141815862D01*
X184483671Y-141984221D01*
X184551015Y-142118908D01*
X184551015Y-142253595D01*
X184517343Y-142354610D01*
X184416328Y-142522969D01*
X184315312Y-142623984D01*
X184146954Y-142725000D01*
X184045938Y-142758671D01*
X183911251Y-142758671D01*
X183776564Y-142691328D01*
X183608206Y-142522969D01*
X185325465Y-142826015D02*
X185190778Y-142691328D01*
X185089763Y-142657656D01*
X185022419Y-142657656D01*
X184854061Y-142691328D01*
X184685702Y-142792343D01*
X184416328Y-143061717D01*
X184382656Y-143162732D01*
X184382656Y-143230076D01*
X184416328Y-143331091D01*
X184551015Y-143465778D01*
X184652030Y-143499450D01*
X184719374Y-143499450D01*
X184820389Y-143465778D01*
X184988748Y-143297419D01*
X185022419Y-143196404D01*
X185022419Y-143129061D01*
X184988748Y-143028045D01*
X184854061Y-142893358D01*
X184753045Y-142859687D01*
X184685702Y-142859687D01*
X184584687Y-142893358D01*
X183202380Y-160864285D02*
X182202380Y-160864285D01*
X182202380Y-160626190D01*
X182250000Y-160483333D01*
X182345238Y-160388095D01*
X182440476Y-160340476D01*
X182630952Y-160292857D01*
X182773809Y-160292857D01*
X182964285Y-160340476D01*
X183059523Y-160388095D01*
X183154761Y-160483333D01*
X183202380Y-160626190D01*
X183202380Y-160864285D01*
X183202380Y-159340476D02*
X183202380Y-159911904D01*
X183202380Y-159626190D02*
X182202380Y-159626190D01*
X182345238Y-159721428D01*
X182440476Y-159816666D01*
X182488095Y-159911904D01*
X182535714Y-158483333D02*
X183202380Y-158483333D01*
X182154761Y-158721428D02*
X182869047Y-158959523D01*
X182869047Y-158340476D01*
X192679017Y-146825372D02*
X193445062Y-146182584D01*
X193598106Y-146364976D01*
X193653455Y-146505019D01*
X193641716Y-146639194D01*
X193599368Y-146736890D01*
X193484064Y-146895804D01*
X193374629Y-146987631D01*
X193198107Y-147073588D01*
X193094541Y-147098328D01*
X192960367Y-147086589D01*
X192832062Y-147007763D01*
X192679017Y-146825372D01*
X194107981Y-147491196D02*
X193597285Y-147919721D01*
X194246763Y-147063933D02*
X193546544Y-147340675D01*
X193944460Y-147814893D01*
X172138206Y-131127969D02*
X172845312Y-130420862D01*
X173013671Y-130589221D01*
X173081015Y-130723908D01*
X173081015Y-130858595D01*
X173047343Y-130959610D01*
X172946328Y-131127969D01*
X172845312Y-131228984D01*
X172676954Y-131330000D01*
X172575938Y-131363671D01*
X172441251Y-131363671D01*
X172306564Y-131296328D01*
X172138206Y-131127969D01*
X173485076Y-131060625D02*
X173956480Y-131532030D01*
X172946328Y-131936091D01*
X171071251Y-172738511D02*
X170364145Y-172031404D01*
X170532503Y-171863045D01*
X170667190Y-171795702D01*
X170801877Y-171795702D01*
X170902893Y-171829374D01*
X171071251Y-171930389D01*
X171172267Y-172031404D01*
X171273282Y-172199763D01*
X171306954Y-172300778D01*
X171306954Y-172435465D01*
X171239610Y-172570152D01*
X171071251Y-172738511D01*
X172148748Y-171661015D02*
X171744687Y-172065076D01*
X171946717Y-171863045D02*
X171239610Y-171155938D01*
X171273282Y-171324297D01*
X171273282Y-171458984D01*
X171239610Y-171560000D01*
X171677343Y-170718206D02*
X172115076Y-170280473D01*
X172148748Y-170785549D01*
X172249763Y-170684534D01*
X172350778Y-170650862D01*
X172418122Y-170650862D01*
X172519137Y-170684534D01*
X172687496Y-170852893D01*
X172721167Y-170953908D01*
X172721167Y-171021251D01*
X172687496Y-171122267D01*
X172485465Y-171324297D01*
X172384450Y-171357969D01*
X172317106Y-171357969D01*
X173273848Y-162902775D02*
X173218683Y-162941402D01*
X173069727Y-162963491D01*
X172975936Y-162946953D01*
X172843518Y-162875250D01*
X172766265Y-162764921D01*
X172735907Y-162662861D01*
X172722087Y-162467009D01*
X172746894Y-162326323D01*
X172826866Y-162147009D01*
X172890299Y-162061487D01*
X173000628Y-161984234D01*
X173149584Y-161962145D01*
X173243375Y-161978683D01*
X173375793Y-162050385D01*
X173414420Y-162105550D01*
X174217196Y-162488869D02*
X174101431Y-163145408D01*
X174048870Y-162072360D02*
X173690357Y-162734449D01*
X174300000Y-162841945D01*
X191985714Y-153142380D02*
X191985714Y-152142380D01*
X192223809Y-152142380D01*
X192366666Y-152190000D01*
X192461904Y-152285238D01*
X192509523Y-152380476D01*
X192557142Y-152570952D01*
X192557142Y-152713809D01*
X192509523Y-152904285D01*
X192461904Y-152999523D01*
X192366666Y-153094761D01*
X192223809Y-153142380D01*
X191985714Y-153142380D01*
X193509523Y-153142380D02*
X192938095Y-153142380D01*
X193223809Y-153142380D02*
X193223809Y-152142380D01*
X193128571Y-152285238D01*
X193033333Y-152380476D01*
X192938095Y-152428095D01*
X194080952Y-152570952D02*
X193985714Y-152523333D01*
X193938095Y-152475714D01*
X193890476Y-152380476D01*
X193890476Y-152332857D01*
X193938095Y-152237619D01*
X193985714Y-152190000D01*
X194080952Y-152142380D01*
X194271428Y-152142380D01*
X194366666Y-152190000D01*
X194414285Y-152237619D01*
X194461904Y-152332857D01*
X194461904Y-152380476D01*
X194414285Y-152475714D01*
X194366666Y-152523333D01*
X194271428Y-152570952D01*
X194080952Y-152570952D01*
X193985714Y-152618571D01*
X193938095Y-152666190D01*
X193890476Y-152761428D01*
X193890476Y-152951904D01*
X193938095Y-153047142D01*
X193985714Y-153094761D01*
X194080952Y-153142380D01*
X194271428Y-153142380D01*
X194366666Y-153094761D01*
X194414285Y-153047142D01*
X194461904Y-152951904D01*
X194461904Y-152761428D01*
X194414285Y-152666190D01*
X194366666Y-152618571D01*
X194271428Y-152570952D01*
X170171488Y-127671252D02*
X170878595Y-126964146D01*
X171046954Y-127132504D01*
X171114297Y-127267191D01*
X171114297Y-127401878D01*
X171080625Y-127502894D01*
X170979610Y-127671252D01*
X170878595Y-127772268D01*
X170710236Y-127873283D01*
X170609221Y-127906955D01*
X170474534Y-127906955D01*
X170339847Y-127839611D01*
X170171488Y-127671252D01*
X171248984Y-128748749D02*
X170844923Y-128344688D01*
X171046954Y-128546718D02*
X171754061Y-127839611D01*
X171585702Y-127873283D01*
X171451015Y-127873283D01*
X171350000Y-127839611D01*
X172562183Y-128647733D02*
X172427496Y-128513046D01*
X172326480Y-128479375D01*
X172259137Y-128479375D01*
X172090778Y-128513046D01*
X171922419Y-128614062D01*
X171653045Y-128883436D01*
X171619374Y-128984451D01*
X171619374Y-129051794D01*
X171653045Y-129152810D01*
X171787732Y-129287497D01*
X171888748Y-129321168D01*
X171956091Y-129321168D01*
X172057106Y-129287497D01*
X172225465Y-129119138D01*
X172259137Y-129018123D01*
X172259137Y-128950779D01*
X172225465Y-128849764D01*
X172090778Y-128715077D01*
X171989763Y-128681405D01*
X171922419Y-128681405D01*
X171821404Y-128715077D01*
X175531251Y-167048511D02*
X174824145Y-166341404D01*
X174992503Y-166173045D01*
X175127190Y-166105702D01*
X175261877Y-166105702D01*
X175362893Y-166139374D01*
X175531251Y-166240389D01*
X175632267Y-166341404D01*
X175733282Y-166509763D01*
X175766954Y-166610778D01*
X175766954Y-166745465D01*
X175699610Y-166880152D01*
X175531251Y-167048511D01*
X176608748Y-165971015D02*
X176204687Y-166375076D01*
X176406717Y-166173045D02*
X175699610Y-165465938D01*
X175733282Y-165634297D01*
X175733282Y-165768984D01*
X175699610Y-165870000D01*
X176339374Y-164826175D02*
X176406717Y-164758832D01*
X176507732Y-164725160D01*
X176575076Y-164725160D01*
X176676091Y-164758832D01*
X176844450Y-164859847D01*
X177012809Y-165028206D01*
X177113824Y-165196564D01*
X177147496Y-165297580D01*
X177147496Y-165364923D01*
X177113824Y-165465938D01*
X177046480Y-165533282D01*
X176945465Y-165566954D01*
X176878122Y-165566954D01*
X176777106Y-165533282D01*
X176608748Y-165432267D01*
X176440389Y-165263908D01*
X176339374Y-165095549D01*
X176305702Y-164994534D01*
X176305702Y-164927190D01*
X176339374Y-164826175D01*
X186916016Y-156450981D02*
X186149971Y-155808194D01*
X186303016Y-155625802D01*
X186431321Y-155546976D01*
X186565495Y-155535237D01*
X186669061Y-155559977D01*
X186845583Y-155645934D01*
X186955018Y-155737761D01*
X187070322Y-155896675D01*
X187112670Y-155994371D01*
X187124409Y-156128546D01*
X187069060Y-156268590D01*
X186916016Y-156450981D01*
X187895501Y-155283675D02*
X187528194Y-155721415D01*
X187711848Y-155502545D02*
X186945803Y-154859758D01*
X186994020Y-155024541D01*
X187005759Y-155158716D01*
X186981020Y-155262281D01*
X188507680Y-154554109D02*
X188140373Y-154991849D01*
X188324027Y-154772979D02*
X187557982Y-154130191D01*
X187606199Y-154294975D01*
X187617938Y-154429149D01*
X187593198Y-154532715D01*
X171517338Y-169205437D02*
X170532530Y-169031788D01*
X170573875Y-168797310D01*
X170645577Y-168664892D01*
X170755907Y-168587639D01*
X170857967Y-168557281D01*
X171053818Y-168543462D01*
X171194505Y-168568269D01*
X171373818Y-168648240D01*
X171459341Y-168711674D01*
X171536594Y-168822003D01*
X171558683Y-168970959D01*
X171517338Y-169205437D01*
X171699255Y-168173733D02*
X171732331Y-167986151D01*
X171701973Y-167884091D01*
X171663347Y-167828926D01*
X171539198Y-167710328D01*
X171359884Y-167630356D01*
X170984719Y-167564205D01*
X170882659Y-167594562D01*
X170827495Y-167633189D01*
X170764061Y-167718711D01*
X170730985Y-167906294D01*
X170761343Y-168008354D01*
X170799970Y-168063519D01*
X170885492Y-168126952D01*
X171119970Y-168168297D01*
X171222030Y-168137939D01*
X171277195Y-168099313D01*
X171340628Y-168013790D01*
X171373704Y-167826208D01*
X171343346Y-167724148D01*
X171304720Y-167668983D01*
X171219197Y-167605550D01*
X186752928Y-144960588D02*
X187518972Y-144317800D01*
X187672017Y-144500191D01*
X187727365Y-144640235D01*
X187715627Y-144774410D01*
X187673279Y-144872106D01*
X187557975Y-145031020D01*
X187448540Y-145122847D01*
X187272018Y-145208804D01*
X187168452Y-145233544D01*
X187034278Y-145221805D01*
X186905972Y-145142979D01*
X186752928Y-144960588D01*
X188058194Y-145108584D02*
X188125282Y-145114453D01*
X188222978Y-145156801D01*
X188376022Y-145339193D01*
X188400762Y-145442758D01*
X188394893Y-145509845D01*
X188352545Y-145607541D01*
X188279588Y-145668759D01*
X188139544Y-145724108D01*
X187334498Y-145653675D01*
X187732414Y-146127893D01*
X188344592Y-146857460D02*
X187977285Y-146419720D01*
X188160939Y-146638590D02*
X188926983Y-145995802D01*
X188756330Y-146014672D01*
X188622156Y-146002933D01*
X188524460Y-145960586D01*
X187453333Y-148577142D02*
X187405714Y-148624761D01*
X187262857Y-148672380D01*
X187167619Y-148672380D01*
X187024761Y-148624761D01*
X186929523Y-148529523D01*
X186881904Y-148434285D01*
X186834285Y-148243809D01*
X186834285Y-148100952D01*
X186881904Y-147910476D01*
X186929523Y-147815238D01*
X187024761Y-147720000D01*
X187167619Y-147672380D01*
X187262857Y-147672380D01*
X187405714Y-147720000D01*
X187453333Y-147767619D01*
X187834285Y-147767619D02*
X187881904Y-147720000D01*
X187977142Y-147672380D01*
X188215238Y-147672380D01*
X188310476Y-147720000D01*
X188358095Y-147767619D01*
X188405714Y-147862857D01*
X188405714Y-147958095D01*
X188358095Y-148100952D01*
X187786666Y-148672380D01*
X188405714Y-148672380D01*
X177618206Y-136867968D02*
X178325312Y-136160861D01*
X178493671Y-136329220D01*
X178561015Y-136463907D01*
X178561015Y-136598594D01*
X178527343Y-136699609D01*
X178426328Y-136867968D01*
X178325312Y-136968983D01*
X178156954Y-137069999D01*
X178055938Y-137103670D01*
X177921251Y-137103670D01*
X177786564Y-137036327D01*
X177618206Y-136867968D01*
X178830389Y-137272029D02*
X178796717Y-137171014D01*
X178796717Y-137103670D01*
X178830389Y-137002655D01*
X178864061Y-136968983D01*
X178965076Y-136935311D01*
X179032419Y-136935311D01*
X179133435Y-136968983D01*
X179268122Y-137103670D01*
X179301793Y-137204686D01*
X179301793Y-137272029D01*
X179268122Y-137373044D01*
X179234450Y-137406716D01*
X179133435Y-137440388D01*
X179066091Y-137440388D01*
X178965076Y-137406716D01*
X178830389Y-137272029D01*
X178729374Y-137238357D01*
X178662030Y-137238357D01*
X178561015Y-137272029D01*
X178426328Y-137406716D01*
X178392656Y-137507731D01*
X178392656Y-137575075D01*
X178426328Y-137676090D01*
X178561015Y-137810777D01*
X178662030Y-137844449D01*
X178729374Y-137844449D01*
X178830389Y-137810777D01*
X178965076Y-137676090D01*
X178998748Y-137575075D01*
X178998748Y-137507731D01*
X178965076Y-137406716D01*
X187402380Y-153138095D02*
X186402380Y-153138095D01*
X186402380Y-152900000D01*
X186450000Y-152757142D01*
X186545238Y-152661904D01*
X186640476Y-152614285D01*
X186830952Y-152566666D01*
X186973809Y-152566666D01*
X187164285Y-152614285D01*
X187259523Y-152661904D01*
X187354761Y-152757142D01*
X187402380Y-152900000D01*
X187402380Y-153138095D01*
X186402380Y-151661904D02*
X186402380Y-152138095D01*
X186878571Y-152185714D01*
X186830952Y-152138095D01*
X186783333Y-152042857D01*
X186783333Y-151804761D01*
X186830952Y-151709523D01*
X186878571Y-151661904D01*
X186973809Y-151614285D01*
X187211904Y-151614285D01*
X187307142Y-151661904D01*
X187354761Y-151709523D01*
X187402380Y-151804761D01*
X187402380Y-152042857D01*
X187354761Y-152138095D01*
X187307142Y-152185714D01*
X172647969Y-169591793D02*
X171940862Y-168884687D01*
X172109221Y-168716328D01*
X172243908Y-168648984D01*
X172378595Y-168648984D01*
X172479610Y-168682656D01*
X172647969Y-168783671D01*
X172748984Y-168884687D01*
X172850000Y-169053045D01*
X172883671Y-169154061D01*
X172883671Y-169288748D01*
X172816328Y-169423435D01*
X172647969Y-169591793D01*
X172681641Y-168278595D02*
X172681641Y-168211251D01*
X172715312Y-168110236D01*
X172883671Y-167941877D01*
X172984687Y-167908206D01*
X173052030Y-167908206D01*
X173153045Y-167941877D01*
X173220389Y-168009221D01*
X173287732Y-168143908D01*
X173287732Y-168952030D01*
X173725465Y-168514297D01*
X178477969Y-163961793D02*
X177770862Y-163254687D01*
X177939221Y-163086328D01*
X178073908Y-163018984D01*
X178208595Y-163018984D01*
X178309610Y-163052656D01*
X178477969Y-163153671D01*
X178578984Y-163254687D01*
X178680000Y-163423045D01*
X178713671Y-163524061D01*
X178713671Y-163658748D01*
X178646328Y-163793435D01*
X178477969Y-163961793D01*
X179555465Y-162884297D02*
X179151404Y-163288358D01*
X179353435Y-163086328D02*
X178646328Y-162379221D01*
X178680000Y-162547580D01*
X178680000Y-162682267D01*
X178646328Y-162783282D01*
X181277142Y-144146666D02*
X181324761Y-144194285D01*
X181372380Y-144337142D01*
X181372380Y-144432380D01*
X181324761Y-144575238D01*
X181229523Y-144670476D01*
X181134285Y-144718095D01*
X180943809Y-144765714D01*
X180800952Y-144765714D01*
X180610476Y-144718095D01*
X180515238Y-144670476D01*
X180420000Y-144575238D01*
X180372380Y-144432380D01*
X180372380Y-144337142D01*
X180420000Y-144194285D01*
X180467619Y-144146666D01*
X180372380Y-143813333D02*
X180372380Y-143194285D01*
X180753333Y-143527619D01*
X180753333Y-143384761D01*
X180800952Y-143289523D01*
X180848571Y-143241904D01*
X180943809Y-143194285D01*
X181181904Y-143194285D01*
X181277142Y-143241904D01*
X181324761Y-143289523D01*
X181372380Y-143384761D01*
X181372380Y-143670476D01*
X181324761Y-143765714D01*
X181277142Y-143813333D01*
X170623633Y-130222717D02*
X171608440Y-130049068D01*
X171649785Y-130283547D01*
X171627697Y-130432502D01*
X171550443Y-130542831D01*
X171464921Y-130606265D01*
X171285608Y-130686236D01*
X171144921Y-130711043D01*
X170949069Y-130697224D01*
X170847009Y-130666866D01*
X170736680Y-130589613D01*
X170664978Y-130457195D01*
X170623633Y-130222717D01*
X170888239Y-131723376D02*
X170789012Y-131160629D01*
X170838626Y-131442002D02*
X171823433Y-131268354D01*
X171666209Y-131199370D01*
X171555880Y-131122117D01*
X171492446Y-131036594D01*
X170970929Y-132192332D02*
X171004005Y-132379915D01*
X171067438Y-132465437D01*
X171122603Y-132504063D01*
X171279828Y-132573048D01*
X171475679Y-132586868D01*
X171850844Y-132520716D01*
X171936366Y-132457282D01*
X171974993Y-132402118D01*
X172005351Y-132300058D01*
X171972275Y-132112475D01*
X171908841Y-132026953D01*
X171853677Y-131988326D01*
X171751616Y-131957969D01*
X171517138Y-131999313D01*
X171431616Y-132062747D01*
X171392990Y-132117912D01*
X171362632Y-132219972D01*
X171395708Y-132407554D01*
X171459141Y-132493076D01*
X171514306Y-132531703D01*
X171616366Y-132562061D01*
X180377142Y-157506666D02*
X180424761Y-157554285D01*
X180472380Y-157697142D01*
X180472380Y-157792380D01*
X180424761Y-157935238D01*
X180329523Y-158030476D01*
X180234285Y-158078095D01*
X180043809Y-158125714D01*
X179900952Y-158125714D01*
X179710476Y-158078095D01*
X179615238Y-158030476D01*
X179520000Y-157935238D01*
X179472380Y-157792380D01*
X179472380Y-157697142D01*
X179520000Y-157554285D01*
X179567619Y-157506666D01*
X179472380Y-156649523D02*
X179472380Y-156840000D01*
X179520000Y-156935238D01*
X179567619Y-156982857D01*
X179710476Y-157078095D01*
X179900952Y-157125714D01*
X180281904Y-157125714D01*
X180377142Y-157078095D01*
X180424761Y-157030476D01*
X180472380Y-156935238D01*
X180472380Y-156744761D01*
X180424761Y-156649523D01*
X180377142Y-156601904D01*
X180281904Y-156554285D01*
X180043809Y-156554285D01*
X179948571Y-156601904D01*
X179900952Y-156649523D01*
X179853333Y-156744761D01*
X179853333Y-156935238D01*
X179900952Y-157030476D01*
X179948571Y-157078095D01*
X180043809Y-157125714D01*
X173631363Y-138085725D02*
X173592736Y-138140889D01*
X173460319Y-138212592D01*
X173366527Y-138229130D01*
X173217572Y-138207041D01*
X173107242Y-138129788D01*
X173043809Y-138044266D01*
X172963837Y-137864952D01*
X172939031Y-137724265D01*
X172952850Y-137528414D01*
X172983208Y-137426354D01*
X173060461Y-137316025D01*
X173192879Y-137244322D01*
X173286670Y-137227784D01*
X173435626Y-137249873D01*
X173490791Y-137288500D01*
X174365269Y-137037598D02*
X173896313Y-137120288D01*
X173932107Y-137597513D01*
X173970734Y-137542348D01*
X174056256Y-137478915D01*
X174290734Y-137437570D01*
X174392794Y-137467928D01*
X174447959Y-137506554D01*
X174511393Y-137592076D01*
X174552737Y-137826554D01*
X174522380Y-137928615D01*
X174483753Y-137983779D01*
X174398231Y-138047213D01*
X174163753Y-138088558D01*
X174061693Y-138058200D01*
X174006528Y-138019573D01*
X172705714Y-141602380D02*
X172705714Y-140602380D01*
X172943809Y-140602380D01*
X173086666Y-140650000D01*
X173181904Y-140745238D01*
X173229523Y-140840476D01*
X173277142Y-141030952D01*
X173277142Y-141173809D01*
X173229523Y-141364285D01*
X173181904Y-141459523D01*
X173086666Y-141554761D01*
X172943809Y-141602380D01*
X172705714Y-141602380D01*
X174229523Y-141602380D02*
X173658095Y-141602380D01*
X173943809Y-141602380D02*
X173943809Y-140602380D01*
X173848571Y-140745238D01*
X173753333Y-140840476D01*
X173658095Y-140888095D01*
X175134285Y-140602380D02*
X174658095Y-140602380D01*
X174610476Y-141078571D01*
X174658095Y-141030952D01*
X174753333Y-140983333D01*
X174991428Y-140983333D01*
X175086666Y-141030952D01*
X175134285Y-141078571D01*
X175181904Y-141173809D01*
X175181904Y-141411904D01*
X175134285Y-141507142D01*
X175086666Y-141554761D01*
X174991428Y-141602380D01*
X174753333Y-141602380D01*
X174658095Y-141554761D01*
X174610476Y-141507142D01*
X171955714Y-159422380D02*
X171955714Y-158422380D01*
X172193809Y-158422380D01*
X172336666Y-158470000D01*
X172431904Y-158565238D01*
X172479523Y-158660476D01*
X172527142Y-158850952D01*
X172527142Y-158993809D01*
X172479523Y-159184285D01*
X172431904Y-159279523D01*
X172336666Y-159374761D01*
X172193809Y-159422380D01*
X171955714Y-159422380D01*
X173479523Y-159422380D02*
X172908095Y-159422380D01*
X173193809Y-159422380D02*
X173193809Y-158422380D01*
X173098571Y-158565238D01*
X173003333Y-158660476D01*
X172908095Y-158708095D01*
X173860476Y-158517619D02*
X173908095Y-158470000D01*
X174003333Y-158422380D01*
X174241428Y-158422380D01*
X174336666Y-158470000D01*
X174384285Y-158517619D01*
X174431904Y-158612857D01*
X174431904Y-158708095D01*
X174384285Y-158850952D01*
X173812857Y-159422380D01*
X174431904Y-159422380D01*
X174881488Y-133181251D02*
X175588595Y-132474145D01*
X175756954Y-132642503D01*
X175824297Y-132777190D01*
X175824297Y-132911877D01*
X175790625Y-133012893D01*
X175689610Y-133181251D01*
X175588595Y-133282267D01*
X175420236Y-133383282D01*
X175319221Y-133416954D01*
X175184534Y-133416954D01*
X175049847Y-133349610D01*
X174881488Y-133181251D01*
X176194687Y-133214923D02*
X176262030Y-133214923D01*
X176363045Y-133248595D01*
X176531404Y-133416954D01*
X176565076Y-133517969D01*
X176565076Y-133585312D01*
X176531404Y-133686328D01*
X176464061Y-133753671D01*
X176329374Y-133821015D01*
X175521251Y-133821015D01*
X175958984Y-134258748D01*
X177103824Y-133989374D02*
X177171167Y-134056717D01*
X177204839Y-134157732D01*
X177204839Y-134225076D01*
X177171167Y-134326091D01*
X177070152Y-134494450D01*
X176901793Y-134662809D01*
X176733435Y-134763824D01*
X176632419Y-134797496D01*
X176565076Y-134797496D01*
X176464061Y-134763824D01*
X176396717Y-134696480D01*
X176363045Y-134595465D01*
X176363045Y-134528122D01*
X176396717Y-134427106D01*
X176497732Y-134258748D01*
X176666091Y-134090389D01*
X176834450Y-133989374D01*
X176935465Y-133955702D01*
X177002809Y-133955702D01*
X177103824Y-133989374D01*
X181731488Y-139021251D02*
X182438595Y-138314145D01*
X182606954Y-138482503D01*
X182674297Y-138617190D01*
X182674297Y-138751877D01*
X182640625Y-138852893D01*
X182539610Y-139021251D01*
X182438595Y-139122267D01*
X182270236Y-139223282D01*
X182169221Y-139256954D01*
X182034534Y-139256954D01*
X181899847Y-139189610D01*
X181731488Y-139021251D01*
X182808984Y-140098748D02*
X182404923Y-139694687D01*
X182606954Y-139896717D02*
X183314061Y-139189610D01*
X183145702Y-139223282D01*
X183011015Y-139223282D01*
X182910000Y-139189610D01*
X183751793Y-139627343D02*
X184223198Y-140098748D01*
X183213045Y-140502809D01*
X175303333Y-151547142D02*
X175255714Y-151594761D01*
X175112857Y-151642380D01*
X175017619Y-151642380D01*
X174874761Y-151594761D01*
X174779523Y-151499523D01*
X174731904Y-151404285D01*
X174684285Y-151213809D01*
X174684285Y-151070952D01*
X174731904Y-150880476D01*
X174779523Y-150785238D01*
X174874761Y-150690000D01*
X175017619Y-150642380D01*
X175112857Y-150642380D01*
X175255714Y-150690000D01*
X175303333Y-150737619D01*
X176255714Y-151642380D02*
X175684285Y-151642380D01*
X175970000Y-151642380D02*
X175970000Y-150642380D01*
X175874761Y-150785238D01*
X175779523Y-150880476D01*
X175684285Y-150928095D01*
X128632380Y-182261904D02*
X129441904Y-182261904D01*
X129537142Y-182214285D01*
X129584761Y-182166666D01*
X129632380Y-182071428D01*
X129632380Y-181880952D01*
X129584761Y-181785714D01*
X129537142Y-181738095D01*
X129441904Y-181690476D01*
X128632380Y-181690476D01*
X129632380Y-180690476D02*
X129632380Y-181261904D01*
X129632380Y-180976190D02*
X128632380Y-180976190D01*
X128775238Y-181071428D01*
X128870476Y-181166666D01*
X128918095Y-181261904D01*
X127678206Y-183077969D02*
X128385312Y-182370862D01*
X128553671Y-182539221D01*
X128621015Y-182673908D01*
X128621015Y-182808595D01*
X128587343Y-182909610D01*
X128486328Y-183077969D01*
X128385312Y-183178984D01*
X128216954Y-183280000D01*
X128115938Y-183313671D01*
X127981251Y-183313671D01*
X127846564Y-183246328D01*
X127678206Y-183077969D01*
X129025076Y-183010625D02*
X129462809Y-183448358D01*
X128957732Y-183482030D01*
X129058748Y-183583045D01*
X129092419Y-183684061D01*
X129092419Y-183751404D01*
X129058748Y-183852419D01*
X128890389Y-184020778D01*
X128789374Y-184054450D01*
X128722030Y-184054450D01*
X128621015Y-184020778D01*
X128418984Y-183818748D01*
X128385312Y-183717732D01*
X128385312Y-183650389D01*
X141572969Y-184791793D02*
X140865862Y-184084687D01*
X141034221Y-183916328D01*
X141168908Y-183848984D01*
X141303595Y-183848984D01*
X141404610Y-183882656D01*
X141572969Y-183983671D01*
X141673984Y-184084687D01*
X141775000Y-184253045D01*
X141808671Y-184354061D01*
X141808671Y-184488748D01*
X141741328Y-184623435D01*
X141572969Y-184791793D01*
X141876015Y-183074534D02*
X141741328Y-183209221D01*
X141707656Y-183310236D01*
X141707656Y-183377580D01*
X141741328Y-183545938D01*
X141842343Y-183714297D01*
X142111717Y-183983671D01*
X142212732Y-184017343D01*
X142280076Y-184017343D01*
X142381091Y-183983671D01*
X142515778Y-183848984D01*
X142549450Y-183747969D01*
X142549450Y-183680625D01*
X142515778Y-183579610D01*
X142347419Y-183411251D01*
X142246404Y-183377580D01*
X142179061Y-183377580D01*
X142078045Y-183411251D01*
X141943358Y-183545938D01*
X141909687Y-183646954D01*
X141909687Y-183714297D01*
X141943358Y-183815312D01*
X123635714Y-182702380D02*
X123635714Y-181702380D01*
X123873809Y-181702380D01*
X124016666Y-181750000D01*
X124111904Y-181845238D01*
X124159523Y-181940476D01*
X124207142Y-182130952D01*
X124207142Y-182273809D01*
X124159523Y-182464285D01*
X124111904Y-182559523D01*
X124016666Y-182654761D01*
X123873809Y-182702380D01*
X123635714Y-182702380D01*
X125159523Y-182702380D02*
X124588095Y-182702380D01*
X124873809Y-182702380D02*
X124873809Y-181702380D01*
X124778571Y-181845238D01*
X124683333Y-181940476D01*
X124588095Y-181988095D01*
X126016666Y-182035714D02*
X126016666Y-182702380D01*
X125778571Y-181654761D02*
X125540476Y-182369047D01*
X126159523Y-182369047D01*
X137125370Y-193820982D02*
X136482582Y-193054937D01*
X136664974Y-192901893D01*
X136805017Y-192846544D01*
X136939192Y-192858283D01*
X137036888Y-192900631D01*
X137195802Y-193015935D01*
X137287629Y-193125370D01*
X137373586Y-193301892D01*
X137398326Y-193405458D01*
X137386587Y-193539632D01*
X137307761Y-193667937D01*
X137125370Y-193820982D01*
X137791194Y-192392018D02*
X138219719Y-192902714D01*
X137363931Y-192253236D02*
X137640673Y-192953455D01*
X138114891Y-192555539D01*
X152967969Y-173321793D02*
X152260862Y-172614687D01*
X152429221Y-172446328D01*
X152563908Y-172378984D01*
X152698595Y-172378984D01*
X152799610Y-172412656D01*
X152967969Y-172513671D01*
X153068984Y-172614687D01*
X153170000Y-172783045D01*
X153203671Y-172884061D01*
X153203671Y-173018748D01*
X153136328Y-173153435D01*
X152967969Y-173321793D01*
X152900625Y-171974923D02*
X153372030Y-171503519D01*
X153776091Y-172513671D01*
X111761488Y-170571251D02*
X112468595Y-169864145D01*
X112636954Y-170032503D01*
X112704297Y-170167190D01*
X112704297Y-170301877D01*
X112670625Y-170402893D01*
X112569610Y-170571251D01*
X112468595Y-170672267D01*
X112300236Y-170773282D01*
X112199221Y-170806954D01*
X112064534Y-170806954D01*
X111929847Y-170739610D01*
X111761488Y-170571251D01*
X112838984Y-171648748D02*
X112434923Y-171244687D01*
X112636954Y-171446717D02*
X113344061Y-170739610D01*
X113175702Y-170773282D01*
X113041015Y-170773282D01*
X112940000Y-170739610D01*
X113781793Y-171177343D02*
X114219526Y-171615076D01*
X113714450Y-171648748D01*
X113815465Y-171749763D01*
X113849137Y-171850778D01*
X113849137Y-171918122D01*
X113815465Y-172019137D01*
X113647106Y-172187496D01*
X113546091Y-172221167D01*
X113478748Y-172221167D01*
X113377732Y-172187496D01*
X113175702Y-171985465D01*
X113142030Y-171884450D01*
X113142030Y-171817106D01*
X122242775Y-173226151D02*
X122281402Y-173281316D01*
X122303491Y-173430272D01*
X122286953Y-173524063D01*
X122215250Y-173656481D01*
X122104921Y-173733734D01*
X122002861Y-173764092D01*
X121807009Y-173777912D01*
X121666323Y-173753105D01*
X121487009Y-173673133D01*
X121401487Y-173609700D01*
X121324234Y-173499371D01*
X121302145Y-173350415D01*
X121318683Y-173256624D01*
X121390385Y-173124206D01*
X121445550Y-173085579D01*
X121828869Y-172282803D02*
X122485408Y-172398568D01*
X121412360Y-172451129D02*
X122074449Y-172809642D01*
X122181945Y-172199999D01*
X132262380Y-193914285D02*
X131262380Y-193914285D01*
X131262380Y-193676190D01*
X131310000Y-193533333D01*
X131405238Y-193438095D01*
X131500476Y-193390476D01*
X131690952Y-193342857D01*
X131833809Y-193342857D01*
X132024285Y-193390476D01*
X132119523Y-193438095D01*
X132214761Y-193533333D01*
X132262380Y-193676190D01*
X132262380Y-193914285D01*
X132262380Y-192390476D02*
X132262380Y-192961904D01*
X132262380Y-192676190D02*
X131262380Y-192676190D01*
X131405238Y-192771428D01*
X131500476Y-192866666D01*
X131548095Y-192961904D01*
X131690952Y-191819047D02*
X131643333Y-191914285D01*
X131595714Y-191961904D01*
X131500476Y-192009523D01*
X131452857Y-192009523D01*
X131357619Y-191961904D01*
X131310000Y-191914285D01*
X131262380Y-191819047D01*
X131262380Y-191628571D01*
X131310000Y-191533333D01*
X131357619Y-191485714D01*
X131452857Y-191438095D01*
X131500476Y-191438095D01*
X131595714Y-191485714D01*
X131643333Y-191533333D01*
X131690952Y-191628571D01*
X131690952Y-191819047D01*
X131738571Y-191914285D01*
X131786190Y-191961904D01*
X131881428Y-192009523D01*
X132071904Y-192009523D01*
X132167142Y-191961904D01*
X132214761Y-191914285D01*
X132262380Y-191819047D01*
X132262380Y-191628571D01*
X132214761Y-191533333D01*
X132167142Y-191485714D01*
X132071904Y-191438095D01*
X131881428Y-191438095D01*
X131786190Y-191485714D01*
X131738571Y-191533333D01*
X131690952Y-191628571D01*
X155751250Y-172028511D02*
X155044144Y-171321404D01*
X155212502Y-171153045D01*
X155347189Y-171085702D01*
X155481876Y-171085702D01*
X155582892Y-171119374D01*
X155751250Y-171220389D01*
X155852266Y-171321404D01*
X155953281Y-171489763D01*
X155986953Y-171590778D01*
X155986953Y-171725465D01*
X155919609Y-171860152D01*
X155751250Y-172028511D01*
X156828747Y-170951015D02*
X156424686Y-171355076D01*
X156626716Y-171153045D02*
X155919609Y-170445938D01*
X155953281Y-170614297D01*
X155953281Y-170748984D01*
X155919609Y-170850000D01*
X156727731Y-169637816D02*
X156593044Y-169772503D01*
X156559373Y-169873519D01*
X156559373Y-169940862D01*
X156593044Y-170109221D01*
X156694060Y-170277580D01*
X156963434Y-170546954D01*
X157064449Y-170580625D01*
X157131792Y-170580625D01*
X157232808Y-170546954D01*
X157367495Y-170412267D01*
X157401166Y-170311251D01*
X157401166Y-170243908D01*
X157367495Y-170142893D01*
X157199136Y-169974534D01*
X157098121Y-169940862D01*
X157030777Y-169940862D01*
X156929762Y-169974534D01*
X156795075Y-170109221D01*
X156761403Y-170210236D01*
X156761403Y-170277580D01*
X156795075Y-170378595D01*
X117451488Y-175031251D02*
X118158595Y-174324145D01*
X118326954Y-174492503D01*
X118394297Y-174627190D01*
X118394297Y-174761877D01*
X118360625Y-174862893D01*
X118259610Y-175031251D01*
X118158595Y-175132267D01*
X117990236Y-175233282D01*
X117889221Y-175266954D01*
X117754534Y-175266954D01*
X117619847Y-175199610D01*
X117451488Y-175031251D01*
X118528984Y-176108748D02*
X118124923Y-175704687D01*
X118326954Y-175906717D02*
X119034061Y-175199610D01*
X118865702Y-175233282D01*
X118731015Y-175233282D01*
X118630000Y-175199610D01*
X119673824Y-175839374D02*
X119741167Y-175906717D01*
X119774839Y-176007732D01*
X119774839Y-176075076D01*
X119741167Y-176176091D01*
X119640152Y-176344450D01*
X119471793Y-176512809D01*
X119303435Y-176613824D01*
X119202419Y-176647496D01*
X119135076Y-176647496D01*
X119034061Y-176613824D01*
X118966717Y-176546480D01*
X118933045Y-176445465D01*
X118933045Y-176378122D01*
X118966717Y-176277106D01*
X119067732Y-176108748D01*
X119236091Y-175940389D01*
X119404450Y-175839374D01*
X119505465Y-175805702D01*
X119572809Y-175805702D01*
X119673824Y-175839374D01*
X128049018Y-186416016D02*
X128691805Y-185649971D01*
X128874197Y-185803016D01*
X128953023Y-185931321D01*
X128964762Y-186065495D01*
X128940022Y-186169061D01*
X128854065Y-186345583D01*
X128762238Y-186455018D01*
X128603324Y-186570322D01*
X128505628Y-186612670D01*
X128371453Y-186624409D01*
X128231409Y-186569060D01*
X128049018Y-186416016D01*
X129216324Y-187395501D02*
X128778584Y-187028194D01*
X128997454Y-187211848D02*
X129640241Y-186445803D01*
X129475458Y-186494020D01*
X129341283Y-186505759D01*
X129237718Y-186481020D01*
X129945890Y-188007680D02*
X129508150Y-187640373D01*
X129727020Y-187824027D02*
X130369808Y-187057982D01*
X130205024Y-187106199D01*
X130070850Y-187117938D01*
X129967284Y-187093198D01*
X115294562Y-171017338D02*
X115468211Y-170032530D01*
X115702689Y-170073875D01*
X115835107Y-170145577D01*
X115912360Y-170255907D01*
X115942718Y-170357967D01*
X115956537Y-170553818D01*
X115931730Y-170694505D01*
X115851759Y-170873818D01*
X115788325Y-170959341D01*
X115677996Y-171036594D01*
X115529040Y-171058683D01*
X115294562Y-171017338D01*
X116326266Y-171199255D02*
X116513848Y-171232331D01*
X116615908Y-171201973D01*
X116671073Y-171163347D01*
X116789671Y-171039198D01*
X116869643Y-170859884D01*
X116935794Y-170484719D01*
X116905437Y-170382659D01*
X116866810Y-170327495D01*
X116781288Y-170264061D01*
X116593705Y-170230985D01*
X116491645Y-170261343D01*
X116436480Y-170299970D01*
X116373047Y-170385492D01*
X116331702Y-170619970D01*
X116362060Y-170722030D01*
X116400686Y-170777195D01*
X116486209Y-170840628D01*
X116673791Y-170873704D01*
X116775851Y-170843346D01*
X116831016Y-170804720D01*
X116894449Y-170719197D01*
X138260588Y-188507071D02*
X137617800Y-187741027D01*
X137800191Y-187587982D01*
X137940235Y-187532634D01*
X138074410Y-187544372D01*
X138172106Y-187586720D01*
X138331020Y-187702024D01*
X138422847Y-187811459D01*
X138508804Y-187987981D01*
X138533544Y-188091547D01*
X138521805Y-188225721D01*
X138442979Y-188354027D01*
X138260588Y-188507071D01*
X138408584Y-187201805D02*
X138414453Y-187134717D01*
X138456801Y-187037021D01*
X138639193Y-186883977D01*
X138742758Y-186859237D01*
X138809845Y-186865106D01*
X138907541Y-186907454D01*
X138968759Y-186980411D01*
X139024108Y-187120455D01*
X138953675Y-187925501D01*
X139427893Y-187527585D01*
X140157460Y-186915407D02*
X139719720Y-187282714D01*
X139938590Y-187099060D02*
X139295802Y-186333016D01*
X139314672Y-186503669D01*
X139302933Y-186637843D01*
X139260586Y-186735539D01*
X136637142Y-187286666D02*
X136684761Y-187334285D01*
X136732380Y-187477142D01*
X136732380Y-187572380D01*
X136684761Y-187715238D01*
X136589523Y-187810476D01*
X136494285Y-187858095D01*
X136303809Y-187905714D01*
X136160952Y-187905714D01*
X135970476Y-187858095D01*
X135875238Y-187810476D01*
X135780000Y-187715238D01*
X135732380Y-187572380D01*
X135732380Y-187477142D01*
X135780000Y-187334285D01*
X135827619Y-187286666D01*
X135827619Y-186905714D02*
X135780000Y-186858095D01*
X135732380Y-186762857D01*
X135732380Y-186524761D01*
X135780000Y-186429523D01*
X135827619Y-186381904D01*
X135922857Y-186334285D01*
X136018095Y-186334285D01*
X136160952Y-186381904D01*
X136732380Y-186953333D01*
X136732380Y-186334285D01*
X147227970Y-178801793D02*
X146520863Y-178094687D01*
X146689222Y-177926328D01*
X146823909Y-177858984D01*
X146958596Y-177858984D01*
X147059611Y-177892656D01*
X147227970Y-177993671D01*
X147328985Y-178094687D01*
X147430001Y-178263045D01*
X147463672Y-178364061D01*
X147463672Y-178498748D01*
X147396329Y-178633435D01*
X147227970Y-178801793D01*
X147632031Y-177589610D02*
X147531016Y-177623282D01*
X147463672Y-177623282D01*
X147362657Y-177589610D01*
X147328985Y-177555938D01*
X147295313Y-177454923D01*
X147295313Y-177387580D01*
X147328985Y-177286564D01*
X147463672Y-177151877D01*
X147564688Y-177118206D01*
X147632031Y-177118206D01*
X147733046Y-177151877D01*
X147766718Y-177185549D01*
X147800390Y-177286564D01*
X147800390Y-177353908D01*
X147766718Y-177454923D01*
X147632031Y-177589610D01*
X147598359Y-177690625D01*
X147598359Y-177757969D01*
X147632031Y-177858984D01*
X147766718Y-177993671D01*
X147867733Y-178027343D01*
X147935077Y-178027343D01*
X148036092Y-177993671D01*
X148170779Y-177858984D01*
X148204451Y-177757969D01*
X148204451Y-177690625D01*
X148170779Y-177589610D01*
X148036092Y-177454923D01*
X147935077Y-177421251D01*
X147867733Y-177421251D01*
X147766718Y-177454923D01*
X131361904Y-186902380D02*
X131361904Y-185902380D01*
X131600000Y-185902380D01*
X131742857Y-185950000D01*
X131838095Y-186045238D01*
X131885714Y-186140476D01*
X131933333Y-186330952D01*
X131933333Y-186473809D01*
X131885714Y-186664285D01*
X131838095Y-186759523D01*
X131742857Y-186854761D01*
X131600000Y-186902380D01*
X131361904Y-186902380D01*
X132838095Y-185902380D02*
X132361904Y-185902380D01*
X132314285Y-186378571D01*
X132361904Y-186330952D01*
X132457142Y-186283333D01*
X132695238Y-186283333D01*
X132790476Y-186330952D01*
X132838095Y-186378571D01*
X132885714Y-186473809D01*
X132885714Y-186711904D01*
X132838095Y-186807142D01*
X132790476Y-186854761D01*
X132695238Y-186902380D01*
X132457142Y-186902380D01*
X132361904Y-186854761D01*
X132314285Y-186807142D01*
X114908206Y-172147969D02*
X115615312Y-171440862D01*
X115783671Y-171609221D01*
X115851015Y-171743908D01*
X115851015Y-171878595D01*
X115817343Y-171979610D01*
X115716328Y-172147969D01*
X115615312Y-172248984D01*
X115446954Y-172350000D01*
X115345938Y-172383671D01*
X115211251Y-172383671D01*
X115076564Y-172316328D01*
X114908206Y-172147969D01*
X116221404Y-172181641D02*
X116288748Y-172181641D01*
X116389763Y-172215312D01*
X116558122Y-172383671D01*
X116591793Y-172484687D01*
X116591793Y-172552030D01*
X116558122Y-172653045D01*
X116490778Y-172720389D01*
X116356091Y-172787732D01*
X115547969Y-172787732D01*
X115985702Y-173225465D01*
X120538206Y-177977969D02*
X121245312Y-177270862D01*
X121413671Y-177439221D01*
X121481015Y-177573908D01*
X121481015Y-177708595D01*
X121447343Y-177809610D01*
X121346328Y-177977969D01*
X121245312Y-178078984D01*
X121076954Y-178180000D01*
X120975938Y-178213671D01*
X120841251Y-178213671D01*
X120706564Y-178146328D01*
X120538206Y-177977969D01*
X121615702Y-179055465D02*
X121211641Y-178651404D01*
X121413671Y-178853435D02*
X122120778Y-178146328D01*
X121952419Y-178180000D01*
X121817732Y-178180000D01*
X121716717Y-178146328D01*
X140353333Y-180777142D02*
X140305714Y-180824761D01*
X140162857Y-180872380D01*
X140067619Y-180872380D01*
X139924761Y-180824761D01*
X139829523Y-180729523D01*
X139781904Y-180634285D01*
X139734285Y-180443809D01*
X139734285Y-180300952D01*
X139781904Y-180110476D01*
X139829523Y-180015238D01*
X139924761Y-179920000D01*
X140067619Y-179872380D01*
X140162857Y-179872380D01*
X140305714Y-179920000D01*
X140353333Y-179967619D01*
X140686666Y-179872380D02*
X141305714Y-179872380D01*
X140972380Y-180253333D01*
X141115238Y-180253333D01*
X141210476Y-180300952D01*
X141258095Y-180348571D01*
X141305714Y-180443809D01*
X141305714Y-180681904D01*
X141258095Y-180777142D01*
X141210476Y-180824761D01*
X141115238Y-180872380D01*
X140829523Y-180872380D01*
X140734285Y-180824761D01*
X140686666Y-180777142D01*
X152042717Y-171436366D02*
X151869068Y-170451559D01*
X152103547Y-170410214D01*
X152252502Y-170432302D01*
X152362831Y-170509556D01*
X152426265Y-170595078D01*
X152506236Y-170774391D01*
X152531043Y-170915078D01*
X152517224Y-171110930D01*
X152486866Y-171212990D01*
X152409613Y-171323319D01*
X152277195Y-171395021D01*
X152042717Y-171436366D01*
X153543376Y-171171760D02*
X152980629Y-171270987D01*
X153262002Y-171221373D02*
X153088354Y-170236566D01*
X153019370Y-170393790D01*
X152942117Y-170504119D01*
X152856594Y-170567553D01*
X154012332Y-171089070D02*
X154199915Y-171055994D01*
X154285437Y-170992561D01*
X154324063Y-170937396D01*
X154393048Y-170780171D01*
X154406868Y-170584320D01*
X154340716Y-170209155D01*
X154277282Y-170123633D01*
X154222118Y-170085006D01*
X154120058Y-170054648D01*
X153932475Y-170087724D01*
X153846953Y-170151158D01*
X153808326Y-170206322D01*
X153777969Y-170308383D01*
X153819313Y-170542861D01*
X153882747Y-170628383D01*
X153937912Y-170667009D01*
X154039972Y-170697367D01*
X154227554Y-170664291D01*
X154313076Y-170600858D01*
X154351703Y-170545693D01*
X154382061Y-170443633D01*
X126993333Y-179877142D02*
X126945714Y-179924761D01*
X126802857Y-179972380D01*
X126707619Y-179972380D01*
X126564761Y-179924761D01*
X126469523Y-179829523D01*
X126421904Y-179734285D01*
X126374285Y-179543809D01*
X126374285Y-179400952D01*
X126421904Y-179210476D01*
X126469523Y-179115238D01*
X126564761Y-179020000D01*
X126707619Y-178972380D01*
X126802857Y-178972380D01*
X126945714Y-179020000D01*
X126993333Y-179067619D01*
X127850476Y-178972380D02*
X127660000Y-178972380D01*
X127564761Y-179020000D01*
X127517142Y-179067619D01*
X127421904Y-179210476D01*
X127374285Y-179400952D01*
X127374285Y-179781904D01*
X127421904Y-179877142D01*
X127469523Y-179924761D01*
X127564761Y-179972380D01*
X127755238Y-179972380D01*
X127850476Y-179924761D01*
X127898095Y-179877142D01*
X127945714Y-179781904D01*
X127945714Y-179543809D01*
X127898095Y-179448571D01*
X127850476Y-179400952D01*
X127755238Y-179353333D01*
X127564761Y-179353333D01*
X127469523Y-179400952D01*
X127421904Y-179448571D01*
X127374285Y-179543809D01*
X146414274Y-173131363D02*
X146359110Y-173092736D01*
X146287407Y-172960319D01*
X146270869Y-172866527D01*
X146292958Y-172717572D01*
X146370211Y-172607242D01*
X146455733Y-172543809D01*
X146635047Y-172463837D01*
X146775734Y-172439031D01*
X146971585Y-172452850D01*
X147073645Y-172483208D01*
X147183974Y-172560461D01*
X147255677Y-172692879D01*
X147272215Y-172786670D01*
X147250126Y-172935626D01*
X147211499Y-172990791D01*
X147462401Y-173865269D02*
X147379711Y-173396313D01*
X146902486Y-173432107D01*
X146957651Y-173470734D01*
X147021084Y-173556256D01*
X147062429Y-173790734D01*
X147032071Y-173892794D01*
X146993445Y-173947959D01*
X146907923Y-174011393D01*
X146673445Y-174052737D01*
X146571384Y-174022380D01*
X146516220Y-173983753D01*
X146452786Y-173898231D01*
X146411441Y-173663753D01*
X146441799Y-173561693D01*
X146480426Y-173506528D01*
X143802380Y-174634285D02*
X142802380Y-174634285D01*
X142802380Y-174396190D01*
X142850000Y-174253333D01*
X142945238Y-174158095D01*
X143040476Y-174110476D01*
X143230952Y-174062857D01*
X143373809Y-174062857D01*
X143564285Y-174110476D01*
X143659523Y-174158095D01*
X143754761Y-174253333D01*
X143802380Y-174396190D01*
X143802380Y-174634285D01*
X143802380Y-173110476D02*
X143802380Y-173681904D01*
X143802380Y-173396190D02*
X142802380Y-173396190D01*
X142945238Y-173491428D01*
X143040476Y-173586666D01*
X143088095Y-173681904D01*
X142802380Y-172205714D02*
X142802380Y-172681904D01*
X143278571Y-172729523D01*
X143230952Y-172681904D01*
X143183333Y-172586666D01*
X143183333Y-172348571D01*
X143230952Y-172253333D01*
X143278571Y-172205714D01*
X143373809Y-172158095D01*
X143611904Y-172158095D01*
X143707142Y-172205714D01*
X143754761Y-172253333D01*
X143802380Y-172348571D01*
X143802380Y-172586666D01*
X143754761Y-172681904D01*
X143707142Y-172729523D01*
X125982380Y-173884285D02*
X124982380Y-173884285D01*
X124982380Y-173646190D01*
X125030000Y-173503333D01*
X125125238Y-173408095D01*
X125220476Y-173360476D01*
X125410952Y-173312857D01*
X125553809Y-173312857D01*
X125744285Y-173360476D01*
X125839523Y-173408095D01*
X125934761Y-173503333D01*
X125982380Y-173646190D01*
X125982380Y-173884285D01*
X125982380Y-172360476D02*
X125982380Y-172931904D01*
X125982380Y-172646190D02*
X124982380Y-172646190D01*
X125125238Y-172741428D01*
X125220476Y-172836666D01*
X125268095Y-172931904D01*
X125077619Y-171979523D02*
X125030000Y-171931904D01*
X124982380Y-171836666D01*
X124982380Y-171598571D01*
X125030000Y-171503333D01*
X125077619Y-171455714D01*
X125172857Y-171408095D01*
X125268095Y-171408095D01*
X125410952Y-171455714D01*
X125982380Y-172027142D01*
X125982380Y-171408095D01*
X150241251Y-176738511D02*
X149534145Y-176031404D01*
X149702503Y-175863045D01*
X149837190Y-175795702D01*
X149971877Y-175795702D01*
X150072893Y-175829374D01*
X150241251Y-175930389D01*
X150342267Y-176031404D01*
X150443282Y-176199763D01*
X150476954Y-176300778D01*
X150476954Y-176435465D01*
X150409610Y-176570152D01*
X150241251Y-176738511D01*
X150274923Y-175425312D02*
X150274923Y-175357969D01*
X150308595Y-175256954D01*
X150476954Y-175088595D01*
X150577969Y-175054923D01*
X150645312Y-175054923D01*
X150746328Y-175088595D01*
X150813671Y-175155938D01*
X150881015Y-175290625D01*
X150881015Y-176098748D01*
X151318748Y-175661015D01*
X151049374Y-174516175D02*
X151116717Y-174448832D01*
X151217732Y-174415160D01*
X151285076Y-174415160D01*
X151386091Y-174448832D01*
X151554450Y-174549847D01*
X151722809Y-174718206D01*
X151823824Y-174886564D01*
X151857496Y-174987580D01*
X151857496Y-175054923D01*
X151823824Y-175155938D01*
X151756480Y-175223282D01*
X151655465Y-175256954D01*
X151588122Y-175256954D01*
X151487106Y-175223282D01*
X151318748Y-175122267D01*
X151150389Y-174953908D01*
X151049374Y-174785549D01*
X151015702Y-174684534D01*
X151015702Y-174617190D01*
X151049374Y-174516175D01*
X144401251Y-183588511D02*
X143694145Y-182881404D01*
X143862503Y-182713045D01*
X143997190Y-182645702D01*
X144131877Y-182645702D01*
X144232893Y-182679374D01*
X144401251Y-182780389D01*
X144502267Y-182881404D01*
X144603282Y-183049763D01*
X144636954Y-183150778D01*
X144636954Y-183285465D01*
X144569610Y-183420152D01*
X144401251Y-183588511D01*
X145478748Y-182511015D02*
X145074687Y-182915076D01*
X145276717Y-182713045D02*
X144569610Y-182005938D01*
X144603282Y-182174297D01*
X144603282Y-182308984D01*
X144569610Y-182410000D01*
X145007343Y-181568206D02*
X145478748Y-181096801D01*
X145882809Y-182106954D01*
X133667142Y-175136666D02*
X133714761Y-175184285D01*
X133762380Y-175327142D01*
X133762380Y-175422380D01*
X133714761Y-175565238D01*
X133619523Y-175660476D01*
X133524285Y-175708095D01*
X133333809Y-175755714D01*
X133190952Y-175755714D01*
X133000476Y-175708095D01*
X132905238Y-175660476D01*
X132810000Y-175565238D01*
X132762380Y-175422380D01*
X132762380Y-175327142D01*
X132810000Y-175184285D01*
X132857619Y-175136666D01*
X133762380Y-174184285D02*
X133762380Y-174755714D01*
X133762380Y-174470000D02*
X132762380Y-174470000D01*
X132905238Y-174565238D01*
X133000476Y-174660476D01*
X133048095Y-174755714D01*
X139272380Y-118761904D02*
X140081904Y-118761904D01*
X140177142Y-118714285D01*
X140224761Y-118666666D01*
X140272380Y-118571428D01*
X140272380Y-118380952D01*
X140224761Y-118285714D01*
X140177142Y-118238095D01*
X140081904Y-118190476D01*
X139272380Y-118190476D01*
X140272380Y-117190476D02*
X140272380Y-117761904D01*
X140272380Y-117476190D02*
X139272380Y-117476190D01*
X139415238Y-117571428D01*
X139510476Y-117666666D01*
X139558095Y-117761904D01*
X139638206Y-116017969D02*
X140345312Y-115310862D01*
X140513671Y-115479221D01*
X140581015Y-115613908D01*
X140581015Y-115748595D01*
X140547343Y-115849610D01*
X140446328Y-116017969D01*
X140345312Y-116118984D01*
X140176954Y-116220000D01*
X140075938Y-116253671D01*
X139941251Y-116253671D01*
X139806564Y-116186328D01*
X139638206Y-116017969D01*
X140985076Y-115950625D02*
X141422809Y-116388358D01*
X140917732Y-116422030D01*
X141018748Y-116523045D01*
X141052419Y-116624061D01*
X141052419Y-116691404D01*
X141018748Y-116792419D01*
X140850389Y-116960778D01*
X140749374Y-116994450D01*
X140682030Y-116994450D01*
X140581015Y-116960778D01*
X140378984Y-116758748D01*
X140345312Y-116657732D01*
X140345312Y-116590389D01*
X127022969Y-116391793D02*
X126315862Y-115684687D01*
X126484221Y-115516328D01*
X126618908Y-115448984D01*
X126753595Y-115448984D01*
X126854610Y-115482656D01*
X127022969Y-115583671D01*
X127123984Y-115684687D01*
X127225000Y-115853045D01*
X127258671Y-115954061D01*
X127258671Y-116088748D01*
X127191328Y-116223435D01*
X127022969Y-116391793D01*
X127326015Y-114674534D02*
X127191328Y-114809221D01*
X127157656Y-114910236D01*
X127157656Y-114977580D01*
X127191328Y-115145938D01*
X127292343Y-115314297D01*
X127561717Y-115583671D01*
X127662732Y-115617343D01*
X127730076Y-115617343D01*
X127831091Y-115583671D01*
X127965778Y-115448984D01*
X127999450Y-115347969D01*
X127999450Y-115280625D01*
X127965778Y-115179610D01*
X127797419Y-115011251D01*
X127696404Y-114977580D01*
X127629061Y-114977580D01*
X127528045Y-115011251D01*
X127393358Y-115145938D01*
X127359687Y-115246954D01*
X127359687Y-115314297D01*
X127393358Y-115415312D01*
X142935714Y-117702380D02*
X142935714Y-116702380D01*
X143173809Y-116702380D01*
X143316666Y-116750000D01*
X143411904Y-116845238D01*
X143459523Y-116940476D01*
X143507142Y-117130952D01*
X143507142Y-117273809D01*
X143459523Y-117464285D01*
X143411904Y-117559523D01*
X143316666Y-117654761D01*
X143173809Y-117702380D01*
X142935714Y-117702380D01*
X144459523Y-117702380D02*
X143888095Y-117702380D01*
X144173809Y-117702380D02*
X144173809Y-116702380D01*
X144078571Y-116845238D01*
X143983333Y-116940476D01*
X143888095Y-116988095D01*
X145316666Y-117035714D02*
X145316666Y-117702380D01*
X145078571Y-116654761D02*
X144840476Y-117369047D01*
X145459523Y-117369047D01*
X131325372Y-107320982D02*
X130682584Y-106554937D01*
X130864976Y-106401893D01*
X131005019Y-106346544D01*
X131139194Y-106358283D01*
X131236890Y-106400631D01*
X131395804Y-106515935D01*
X131487631Y-106625370D01*
X131573588Y-106801892D01*
X131598328Y-106905458D01*
X131586589Y-107039632D01*
X131507763Y-107167937D01*
X131325372Y-107320982D01*
X131991196Y-105892018D02*
X132419721Y-106402714D01*
X131563933Y-105753236D02*
X131840675Y-106453455D01*
X132314893Y-106055539D01*
X115627969Y-127861793D02*
X114920862Y-127154687D01*
X115089221Y-126986328D01*
X115223908Y-126918984D01*
X115358595Y-126918984D01*
X115459610Y-126952656D01*
X115627969Y-127053671D01*
X115728984Y-127154687D01*
X115830000Y-127323045D01*
X115863671Y-127424061D01*
X115863671Y-127558748D01*
X115796328Y-127693435D01*
X115627969Y-127861793D01*
X115560625Y-126514923D02*
X116032030Y-126043519D01*
X116436091Y-127053671D01*
X154881488Y-127851251D02*
X155588595Y-127144145D01*
X155756954Y-127312503D01*
X155824297Y-127447190D01*
X155824297Y-127581877D01*
X155790625Y-127682893D01*
X155689610Y-127851251D01*
X155588595Y-127952267D01*
X155420236Y-128053282D01*
X155319221Y-128086954D01*
X155184534Y-128086954D01*
X155049847Y-128019610D01*
X154881488Y-127851251D01*
X155958984Y-128928748D02*
X155554923Y-128524687D01*
X155756954Y-128726717D02*
X156464061Y-128019610D01*
X156295702Y-128053282D01*
X156161015Y-128053282D01*
X156060000Y-128019610D01*
X156901793Y-128457343D02*
X157339526Y-128895076D01*
X156834450Y-128928748D01*
X156935465Y-129029763D01*
X156969137Y-129130778D01*
X156969137Y-129198122D01*
X156935465Y-129299137D01*
X156767106Y-129467496D01*
X156666091Y-129501167D01*
X156598748Y-129501167D01*
X156497732Y-129467496D01*
X156295702Y-129265465D01*
X156262030Y-129164450D01*
X156262030Y-129097106D01*
X147402775Y-126726151D02*
X147441402Y-126781316D01*
X147463491Y-126930272D01*
X147446953Y-127024063D01*
X147375250Y-127156481D01*
X147264921Y-127233734D01*
X147162861Y-127264092D01*
X146967009Y-127277912D01*
X146826323Y-127253105D01*
X146647009Y-127173133D01*
X146561487Y-127109700D01*
X146484234Y-126999371D01*
X146462145Y-126850415D01*
X146478683Y-126756624D01*
X146550385Y-126624206D01*
X146605550Y-126585579D01*
X146988869Y-125782803D02*
X147645408Y-125898568D01*
X146572360Y-125951129D02*
X147234449Y-126309642D01*
X147341945Y-125699999D01*
X137642380Y-108014285D02*
X136642380Y-108014285D01*
X136642380Y-107776190D01*
X136690000Y-107633333D01*
X136785238Y-107538095D01*
X136880476Y-107490476D01*
X137070952Y-107442857D01*
X137213809Y-107442857D01*
X137404285Y-107490476D01*
X137499523Y-107538095D01*
X137594761Y-107633333D01*
X137642380Y-107776190D01*
X137642380Y-108014285D01*
X137642380Y-106490476D02*
X137642380Y-107061904D01*
X137642380Y-106776190D02*
X136642380Y-106776190D01*
X136785238Y-106871428D01*
X136880476Y-106966666D01*
X136928095Y-107061904D01*
X137070952Y-105919047D02*
X137023333Y-106014285D01*
X136975714Y-106061904D01*
X136880476Y-106109523D01*
X136832857Y-106109523D01*
X136737619Y-106061904D01*
X136690000Y-106014285D01*
X136642380Y-105919047D01*
X136642380Y-105728571D01*
X136690000Y-105633333D01*
X136737619Y-105585714D01*
X136832857Y-105538095D01*
X136880476Y-105538095D01*
X136975714Y-105585714D01*
X137023333Y-105633333D01*
X137070952Y-105728571D01*
X137070952Y-105919047D01*
X137118571Y-106014285D01*
X137166190Y-106061904D01*
X137261428Y-106109523D01*
X137451904Y-106109523D01*
X137547142Y-106061904D01*
X137594761Y-106014285D01*
X137642380Y-105919047D01*
X137642380Y-105728571D01*
X137594761Y-105633333D01*
X137547142Y-105585714D01*
X137451904Y-105538095D01*
X137261428Y-105538095D01*
X137166190Y-105585714D01*
X137118571Y-105633333D01*
X137070952Y-105728571D01*
X112171252Y-129828511D02*
X111464146Y-129121404D01*
X111632504Y-128953045D01*
X111767191Y-128885702D01*
X111901878Y-128885702D01*
X112002894Y-128919374D01*
X112171252Y-129020389D01*
X112272268Y-129121404D01*
X112373283Y-129289763D01*
X112406955Y-129390778D01*
X112406955Y-129525465D01*
X112339611Y-129660152D01*
X112171252Y-129828511D01*
X113248749Y-128751015D02*
X112844688Y-129155076D01*
X113046718Y-128953045D02*
X112339611Y-128245938D01*
X112373283Y-128414297D01*
X112373283Y-128548984D01*
X112339611Y-128650000D01*
X113147733Y-127437816D02*
X113013046Y-127572503D01*
X112979375Y-127673519D01*
X112979375Y-127740862D01*
X113013046Y-127909221D01*
X113114062Y-128077580D01*
X113383436Y-128346954D01*
X113484451Y-128380625D01*
X113551794Y-128380625D01*
X113652810Y-128346954D01*
X113787497Y-128212267D01*
X113821168Y-128111251D01*
X113821168Y-128043908D01*
X113787497Y-127942893D01*
X113619138Y-127774534D01*
X113518123Y-127740862D01*
X113450779Y-127740862D01*
X113349764Y-127774534D01*
X113215077Y-127909221D01*
X113181405Y-128010236D01*
X113181405Y-128077580D01*
X113215077Y-128178595D01*
X149191488Y-123391251D02*
X149898595Y-122684145D01*
X150066954Y-122852503D01*
X150134297Y-122987190D01*
X150134297Y-123121877D01*
X150100625Y-123222893D01*
X149999610Y-123391251D01*
X149898595Y-123492267D01*
X149730236Y-123593282D01*
X149629221Y-123626954D01*
X149494534Y-123626954D01*
X149359847Y-123559610D01*
X149191488Y-123391251D01*
X150268984Y-124468748D02*
X149864923Y-124064687D01*
X150066954Y-124266717D02*
X150774061Y-123559610D01*
X150605702Y-123593282D01*
X150471015Y-123593282D01*
X150370000Y-123559610D01*
X151413824Y-124199374D02*
X151481167Y-124266717D01*
X151514839Y-124367732D01*
X151514839Y-124435076D01*
X151481167Y-124536091D01*
X151380152Y-124704450D01*
X151211793Y-124872809D01*
X151043435Y-124973824D01*
X150942419Y-125007496D01*
X150875076Y-125007496D01*
X150774061Y-124973824D01*
X150706717Y-124906480D01*
X150673045Y-124805465D01*
X150673045Y-124738122D01*
X150706717Y-124637106D01*
X150807732Y-124468748D01*
X150976091Y-124300389D01*
X151144450Y-124199374D01*
X151245465Y-124165702D01*
X151312809Y-124165702D01*
X151413824Y-124199374D01*
X138509018Y-112216016D02*
X139151805Y-111449971D01*
X139334197Y-111603016D01*
X139413023Y-111731321D01*
X139424762Y-111865495D01*
X139400022Y-111969061D01*
X139314065Y-112145583D01*
X139222238Y-112255018D01*
X139063324Y-112370322D01*
X138965628Y-112412670D01*
X138831453Y-112424409D01*
X138691409Y-112369060D01*
X138509018Y-112216016D01*
X139676324Y-113195501D02*
X139238584Y-112828194D01*
X139457454Y-113011848D02*
X140100241Y-112245803D01*
X139935458Y-112294020D01*
X139801283Y-112305759D01*
X139697718Y-112281020D01*
X140405890Y-113807680D02*
X139968150Y-113440373D01*
X140187020Y-113624027D02*
X140829808Y-112857982D01*
X140665024Y-112906199D01*
X140530850Y-112917938D01*
X140427284Y-112893198D01*
X152094562Y-129117340D02*
X152268211Y-128132532D01*
X152502689Y-128173877D01*
X152635107Y-128245579D01*
X152712360Y-128355909D01*
X152742718Y-128457969D01*
X152756537Y-128653820D01*
X152731730Y-128794507D01*
X152651759Y-128973820D01*
X152588325Y-129059343D01*
X152477996Y-129136596D01*
X152329040Y-129158685D01*
X152094562Y-129117340D01*
X153126266Y-129299257D02*
X153313848Y-129332333D01*
X153415908Y-129301975D01*
X153471073Y-129263349D01*
X153589671Y-129139200D01*
X153669643Y-128959886D01*
X153735794Y-128584721D01*
X153705437Y-128482661D01*
X153666810Y-128427497D01*
X153581288Y-128364063D01*
X153393705Y-128330987D01*
X153291645Y-128361345D01*
X153236480Y-128399972D01*
X153173047Y-128485494D01*
X153131702Y-128719972D01*
X153162060Y-128822032D01*
X153200686Y-128877197D01*
X153286209Y-128940630D01*
X153473791Y-128973706D01*
X153575851Y-128943348D01*
X153631016Y-128904722D01*
X153694449Y-128819199D01*
X129460588Y-113247071D02*
X128817800Y-112481027D01*
X129000191Y-112327982D01*
X129140235Y-112272634D01*
X129274410Y-112284372D01*
X129372106Y-112326720D01*
X129531020Y-112442024D01*
X129622847Y-112551459D01*
X129708804Y-112727981D01*
X129733544Y-112831547D01*
X129721805Y-112965721D01*
X129642979Y-113094027D01*
X129460588Y-113247071D01*
X129608584Y-111941805D02*
X129614453Y-111874717D01*
X129656801Y-111777021D01*
X129839193Y-111623977D01*
X129942758Y-111599237D01*
X130009845Y-111605106D01*
X130107541Y-111647454D01*
X130168759Y-111720411D01*
X130224108Y-111860455D01*
X130153675Y-112665501D01*
X130627893Y-112267585D01*
X131357460Y-111655407D02*
X130919720Y-112022714D01*
X131138590Y-111839060D02*
X130495802Y-111073016D01*
X130514672Y-111243669D01*
X130502933Y-111377843D01*
X130460586Y-111475539D01*
X133077142Y-112546666D02*
X133124761Y-112594285D01*
X133172380Y-112737142D01*
X133172380Y-112832380D01*
X133124761Y-112975238D01*
X133029523Y-113070476D01*
X132934285Y-113118095D01*
X132743809Y-113165714D01*
X132600952Y-113165714D01*
X132410476Y-113118095D01*
X132315238Y-113070476D01*
X132220000Y-112975238D01*
X132172380Y-112832380D01*
X132172380Y-112737142D01*
X132220000Y-112594285D01*
X132267619Y-112546666D01*
X132267619Y-112165714D02*
X132220000Y-112118095D01*
X132172380Y-112022857D01*
X132172380Y-111784761D01*
X132220000Y-111689523D01*
X132267619Y-111641904D01*
X132362857Y-111594285D01*
X132458095Y-111594285D01*
X132600952Y-111641904D01*
X133172380Y-112213333D01*
X133172380Y-111594285D01*
X121367968Y-122381793D02*
X120660861Y-121674687D01*
X120829220Y-121506328D01*
X120963907Y-121438984D01*
X121098594Y-121438984D01*
X121199609Y-121472656D01*
X121367968Y-121573671D01*
X121468983Y-121674687D01*
X121569999Y-121843045D01*
X121603670Y-121944061D01*
X121603670Y-122078748D01*
X121536327Y-122213435D01*
X121367968Y-122381793D01*
X121772029Y-121169610D02*
X121671014Y-121203282D01*
X121603670Y-121203282D01*
X121502655Y-121169610D01*
X121468983Y-121135938D01*
X121435311Y-121034923D01*
X121435311Y-120967580D01*
X121468983Y-120866564D01*
X121603670Y-120731877D01*
X121704686Y-120698206D01*
X121772029Y-120698206D01*
X121873044Y-120731877D01*
X121906716Y-120765549D01*
X121940388Y-120866564D01*
X121940388Y-120933908D01*
X121906716Y-121034923D01*
X121772029Y-121169610D01*
X121738357Y-121270625D01*
X121738357Y-121337969D01*
X121772029Y-121438984D01*
X121906716Y-121573671D01*
X122007731Y-121607343D01*
X122075075Y-121607343D01*
X122176090Y-121573671D01*
X122310777Y-121438984D01*
X122344449Y-121337969D01*
X122344449Y-121270625D01*
X122310777Y-121169610D01*
X122176090Y-121034923D01*
X122075075Y-121001251D01*
X122007731Y-121001251D01*
X121906716Y-121034923D01*
X136161904Y-113502380D02*
X136161904Y-112502380D01*
X136400000Y-112502380D01*
X136542857Y-112550000D01*
X136638095Y-112645238D01*
X136685714Y-112740476D01*
X136733333Y-112930952D01*
X136733333Y-113073809D01*
X136685714Y-113264285D01*
X136638095Y-113359523D01*
X136542857Y-113454761D01*
X136400000Y-113502380D01*
X136161904Y-113502380D01*
X137638095Y-112502380D02*
X137161904Y-112502380D01*
X137114285Y-112978571D01*
X137161904Y-112930952D01*
X137257142Y-112883333D01*
X137495238Y-112883333D01*
X137590476Y-112930952D01*
X137638095Y-112978571D01*
X137685714Y-113073809D01*
X137685714Y-113311904D01*
X137638095Y-113407142D01*
X137590476Y-113454761D01*
X137495238Y-113502380D01*
X137257142Y-113502380D01*
X137161904Y-113454761D01*
X137114285Y-113407142D01*
X152408206Y-126947969D02*
X153115312Y-126240862D01*
X153283671Y-126409221D01*
X153351015Y-126543908D01*
X153351015Y-126678595D01*
X153317343Y-126779610D01*
X153216328Y-126947969D01*
X153115312Y-127048984D01*
X152946954Y-127150000D01*
X152845938Y-127183671D01*
X152711251Y-127183671D01*
X152576564Y-127116328D01*
X152408206Y-126947969D01*
X153721404Y-126981641D02*
X153788748Y-126981641D01*
X153889763Y-127015312D01*
X154058122Y-127183671D01*
X154091793Y-127284687D01*
X154091793Y-127352030D01*
X154058122Y-127453045D01*
X153990778Y-127520389D01*
X153856091Y-127587732D01*
X153047969Y-127587732D01*
X153485702Y-128025465D01*
X146778206Y-121117969D02*
X147485312Y-120410862D01*
X147653671Y-120579221D01*
X147721015Y-120713908D01*
X147721015Y-120848595D01*
X147687343Y-120949610D01*
X147586328Y-121117969D01*
X147485312Y-121218984D01*
X147316954Y-121320000D01*
X147215938Y-121353671D01*
X147081251Y-121353671D01*
X146946564Y-121286328D01*
X146778206Y-121117969D01*
X147855702Y-122195465D02*
X147451641Y-121791404D01*
X147653671Y-121993435D02*
X148360778Y-121286328D01*
X148192419Y-121320000D01*
X148057732Y-121320000D01*
X147956717Y-121286328D01*
X128313333Y-119437142D02*
X128265714Y-119484761D01*
X128122857Y-119532380D01*
X128027619Y-119532380D01*
X127884761Y-119484761D01*
X127789523Y-119389523D01*
X127741904Y-119294285D01*
X127694285Y-119103809D01*
X127694285Y-118960952D01*
X127741904Y-118770476D01*
X127789523Y-118675238D01*
X127884761Y-118580000D01*
X128027619Y-118532380D01*
X128122857Y-118532380D01*
X128265714Y-118580000D01*
X128313333Y-118627619D01*
X128646666Y-118532380D02*
X129265714Y-118532380D01*
X128932380Y-118913333D01*
X129075238Y-118913333D01*
X129170476Y-118960952D01*
X129218095Y-119008571D01*
X129265714Y-119103809D01*
X129265714Y-119341904D01*
X129218095Y-119437142D01*
X129170476Y-119484761D01*
X129075238Y-119532380D01*
X128789523Y-119532380D01*
X128694285Y-119484761D01*
X128646666Y-119437142D01*
X114722717Y-129376366D02*
X114549068Y-128391559D01*
X114783547Y-128350214D01*
X114932502Y-128372302D01*
X115042831Y-128449556D01*
X115106265Y-128535078D01*
X115186236Y-128714391D01*
X115211043Y-128855078D01*
X115197224Y-129050930D01*
X115166866Y-129152990D01*
X115089613Y-129263319D01*
X114957195Y-129335021D01*
X114722717Y-129376366D01*
X116223376Y-129111760D02*
X115660629Y-129210987D01*
X115942002Y-129161373D02*
X115768354Y-128176566D01*
X115699370Y-128333790D01*
X115622117Y-128444119D01*
X115536594Y-128507553D01*
X116692332Y-129029070D02*
X116879915Y-128995994D01*
X116965437Y-128932561D01*
X117004063Y-128877396D01*
X117073048Y-128720171D01*
X117086868Y-128524320D01*
X117020716Y-128149155D01*
X116957282Y-128063633D01*
X116902118Y-128025006D01*
X116800058Y-127994648D01*
X116612475Y-128027724D01*
X116526953Y-128091158D01*
X116488326Y-128146322D01*
X116457969Y-128248383D01*
X116499313Y-128482861D01*
X116562747Y-128568383D01*
X116617912Y-128607009D01*
X116719972Y-128637367D01*
X116907554Y-128604291D01*
X116993076Y-128540858D01*
X117031703Y-128485693D01*
X117062061Y-128383633D01*
X141673333Y-120337142D02*
X141625714Y-120384761D01*
X141482857Y-120432380D01*
X141387619Y-120432380D01*
X141244761Y-120384761D01*
X141149523Y-120289523D01*
X141101904Y-120194285D01*
X141054285Y-120003809D01*
X141054285Y-119860952D01*
X141101904Y-119670476D01*
X141149523Y-119575238D01*
X141244761Y-119480000D01*
X141387619Y-119432380D01*
X141482857Y-119432380D01*
X141625714Y-119480000D01*
X141673333Y-119527619D01*
X142530476Y-119432380D02*
X142340000Y-119432380D01*
X142244761Y-119480000D01*
X142197142Y-119527619D01*
X142101904Y-119670476D01*
X142054285Y-119860952D01*
X142054285Y-120241904D01*
X142101904Y-120337142D01*
X142149523Y-120384761D01*
X142244761Y-120432380D01*
X142435238Y-120432380D01*
X142530476Y-120384761D01*
X142578095Y-120337142D01*
X142625714Y-120241904D01*
X142625714Y-120003809D01*
X142578095Y-119908571D01*
X142530476Y-119860952D01*
X142435238Y-119813333D01*
X142244761Y-119813333D01*
X142149523Y-119860952D01*
X142101904Y-119908571D01*
X142054285Y-120003809D01*
X121824408Y-126164401D02*
X121769244Y-126125774D01*
X121697541Y-125993357D01*
X121681003Y-125899565D01*
X121703092Y-125750610D01*
X121780345Y-125640280D01*
X121865867Y-125576847D01*
X122045181Y-125496875D01*
X122185868Y-125472069D01*
X122381719Y-125485888D01*
X122483779Y-125516246D01*
X122594108Y-125593499D01*
X122665811Y-125725917D01*
X122682349Y-125819708D01*
X122660260Y-125968664D01*
X122621633Y-126023829D01*
X122872535Y-126898307D02*
X122789845Y-126429351D01*
X122312620Y-126465145D01*
X122367785Y-126503772D01*
X122431218Y-126589294D01*
X122472563Y-126823772D01*
X122442205Y-126925832D01*
X122403579Y-126980997D01*
X122318057Y-127044431D01*
X122083579Y-127085775D01*
X121981518Y-127055418D01*
X121926354Y-127016791D01*
X121862920Y-126931269D01*
X121821575Y-126696791D01*
X121851933Y-126594731D01*
X121890560Y-126539566D01*
X126102380Y-127294285D02*
X125102380Y-127294285D01*
X125102380Y-127056190D01*
X125150000Y-126913333D01*
X125245238Y-126818095D01*
X125340476Y-126770476D01*
X125530952Y-126722857D01*
X125673809Y-126722857D01*
X125864285Y-126770476D01*
X125959523Y-126818095D01*
X126054761Y-126913333D01*
X126102380Y-127056190D01*
X126102380Y-127294285D01*
X126102380Y-125770476D02*
X126102380Y-126341904D01*
X126102380Y-126056190D02*
X125102380Y-126056190D01*
X125245238Y-126151428D01*
X125340476Y-126246666D01*
X125388095Y-126341904D01*
X125102380Y-124865714D02*
X125102380Y-125341904D01*
X125578571Y-125389523D01*
X125530952Y-125341904D01*
X125483333Y-125246666D01*
X125483333Y-125008571D01*
X125530952Y-124913333D01*
X125578571Y-124865714D01*
X125673809Y-124818095D01*
X125911904Y-124818095D01*
X126007142Y-124865714D01*
X126054761Y-124913333D01*
X126102380Y-125008571D01*
X126102380Y-125246666D01*
X126054761Y-125341904D01*
X126007142Y-125389523D01*
X143922380Y-128044285D02*
X142922380Y-128044285D01*
X142922380Y-127806190D01*
X142970000Y-127663333D01*
X143065238Y-127568095D01*
X143160476Y-127520476D01*
X143350952Y-127472857D01*
X143493809Y-127472857D01*
X143684285Y-127520476D01*
X143779523Y-127568095D01*
X143874761Y-127663333D01*
X143922380Y-127806190D01*
X143922380Y-128044285D01*
X143922380Y-126520476D02*
X143922380Y-127091904D01*
X143922380Y-126806190D02*
X142922380Y-126806190D01*
X143065238Y-126901428D01*
X143160476Y-126996666D01*
X143208095Y-127091904D01*
X143017619Y-126139523D02*
X142970000Y-126091904D01*
X142922380Y-125996666D01*
X142922380Y-125758571D01*
X142970000Y-125663333D01*
X143017619Y-125615714D01*
X143112857Y-125568095D01*
X143208095Y-125568095D01*
X143350952Y-125615714D01*
X143922380Y-126187142D01*
X143922380Y-125568095D01*
X117681251Y-125118511D02*
X116974145Y-124411404D01*
X117142503Y-124243045D01*
X117277190Y-124175702D01*
X117411877Y-124175702D01*
X117512893Y-124209374D01*
X117681251Y-124310389D01*
X117782267Y-124411404D01*
X117883282Y-124579763D01*
X117916954Y-124680778D01*
X117916954Y-124815465D01*
X117849610Y-124950152D01*
X117681251Y-125118511D01*
X117714923Y-123805312D02*
X117714923Y-123737969D01*
X117748595Y-123636954D01*
X117916954Y-123468595D01*
X118017969Y-123434923D01*
X118085312Y-123434923D01*
X118186328Y-123468595D01*
X118253671Y-123535938D01*
X118321015Y-123670625D01*
X118321015Y-124478748D01*
X118758748Y-124041015D01*
X118489374Y-122896175D02*
X118556717Y-122828832D01*
X118657732Y-122795160D01*
X118725076Y-122795160D01*
X118826091Y-122828832D01*
X118994450Y-122929847D01*
X119162809Y-123098206D01*
X119263824Y-123266564D01*
X119297496Y-123367580D01*
X119297496Y-123434923D01*
X119263824Y-123535938D01*
X119196480Y-123603282D01*
X119095465Y-123636954D01*
X119028122Y-123636954D01*
X118927106Y-123603282D01*
X118758748Y-123502267D01*
X118590389Y-123333908D01*
X118489374Y-123165549D01*
X118455702Y-123064534D01*
X118455702Y-122997190D01*
X118489374Y-122896175D01*
X123521251Y-118268511D02*
X122814145Y-117561404D01*
X122982503Y-117393045D01*
X123117190Y-117325702D01*
X123251877Y-117325702D01*
X123352893Y-117359374D01*
X123521251Y-117460389D01*
X123622267Y-117561404D01*
X123723282Y-117729763D01*
X123756954Y-117830778D01*
X123756954Y-117965465D01*
X123689610Y-118100152D01*
X123521251Y-118268511D01*
X124598748Y-117191015D02*
X124194687Y-117595076D01*
X124396717Y-117393045D02*
X123689610Y-116685938D01*
X123723282Y-116854297D01*
X123723282Y-116988984D01*
X123689610Y-117090000D01*
X124127343Y-116248206D02*
X124598748Y-115776801D01*
X125002809Y-116786954D01*
X136047142Y-124696666D02*
X136094761Y-124744285D01*
X136142380Y-124887142D01*
X136142380Y-124982380D01*
X136094761Y-125125238D01*
X135999523Y-125220476D01*
X135904285Y-125268095D01*
X135713809Y-125315714D01*
X135570952Y-125315714D01*
X135380476Y-125268095D01*
X135285238Y-125220476D01*
X135190000Y-125125238D01*
X135142380Y-124982380D01*
X135142380Y-124887142D01*
X135190000Y-124744285D01*
X135237619Y-124696666D01*
X136142380Y-123744285D02*
X136142380Y-124315714D01*
X136142380Y-124030000D02*
X135142380Y-124030000D01*
X135285238Y-124125238D01*
X135380476Y-124220476D01*
X135428095Y-124315714D01*
X139272380Y-150761904D02*
X140081904Y-150761904D01*
X140177142Y-150714285D01*
X140224761Y-150666666D01*
X140272380Y-150571428D01*
X140272380Y-150380952D01*
X140224761Y-150285714D01*
X140177142Y-150238095D01*
X140081904Y-150190476D01*
X139272380Y-150190476D01*
X140272380Y-149190476D02*
X140272380Y-149761904D01*
X140272380Y-149476190D02*
X139272380Y-149476190D01*
X139415238Y-149571428D01*
X139510476Y-149666666D01*
X139558095Y-149761904D01*
X139638206Y-148017969D02*
X140345312Y-147310862D01*
X140513671Y-147479221D01*
X140581015Y-147613908D01*
X140581015Y-147748595D01*
X140547343Y-147849610D01*
X140446328Y-148017969D01*
X140345312Y-148118984D01*
X140176954Y-148220000D01*
X140075938Y-148253671D01*
X139941251Y-148253671D01*
X139806564Y-148186328D01*
X139638206Y-148017969D01*
X140985076Y-147950625D02*
X141422809Y-148388358D01*
X140917732Y-148422030D01*
X141018748Y-148523045D01*
X141052419Y-148624061D01*
X141052419Y-148691404D01*
X141018748Y-148792419D01*
X140850389Y-148960778D01*
X140749374Y-148994450D01*
X140682030Y-148994450D01*
X140581015Y-148960778D01*
X140378984Y-148758748D01*
X140345312Y-148657732D01*
X140345312Y-148590389D01*
X141673333Y-152337142D02*
X141625714Y-152384761D01*
X141482857Y-152432380D01*
X141387619Y-152432380D01*
X141244761Y-152384761D01*
X141149523Y-152289523D01*
X141101904Y-152194285D01*
X141054285Y-152003809D01*
X141054285Y-151860952D01*
X141101904Y-151670476D01*
X141149523Y-151575238D01*
X141244761Y-151480000D01*
X141387619Y-151432380D01*
X141482857Y-151432380D01*
X141625714Y-151480000D01*
X141673333Y-151527619D01*
X142530476Y-151432380D02*
X142340000Y-151432380D01*
X142244761Y-151480000D01*
X142197142Y-151527619D01*
X142101904Y-151670476D01*
X142054285Y-151860952D01*
X142054285Y-152241904D01*
X142101904Y-152337142D01*
X142149523Y-152384761D01*
X142244761Y-152432380D01*
X142435238Y-152432380D01*
X142530476Y-152384761D01*
X142578095Y-152337142D01*
X142625714Y-152241904D01*
X142625714Y-152003809D01*
X142578095Y-151908571D01*
X142530476Y-151860952D01*
X142435238Y-151813333D01*
X142244761Y-151813333D01*
X142149523Y-151860952D01*
X142101904Y-151908571D01*
X142054285Y-152003809D01*
X121824408Y-158164401D02*
X121769244Y-158125774D01*
X121697541Y-157993357D01*
X121681003Y-157899565D01*
X121703092Y-157750610D01*
X121780345Y-157640280D01*
X121865867Y-157576847D01*
X122045181Y-157496875D01*
X122185868Y-157472069D01*
X122381719Y-157485888D01*
X122483779Y-157516246D01*
X122594108Y-157593499D01*
X122665811Y-157725917D01*
X122682349Y-157819708D01*
X122660260Y-157968664D01*
X122621633Y-158023829D01*
X122872535Y-158898307D02*
X122789845Y-158429351D01*
X122312620Y-158465145D01*
X122367785Y-158503772D01*
X122431218Y-158589294D01*
X122472563Y-158823772D01*
X122442205Y-158925832D01*
X122403579Y-158980997D01*
X122318057Y-159044431D01*
X122083579Y-159085775D01*
X121981518Y-159055418D01*
X121926354Y-159016791D01*
X121862920Y-158931269D01*
X121821575Y-158696791D01*
X121851933Y-158594731D01*
X121890560Y-158539566D01*
X126102380Y-159294285D02*
X125102380Y-159294285D01*
X125102380Y-159056190D01*
X125150000Y-158913333D01*
X125245238Y-158818095D01*
X125340476Y-158770476D01*
X125530952Y-158722857D01*
X125673809Y-158722857D01*
X125864285Y-158770476D01*
X125959523Y-158818095D01*
X126054761Y-158913333D01*
X126102380Y-159056190D01*
X126102380Y-159294285D01*
X126102380Y-157770476D02*
X126102380Y-158341904D01*
X126102380Y-158056190D02*
X125102380Y-158056190D01*
X125245238Y-158151428D01*
X125340476Y-158246666D01*
X125388095Y-158341904D01*
X125102380Y-156865714D02*
X125102380Y-157341904D01*
X125578571Y-157389523D01*
X125530952Y-157341904D01*
X125483333Y-157246666D01*
X125483333Y-157008571D01*
X125530952Y-156913333D01*
X125578571Y-156865714D01*
X125673809Y-156818095D01*
X125911904Y-156818095D01*
X126007142Y-156865714D01*
X126054761Y-156913333D01*
X126102380Y-157008571D01*
X126102380Y-157246666D01*
X126054761Y-157341904D01*
X126007142Y-157389523D01*
X143922380Y-160044285D02*
X142922380Y-160044285D01*
X142922380Y-159806190D01*
X142970000Y-159663333D01*
X143065238Y-159568095D01*
X143160476Y-159520476D01*
X143350952Y-159472857D01*
X143493809Y-159472857D01*
X143684285Y-159520476D01*
X143779523Y-159568095D01*
X143874761Y-159663333D01*
X143922380Y-159806190D01*
X143922380Y-160044285D01*
X143922380Y-158520476D02*
X143922380Y-159091904D01*
X143922380Y-158806190D02*
X142922380Y-158806190D01*
X143065238Y-158901428D01*
X143160476Y-158996666D01*
X143208095Y-159091904D01*
X143017619Y-158139523D02*
X142970000Y-158091904D01*
X142922380Y-157996666D01*
X142922380Y-157758571D01*
X142970000Y-157663333D01*
X143017619Y-157615714D01*
X143112857Y-157568095D01*
X143208095Y-157568095D01*
X143350952Y-157615714D01*
X143922380Y-158187142D01*
X143922380Y-157568095D01*
X112171252Y-161828511D02*
X111464146Y-161121404D01*
X111632504Y-160953045D01*
X111767191Y-160885702D01*
X111901878Y-160885702D01*
X112002894Y-160919374D01*
X112171252Y-161020389D01*
X112272268Y-161121404D01*
X112373283Y-161289763D01*
X112406955Y-161390778D01*
X112406955Y-161525465D01*
X112339611Y-161660152D01*
X112171252Y-161828511D01*
X113248749Y-160751015D02*
X112844688Y-161155076D01*
X113046718Y-160953045D02*
X112339611Y-160245938D01*
X112373283Y-160414297D01*
X112373283Y-160548984D01*
X112339611Y-160650000D01*
X113147733Y-159437816D02*
X113013046Y-159572503D01*
X112979375Y-159673519D01*
X112979375Y-159740862D01*
X113013046Y-159909221D01*
X113114062Y-160077580D01*
X113383436Y-160346954D01*
X113484451Y-160380625D01*
X113551794Y-160380625D01*
X113652810Y-160346954D01*
X113787497Y-160212267D01*
X113821168Y-160111251D01*
X113821168Y-160043908D01*
X113787497Y-159942893D01*
X113619138Y-159774534D01*
X113518123Y-159740862D01*
X113450779Y-159740862D01*
X113349764Y-159774534D01*
X113215077Y-159909221D01*
X113181405Y-160010236D01*
X113181405Y-160077580D01*
X113215077Y-160178595D01*
X115627969Y-159861793D02*
X114920862Y-159154687D01*
X115089221Y-158986328D01*
X115223908Y-158918984D01*
X115358595Y-158918984D01*
X115459610Y-158952656D01*
X115627969Y-159053671D01*
X115728984Y-159154687D01*
X115829999Y-159323045D01*
X115863671Y-159424061D01*
X115863671Y-159558748D01*
X115796328Y-159693435D01*
X115627969Y-159861793D01*
X115560625Y-158514923D02*
X116032030Y-158043519D01*
X116436091Y-159053671D01*
X154881488Y-159851251D02*
X155588595Y-159144145D01*
X155756954Y-159312503D01*
X155824297Y-159447190D01*
X155824297Y-159581877D01*
X155790625Y-159682893D01*
X155689610Y-159851251D01*
X155588595Y-159952267D01*
X155420236Y-160053282D01*
X155319221Y-160086954D01*
X155184534Y-160086954D01*
X155049847Y-160019610D01*
X154881488Y-159851251D01*
X155958984Y-160928748D02*
X155554923Y-160524687D01*
X155756954Y-160726717D02*
X156464061Y-160019610D01*
X156295702Y-160053282D01*
X156161015Y-160053282D01*
X156060000Y-160019610D01*
X156901793Y-160457343D02*
X157339526Y-160895076D01*
X156834450Y-160928748D01*
X156935465Y-161029763D01*
X156969137Y-161130778D01*
X156969137Y-161198122D01*
X156935465Y-161299137D01*
X156767106Y-161467496D01*
X156666091Y-161501167D01*
X156598748Y-161501167D01*
X156497732Y-161467496D01*
X156295702Y-161265465D01*
X156262030Y-161164450D01*
X156262030Y-161097106D01*
X133077142Y-144546666D02*
X133124761Y-144594285D01*
X133172380Y-144737142D01*
X133172380Y-144832380D01*
X133124761Y-144975238D01*
X133029523Y-145070476D01*
X132934285Y-145118095D01*
X132743809Y-145165714D01*
X132600952Y-145165714D01*
X132410476Y-145118095D01*
X132315238Y-145070476D01*
X132220000Y-144975238D01*
X132172380Y-144832380D01*
X132172380Y-144737142D01*
X132220000Y-144594285D01*
X132267619Y-144546666D01*
X132267619Y-144165714D02*
X132220000Y-144118095D01*
X132172380Y-144022857D01*
X132172380Y-143784761D01*
X132220000Y-143689523D01*
X132267619Y-143641904D01*
X132362857Y-143594285D01*
X132458095Y-143594285D01*
X132600952Y-143641904D01*
X133172380Y-144213333D01*
X133172380Y-143594285D01*
X121367968Y-154381793D02*
X120660861Y-153674687D01*
X120829220Y-153506328D01*
X120963907Y-153438984D01*
X121098594Y-153438984D01*
X121199609Y-153472656D01*
X121367968Y-153573671D01*
X121468983Y-153674687D01*
X121569998Y-153843045D01*
X121603670Y-153944061D01*
X121603670Y-154078748D01*
X121536327Y-154213435D01*
X121367968Y-154381793D01*
X121772029Y-153169610D02*
X121671014Y-153203282D01*
X121603670Y-153203282D01*
X121502655Y-153169610D01*
X121468983Y-153135938D01*
X121435311Y-153034923D01*
X121435311Y-152967580D01*
X121468983Y-152866564D01*
X121603670Y-152731877D01*
X121704686Y-152698206D01*
X121772029Y-152698206D01*
X121873044Y-152731877D01*
X121906716Y-152765549D01*
X121940388Y-152866564D01*
X121940388Y-152933908D01*
X121906716Y-153034923D01*
X121772029Y-153169610D01*
X121738357Y-153270625D01*
X121738357Y-153337969D01*
X121772029Y-153438984D01*
X121906716Y-153573671D01*
X122007731Y-153607343D01*
X122075075Y-153607343D01*
X122176090Y-153573671D01*
X122310777Y-153438984D01*
X122344449Y-153337969D01*
X122344449Y-153270625D01*
X122310777Y-153169610D01*
X122176090Y-153034923D01*
X122075075Y-153001251D01*
X122007731Y-153001251D01*
X121906716Y-153034923D01*
X127022969Y-148391793D02*
X126315862Y-147684687D01*
X126484221Y-147516328D01*
X126618908Y-147448984D01*
X126753595Y-147448984D01*
X126854610Y-147482656D01*
X127022969Y-147583671D01*
X127123984Y-147684687D01*
X127224999Y-147853045D01*
X127258671Y-147954061D01*
X127258671Y-148088748D01*
X127191328Y-148223435D01*
X127022969Y-148391793D01*
X127326015Y-146674534D02*
X127191328Y-146809221D01*
X127157656Y-146910236D01*
X127157656Y-146977580D01*
X127191328Y-147145938D01*
X127292343Y-147314297D01*
X127561717Y-147583671D01*
X127662732Y-147617343D01*
X127730076Y-147617343D01*
X127831091Y-147583671D01*
X127965778Y-147448984D01*
X127999450Y-147347969D01*
X127999450Y-147280625D01*
X127965778Y-147179610D01*
X127797419Y-147011251D01*
X127696404Y-146977580D01*
X127629061Y-146977580D01*
X127528045Y-147011251D01*
X127393358Y-147145938D01*
X127359687Y-147246954D01*
X127359687Y-147314297D01*
X127393358Y-147415312D01*
X142935714Y-149702380D02*
X142935714Y-148702380D01*
X143173809Y-148702380D01*
X143316666Y-148750000D01*
X143411904Y-148845238D01*
X143459523Y-148940476D01*
X143507142Y-149130952D01*
X143507142Y-149273809D01*
X143459523Y-149464285D01*
X143411904Y-149559523D01*
X143316666Y-149654761D01*
X143173809Y-149702380D01*
X142935714Y-149702380D01*
X144459523Y-149702380D02*
X143888095Y-149702380D01*
X144173809Y-149702380D02*
X144173809Y-148702380D01*
X144078571Y-148845238D01*
X143983333Y-148940476D01*
X143888095Y-148988095D01*
X145316666Y-149035714D02*
X145316666Y-149702380D01*
X145078571Y-148654761D02*
X144840476Y-149369047D01*
X145459523Y-149369047D01*
X131325372Y-139320982D02*
X130682584Y-138554937D01*
X130864976Y-138401893D01*
X131005019Y-138346544D01*
X131139194Y-138358283D01*
X131236890Y-138400631D01*
X131395804Y-138515935D01*
X131487631Y-138625370D01*
X131573588Y-138801892D01*
X131598328Y-138905458D01*
X131586589Y-139039632D01*
X131507763Y-139167937D01*
X131325372Y-139320982D01*
X131991196Y-137892018D02*
X132419721Y-138402714D01*
X131563933Y-137753236D02*
X131840675Y-138453455D01*
X132314893Y-138055539D01*
X136161904Y-145502380D02*
X136161904Y-144502380D01*
X136400000Y-144502380D01*
X136542857Y-144550000D01*
X136638095Y-144645238D01*
X136685714Y-144740476D01*
X136733333Y-144930952D01*
X136733333Y-145073809D01*
X136685714Y-145264285D01*
X136638095Y-145359523D01*
X136542857Y-145454761D01*
X136400000Y-145502380D01*
X136161904Y-145502380D01*
X137638095Y-144502380D02*
X137161904Y-144502380D01*
X137114285Y-144978571D01*
X137161904Y-144930952D01*
X137257142Y-144883333D01*
X137495238Y-144883333D01*
X137590476Y-144930952D01*
X137638095Y-144978571D01*
X137685714Y-145073809D01*
X137685714Y-145311904D01*
X137638095Y-145407142D01*
X137590476Y-145454761D01*
X137495238Y-145502380D01*
X137257142Y-145502380D01*
X137161904Y-145454761D01*
X137114285Y-145407142D01*
X152408206Y-158947969D02*
X153115312Y-158240862D01*
X153283671Y-158409221D01*
X153351015Y-158543908D01*
X153351015Y-158678595D01*
X153317343Y-158779610D01*
X153216328Y-158947969D01*
X153115312Y-159048984D01*
X152946954Y-159150000D01*
X152845938Y-159183671D01*
X152711251Y-159183671D01*
X152576564Y-159116328D01*
X152408206Y-158947969D01*
X153721404Y-158981641D02*
X153788748Y-158981641D01*
X153889763Y-159015312D01*
X154058122Y-159183671D01*
X154091793Y-159284687D01*
X154091793Y-159352030D01*
X154058122Y-159453045D01*
X153990778Y-159520389D01*
X153856091Y-159587732D01*
X153047969Y-159587732D01*
X153485702Y-160025465D01*
X146778206Y-153117969D02*
X147485312Y-152410862D01*
X147653671Y-152579221D01*
X147721015Y-152713908D01*
X147721015Y-152848595D01*
X147687343Y-152949610D01*
X147586328Y-153117969D01*
X147485312Y-153218984D01*
X147316954Y-153320000D01*
X147215938Y-153353671D01*
X147081251Y-153353671D01*
X146946564Y-153286328D01*
X146778206Y-153117969D01*
X147855702Y-154195465D02*
X147451641Y-153791404D01*
X147653671Y-153993435D02*
X148360778Y-153286328D01*
X148192419Y-153320000D01*
X148057732Y-153320000D01*
X147956717Y-153286328D01*
X138509018Y-144216016D02*
X139151805Y-143449971D01*
X139334197Y-143603016D01*
X139413023Y-143731321D01*
X139424762Y-143865495D01*
X139400022Y-143969061D01*
X139314065Y-144145583D01*
X139222238Y-144255018D01*
X139063324Y-144370322D01*
X138965628Y-144412670D01*
X138831453Y-144424409D01*
X138691409Y-144369060D01*
X138509018Y-144216016D01*
X139676324Y-145195501D02*
X139238584Y-144828194D01*
X139457454Y-145011848D02*
X140100241Y-144245803D01*
X139935458Y-144294020D01*
X139801283Y-144305759D01*
X139697718Y-144281020D01*
X140405890Y-145807680D02*
X139968150Y-145440373D01*
X140187020Y-145624027D02*
X140829808Y-144857982D01*
X140665024Y-144906199D01*
X140530850Y-144917938D01*
X140427284Y-144893198D01*
X147402775Y-158726151D02*
X147441402Y-158781316D01*
X147463491Y-158930272D01*
X147446953Y-159024063D01*
X147375250Y-159156481D01*
X147264921Y-159233734D01*
X147162861Y-159264092D01*
X146967009Y-159277912D01*
X146826323Y-159253105D01*
X146647009Y-159173133D01*
X146561487Y-159109700D01*
X146484234Y-158999371D01*
X146462145Y-158850415D01*
X146478683Y-158756624D01*
X146550385Y-158624206D01*
X146605550Y-158585579D01*
X146988869Y-157782803D02*
X147645408Y-157898568D01*
X146572360Y-157951129D02*
X147234449Y-158309642D01*
X147341945Y-157699999D01*
X136047142Y-156696666D02*
X136094761Y-156744285D01*
X136142380Y-156887142D01*
X136142380Y-156982380D01*
X136094761Y-157125238D01*
X135999523Y-157220476D01*
X135904285Y-157268095D01*
X135713809Y-157315714D01*
X135570952Y-157315714D01*
X135380476Y-157268095D01*
X135285238Y-157220476D01*
X135190000Y-157125238D01*
X135142380Y-156982380D01*
X135142380Y-156887142D01*
X135190000Y-156744285D01*
X135237619Y-156696666D01*
X136142380Y-155744285D02*
X136142380Y-156315714D01*
X136142380Y-156030000D02*
X135142380Y-156030000D01*
X135285238Y-156125238D01*
X135380476Y-156220476D01*
X135428095Y-156315714D01*
X152094562Y-161117340D02*
X152268211Y-160132532D01*
X152502689Y-160173877D01*
X152635107Y-160245579D01*
X152712360Y-160355909D01*
X152742718Y-160457969D01*
X152756537Y-160653820D01*
X152731730Y-160794507D01*
X152651759Y-160973820D01*
X152588325Y-161059343D01*
X152477996Y-161136596D01*
X152329040Y-161158685D01*
X152094562Y-161117340D01*
X153126266Y-161299257D02*
X153313848Y-161332333D01*
X153415908Y-161301975D01*
X153471073Y-161263349D01*
X153589671Y-161139200D01*
X153669643Y-160959886D01*
X153735794Y-160584721D01*
X153705437Y-160482661D01*
X153666810Y-160427497D01*
X153581288Y-160364063D01*
X153393705Y-160330987D01*
X153291645Y-160361345D01*
X153236480Y-160399972D01*
X153173047Y-160485494D01*
X153131702Y-160719972D01*
X153162060Y-160822032D01*
X153200686Y-160877197D01*
X153286209Y-160940630D01*
X153473791Y-160973706D01*
X153575851Y-160943348D01*
X153631016Y-160904722D01*
X153694449Y-160819199D01*
X128313333Y-151437142D02*
X128265714Y-151484761D01*
X128122857Y-151532380D01*
X128027619Y-151532380D01*
X127884761Y-151484761D01*
X127789523Y-151389523D01*
X127741904Y-151294285D01*
X127694285Y-151103809D01*
X127694285Y-150960952D01*
X127741904Y-150770476D01*
X127789523Y-150675238D01*
X127884761Y-150580000D01*
X128027619Y-150532380D01*
X128122857Y-150532380D01*
X128265714Y-150580000D01*
X128313333Y-150627619D01*
X128646666Y-150532380D02*
X129265714Y-150532380D01*
X128932380Y-150913333D01*
X129075238Y-150913333D01*
X129170476Y-150960952D01*
X129218095Y-151008571D01*
X129265714Y-151103809D01*
X129265714Y-151341904D01*
X129218095Y-151437142D01*
X129170476Y-151484761D01*
X129075238Y-151532380D01*
X128789523Y-151532380D01*
X128694285Y-151484761D01*
X128646666Y-151437142D01*
X149191488Y-155391251D02*
X149898595Y-154684145D01*
X150066954Y-154852503D01*
X150134297Y-154987190D01*
X150134297Y-155121877D01*
X150100625Y-155222893D01*
X149999610Y-155391251D01*
X149898595Y-155492267D01*
X149730236Y-155593282D01*
X149629221Y-155626954D01*
X149494534Y-155626954D01*
X149359847Y-155559610D01*
X149191488Y-155391251D01*
X150268984Y-156468748D02*
X149864923Y-156064687D01*
X150066954Y-156266717D02*
X150774061Y-155559610D01*
X150605702Y-155593282D01*
X150471015Y-155593282D01*
X150370000Y-155559610D01*
X151413824Y-156199374D02*
X151481167Y-156266717D01*
X151514839Y-156367732D01*
X151514839Y-156435076D01*
X151481167Y-156536091D01*
X151380152Y-156704450D01*
X151211793Y-156872809D01*
X151043435Y-156973824D01*
X150942419Y-157007496D01*
X150875076Y-157007496D01*
X150774061Y-156973824D01*
X150706717Y-156906480D01*
X150673045Y-156805465D01*
X150673045Y-156738122D01*
X150706717Y-156637106D01*
X150807732Y-156468748D01*
X150976091Y-156300389D01*
X151144450Y-156199374D01*
X151245465Y-156165702D01*
X151312809Y-156165702D01*
X151413824Y-156199374D01*
X129460588Y-145247071D02*
X128817800Y-144481027D01*
X129000191Y-144327982D01*
X129140235Y-144272634D01*
X129274410Y-144284372D01*
X129372106Y-144326720D01*
X129531020Y-144442024D01*
X129622847Y-144551459D01*
X129708804Y-144727981D01*
X129733544Y-144831547D01*
X129721805Y-144965721D01*
X129642979Y-145094027D01*
X129460588Y-145247071D01*
X129608584Y-143941805D02*
X129614453Y-143874717D01*
X129656801Y-143777021D01*
X129839193Y-143623977D01*
X129942758Y-143599237D01*
X130009845Y-143605106D01*
X130107541Y-143647454D01*
X130168759Y-143720411D01*
X130224108Y-143860455D01*
X130153675Y-144665501D01*
X130627893Y-144267585D01*
X131357460Y-143655407D02*
X130919720Y-144022714D01*
X131138590Y-143839060D02*
X130495802Y-143073016D01*
X130514672Y-143243669D01*
X130502933Y-143377843D01*
X130460586Y-143475539D01*
X117681251Y-157118511D02*
X116974145Y-156411404D01*
X117142503Y-156243045D01*
X117277190Y-156175702D01*
X117411877Y-156175702D01*
X117512893Y-156209374D01*
X117681251Y-156310389D01*
X117782267Y-156411404D01*
X117883282Y-156579763D01*
X117916954Y-156680778D01*
X117916954Y-156815465D01*
X117849610Y-156950152D01*
X117681251Y-157118511D01*
X117714923Y-155805312D02*
X117714923Y-155737969D01*
X117748595Y-155636954D01*
X117916954Y-155468595D01*
X118017969Y-155434923D01*
X118085312Y-155434923D01*
X118186328Y-155468595D01*
X118253671Y-155535938D01*
X118321015Y-155670625D01*
X118321015Y-156478748D01*
X118758748Y-156041015D01*
X118489374Y-154896175D02*
X118556717Y-154828832D01*
X118657732Y-154795160D01*
X118725076Y-154795160D01*
X118826091Y-154828832D01*
X118994450Y-154929847D01*
X119162809Y-155098206D01*
X119263824Y-155266564D01*
X119297496Y-155367580D01*
X119297496Y-155434923D01*
X119263824Y-155535938D01*
X119196480Y-155603282D01*
X119095465Y-155636954D01*
X119028122Y-155636954D01*
X118927106Y-155603282D01*
X118758748Y-155502267D01*
X118590389Y-155333908D01*
X118489374Y-155165549D01*
X118455702Y-155064534D01*
X118455702Y-154997190D01*
X118489374Y-154896175D01*
X114722717Y-161376366D02*
X114549068Y-160391559D01*
X114783547Y-160350214D01*
X114932502Y-160372302D01*
X115042831Y-160449556D01*
X115106265Y-160535078D01*
X115186236Y-160714391D01*
X115211043Y-160855078D01*
X115197224Y-161050930D01*
X115166866Y-161152990D01*
X115089613Y-161263319D01*
X114957195Y-161335021D01*
X114722717Y-161376366D01*
X116223376Y-161111760D02*
X115660629Y-161210987D01*
X115942002Y-161161373D02*
X115768354Y-160176566D01*
X115699370Y-160333790D01*
X115622117Y-160444119D01*
X115536594Y-160507553D01*
X116692332Y-161029070D02*
X116879915Y-160995994D01*
X116965437Y-160932561D01*
X117004063Y-160877396D01*
X117073048Y-160720171D01*
X117086868Y-160524320D01*
X117020716Y-160149155D01*
X116957282Y-160063633D01*
X116902118Y-160025006D01*
X116800058Y-159994648D01*
X116612475Y-160027724D01*
X116526953Y-160091158D01*
X116488326Y-160146322D01*
X116457969Y-160248383D01*
X116499313Y-160482861D01*
X116562747Y-160568383D01*
X116617912Y-160607009D01*
X116719972Y-160637367D01*
X116907554Y-160604291D01*
X116993076Y-160540858D01*
X117031703Y-160485693D01*
X117062061Y-160383633D01*
X123521251Y-150268511D02*
X122814145Y-149561404D01*
X122982503Y-149393045D01*
X123117190Y-149325702D01*
X123251877Y-149325702D01*
X123352893Y-149359374D01*
X123521251Y-149460389D01*
X123622267Y-149561404D01*
X123723282Y-149729763D01*
X123756954Y-149830778D01*
X123756954Y-149965465D01*
X123689610Y-150100152D01*
X123521251Y-150268511D01*
X124598748Y-149191015D02*
X124194687Y-149595076D01*
X124396717Y-149393045D02*
X123689610Y-148685938D01*
X123723282Y-148854297D01*
X123723282Y-148988984D01*
X123689610Y-149090000D01*
X124127343Y-148248206D02*
X124598748Y-147776801D01*
X125002809Y-148786954D01*
X137642380Y-140014285D02*
X136642380Y-140014285D01*
X136642380Y-139776190D01*
X136690000Y-139633333D01*
X136785238Y-139538095D01*
X136880476Y-139490476D01*
X137070952Y-139442857D01*
X137213809Y-139442857D01*
X137404285Y-139490476D01*
X137499523Y-139538095D01*
X137594761Y-139633333D01*
X137642380Y-139776190D01*
X137642380Y-140014285D01*
X137642380Y-138490476D02*
X137642380Y-139061904D01*
X137642380Y-138776190D02*
X136642380Y-138776190D01*
X136785238Y-138871428D01*
X136880476Y-138966666D01*
X136928095Y-139061904D01*
X137070952Y-137919047D02*
X137023333Y-138014285D01*
X136975714Y-138061904D01*
X136880476Y-138109523D01*
X136832857Y-138109523D01*
X136737619Y-138061904D01*
X136690000Y-138014285D01*
X136642380Y-137919047D01*
X136642380Y-137728571D01*
X136690000Y-137633333D01*
X136737619Y-137585714D01*
X136832857Y-137538095D01*
X136880476Y-137538095D01*
X136975714Y-137585714D01*
X137023333Y-137633333D01*
X137070952Y-137728571D01*
X137070952Y-137919047D01*
X137118571Y-138014285D01*
X137166190Y-138061904D01*
X137261428Y-138109523D01*
X137451904Y-138109523D01*
X137547142Y-138061904D01*
X137594761Y-138014285D01*
X137642380Y-137919047D01*
X137642380Y-137728571D01*
X137594761Y-137633333D01*
X137547142Y-137585714D01*
X137451904Y-137538095D01*
X137261428Y-137538095D01*
X137166190Y-137585714D01*
X137118571Y-137633333D01*
X137070952Y-137728571D01*
M02*
