G04 #@! TF.GenerationSoftware,KiCad,Pcbnew,5.1.2*
G04 #@! TF.CreationDate,2019-06-04T19:46:48+02:00*
G04 #@! TF.ProjectId,ohren,6f687265-6e2e-46b6-9963-61645f706362,rev?*
G04 #@! TF.SameCoordinates,Original*
G04 #@! TF.FileFunction,Soldermask,Bot*
G04 #@! TF.FilePolarity,Negative*
%FSLAX46Y46*%
G04 Gerber Fmt 4.6, Leading zero omitted, Abs format (unit mm)*
G04 Created by KiCad (PCBNEW 5.1.2) date 2019-06-04 19:46:48*
%MOMM*%
%LPD*%
G04 APERTURE LIST*
%ADD10C,0.100000*%
G04 APERTURE END LIST*
D10*
G36*
X185000000Y-153000000D02*
G01*
X179000000Y-153000000D01*
X179000000Y-147000000D01*
X185000000Y-147000000D01*
X185000000Y-153000000D01*
G37*
X185000000Y-153000000D02*
X179000000Y-153000000D01*
X179000000Y-147000000D01*
X185000000Y-147000000D01*
X185000000Y-153000000D01*
G36*
X137500000Y-184500000D02*
G01*
X131500000Y-184500000D01*
X131500000Y-178500000D01*
X137500000Y-178500000D01*
X137500000Y-184500000D01*
G37*
X137500000Y-184500000D02*
X131500000Y-184500000D01*
X131500000Y-178500000D01*
X137500000Y-178500000D01*
X137500000Y-184500000D01*
G36*
X137500000Y-121000000D02*
G01*
X131500000Y-121000000D01*
X131500000Y-115000000D01*
X137500000Y-115000000D01*
X137500000Y-121000000D01*
G37*
X137500000Y-121000000D02*
X131500000Y-121000000D01*
X131500000Y-115000000D01*
X137500000Y-115000000D01*
X137500000Y-121000000D01*
G36*
X137500000Y-153000000D02*
G01*
X131500000Y-153000000D01*
X131500000Y-147000000D01*
X137500000Y-147000000D01*
X137500000Y-153000000D01*
G37*
X137500000Y-153000000D02*
X131500000Y-153000000D01*
X131500000Y-147000000D01*
X137500000Y-147000000D01*
X137500000Y-153000000D01*
G36*
X195375256Y-193391298D02*
G01*
X195481579Y-193412447D01*
X195782042Y-193536903D01*
X196052451Y-193717585D01*
X196282415Y-193947549D01*
X196463097Y-194217958D01*
X196545277Y-194416357D01*
X196587553Y-194518422D01*
X196651000Y-194837389D01*
X196651000Y-195162611D01*
X196611769Y-195359837D01*
X196587553Y-195481579D01*
X196463097Y-195782042D01*
X196282415Y-196052451D01*
X196052451Y-196282415D01*
X195782042Y-196463097D01*
X195481579Y-196587553D01*
X195375256Y-196608702D01*
X195162611Y-196651000D01*
X194837389Y-196651000D01*
X194624744Y-196608702D01*
X194518421Y-196587553D01*
X194217958Y-196463097D01*
X193947549Y-196282415D01*
X193717585Y-196052451D01*
X193536903Y-195782042D01*
X193412447Y-195481579D01*
X193388231Y-195359837D01*
X193349000Y-195162611D01*
X193349000Y-194837389D01*
X193412447Y-194518422D01*
X193454724Y-194416357D01*
X193536903Y-194217958D01*
X193717585Y-193947549D01*
X193947549Y-193717585D01*
X194217958Y-193536903D01*
X194518421Y-193412447D01*
X194624744Y-193391298D01*
X194837389Y-193349000D01*
X195162611Y-193349000D01*
X195375256Y-193391298D01*
X195375256Y-193391298D01*
G37*
G36*
X105375256Y-193391298D02*
G01*
X105481579Y-193412447D01*
X105782042Y-193536903D01*
X106052451Y-193717585D01*
X106282415Y-193947549D01*
X106463097Y-194217958D01*
X106545277Y-194416357D01*
X106587553Y-194518422D01*
X106651000Y-194837389D01*
X106651000Y-195162611D01*
X106611769Y-195359837D01*
X106587553Y-195481579D01*
X106463097Y-195782042D01*
X106282415Y-196052451D01*
X106052451Y-196282415D01*
X105782042Y-196463097D01*
X105481579Y-196587553D01*
X105375256Y-196608702D01*
X105162611Y-196651000D01*
X104837389Y-196651000D01*
X104624744Y-196608702D01*
X104518421Y-196587553D01*
X104217958Y-196463097D01*
X103947549Y-196282415D01*
X103717585Y-196052451D01*
X103536903Y-195782042D01*
X103412447Y-195481579D01*
X103388231Y-195359837D01*
X103349000Y-195162611D01*
X103349000Y-194837389D01*
X103412447Y-194518422D01*
X103454724Y-194416357D01*
X103536903Y-194217958D01*
X103717585Y-193947549D01*
X103947549Y-193717585D01*
X104217958Y-193536903D01*
X104518421Y-193412447D01*
X104624744Y-193391298D01*
X104837389Y-193349000D01*
X105162611Y-193349000D01*
X105375256Y-193391298D01*
X105375256Y-193391298D01*
G37*
G36*
X134558626Y-195906723D02*
G01*
X134558627Y-195906723D01*
X134558630Y-195906724D01*
X134595209Y-195921876D01*
X134628130Y-195943873D01*
X134656127Y-195971870D01*
X134678124Y-196004791D01*
X134693276Y-196041370D01*
X134701000Y-196080203D01*
X134701000Y-196119797D01*
X134693276Y-196158630D01*
X134678124Y-196195209D01*
X134656127Y-196228130D01*
X134628130Y-196256127D01*
X134595209Y-196278124D01*
X134558630Y-196293276D01*
X134558627Y-196293277D01*
X134558626Y-196293277D01*
X134519798Y-196301000D01*
X134480202Y-196301000D01*
X134441374Y-196293277D01*
X134441373Y-196293277D01*
X134441370Y-196293276D01*
X134404791Y-196278124D01*
X134371870Y-196256127D01*
X134343873Y-196228130D01*
X134321876Y-196195209D01*
X134306724Y-196158630D01*
X134299000Y-196119797D01*
X134299000Y-196080203D01*
X134306724Y-196041370D01*
X134321876Y-196004791D01*
X134343873Y-195971870D01*
X134371870Y-195943873D01*
X134404791Y-195921876D01*
X134441370Y-195906724D01*
X134441373Y-195906723D01*
X134441374Y-195906723D01*
X134480202Y-195899000D01*
X134519798Y-195899000D01*
X134558626Y-195906723D01*
X134558626Y-195906723D01*
G37*
G36*
X134733642Y-193879781D02*
G01*
X134879414Y-193940162D01*
X134879416Y-193940163D01*
X135010608Y-194027822D01*
X135122178Y-194139392D01*
X135174675Y-194217960D01*
X135209838Y-194270586D01*
X135270219Y-194416358D01*
X135301000Y-194571107D01*
X135301000Y-194728893D01*
X135270219Y-194883642D01*
X135209838Y-195029414D01*
X135209837Y-195029416D01*
X135122178Y-195160608D01*
X135010608Y-195272178D01*
X134879416Y-195359837D01*
X134879415Y-195359838D01*
X134879414Y-195359838D01*
X134733642Y-195420219D01*
X134578893Y-195451000D01*
X134421107Y-195451000D01*
X134266358Y-195420219D01*
X134120586Y-195359838D01*
X134120585Y-195359838D01*
X134120584Y-195359837D01*
X133989392Y-195272178D01*
X133877822Y-195160608D01*
X133790163Y-195029416D01*
X133790162Y-195029414D01*
X133729781Y-194883642D01*
X133699000Y-194728893D01*
X133699000Y-194571107D01*
X133729781Y-194416358D01*
X133790162Y-194270586D01*
X133825325Y-194217960D01*
X133877822Y-194139392D01*
X133989392Y-194027822D01*
X134120584Y-193940163D01*
X134120586Y-193940162D01*
X134266358Y-193879781D01*
X134421107Y-193849000D01*
X134578893Y-193849000D01*
X134733642Y-193879781D01*
X134733642Y-193879781D01*
G37*
G36*
X168768626Y-179306723D02*
G01*
X168768627Y-179306723D01*
X168768630Y-179306724D01*
X168805209Y-179321876D01*
X168805210Y-179321877D01*
X168805212Y-179321878D01*
X168840445Y-179345420D01*
X168862056Y-179356971D01*
X168876372Y-179361314D01*
X168877513Y-179372900D01*
X168884626Y-179396349D01*
X168888121Y-179404787D01*
X168888124Y-179404791D01*
X168903276Y-179441370D01*
X168911000Y-179480203D01*
X168911000Y-179519797D01*
X168903276Y-179558630D01*
X168888124Y-179595209D01*
X168866127Y-179628130D01*
X168838130Y-179656127D01*
X168805209Y-179678124D01*
X168768630Y-179693276D01*
X168768627Y-179693277D01*
X168768626Y-179693277D01*
X168729798Y-179701000D01*
X168690202Y-179701000D01*
X168651374Y-179693277D01*
X168651373Y-179693277D01*
X168651370Y-179693276D01*
X168614791Y-179678124D01*
X168581870Y-179656127D01*
X168553873Y-179628130D01*
X168531876Y-179595209D01*
X168516724Y-179558630D01*
X168509000Y-179519797D01*
X168509000Y-179480203D01*
X168516724Y-179441370D01*
X168531876Y-179404791D01*
X168553873Y-179371870D01*
X168581870Y-179343873D01*
X168614791Y-179321876D01*
X168651370Y-179306724D01*
X168651373Y-179306723D01*
X168651374Y-179306723D01*
X168690202Y-179299000D01*
X168729798Y-179299000D01*
X168768626Y-179306723D01*
X168768626Y-179306723D01*
G37*
G36*
X169258626Y-178896723D02*
G01*
X169258627Y-178896723D01*
X169258630Y-178896724D01*
X169295209Y-178911876D01*
X169295210Y-178911877D01*
X169295212Y-178911878D01*
X169332817Y-178937005D01*
X169354428Y-178948556D01*
X169373009Y-178954192D01*
X169372739Y-178956929D01*
X169375141Y-178981315D01*
X169382251Y-179004754D01*
X169393276Y-179031370D01*
X169401000Y-179070203D01*
X169401000Y-179109797D01*
X169393276Y-179148630D01*
X169378124Y-179185209D01*
X169356127Y-179218130D01*
X169328130Y-179246127D01*
X169295209Y-179268124D01*
X169258630Y-179283276D01*
X169258627Y-179283277D01*
X169258626Y-179283277D01*
X169219798Y-179291000D01*
X169180202Y-179291000D01*
X169141374Y-179283277D01*
X169141373Y-179283277D01*
X169141370Y-179283276D01*
X169104791Y-179268124D01*
X169071870Y-179246127D01*
X169071869Y-179246126D01*
X169069555Y-179244580D01*
X169047944Y-179233029D01*
X169033628Y-179228686D01*
X169032487Y-179217100D01*
X169025374Y-179193651D01*
X169021879Y-179185213D01*
X169021876Y-179185209D01*
X169006724Y-179148630D01*
X168999000Y-179109797D01*
X168999000Y-179070203D01*
X169006724Y-179031370D01*
X169021876Y-178994791D01*
X169043873Y-178961870D01*
X169071870Y-178933873D01*
X169104791Y-178911876D01*
X169141370Y-178896724D01*
X169141373Y-178896723D01*
X169141374Y-178896723D01*
X169180202Y-178889000D01*
X169219798Y-178889000D01*
X169258626Y-178896723D01*
X169258626Y-178896723D01*
G37*
G36*
X169758626Y-178506723D02*
G01*
X169758627Y-178506723D01*
X169758630Y-178506724D01*
X169795209Y-178521876D01*
X169828130Y-178543873D01*
X169856127Y-178571870D01*
X169878124Y-178604791D01*
X169893276Y-178641370D01*
X169901000Y-178680203D01*
X169901000Y-178719797D01*
X169893276Y-178758630D01*
X169878124Y-178795209D01*
X169856127Y-178828130D01*
X169828130Y-178856127D01*
X169795209Y-178878124D01*
X169758630Y-178893276D01*
X169758627Y-178893277D01*
X169758626Y-178893277D01*
X169719798Y-178901000D01*
X169680202Y-178901000D01*
X169641374Y-178893277D01*
X169641373Y-178893277D01*
X169641370Y-178893276D01*
X169604791Y-178878124D01*
X169571870Y-178856127D01*
X169571869Y-178856126D01*
X169567183Y-178852995D01*
X169545572Y-178841444D01*
X169526991Y-178835808D01*
X169527261Y-178833071D01*
X169524859Y-178808685D01*
X169517749Y-178785246D01*
X169506724Y-178758630D01*
X169499000Y-178719797D01*
X169499000Y-178680203D01*
X169506724Y-178641370D01*
X169521876Y-178604791D01*
X169543873Y-178571870D01*
X169571870Y-178543873D01*
X169604791Y-178521876D01*
X169641370Y-178506724D01*
X169641373Y-178506723D01*
X169641374Y-178506723D01*
X169680202Y-178499000D01*
X169719798Y-178499000D01*
X169758626Y-178506723D01*
X169758626Y-178506723D01*
G37*
G36*
X170714794Y-175070155D02*
G01*
X170821150Y-175091311D01*
X170921334Y-175132809D01*
X171021520Y-175174307D01*
X171201844Y-175294795D01*
X171355205Y-175448156D01*
X171475693Y-175628480D01*
X171558689Y-175828851D01*
X171601000Y-176041560D01*
X171601000Y-176258440D01*
X171558689Y-176471149D01*
X171475693Y-176671520D01*
X171355205Y-176851844D01*
X171201844Y-177005205D01*
X171021520Y-177125693D01*
X170821150Y-177208689D01*
X170714795Y-177229844D01*
X170608440Y-177251000D01*
X170391560Y-177251000D01*
X170285205Y-177229844D01*
X170178850Y-177208689D01*
X169978480Y-177125693D01*
X169798156Y-177005205D01*
X169644795Y-176851844D01*
X169524307Y-176671520D01*
X169441311Y-176471149D01*
X169399000Y-176258440D01*
X169399000Y-176041560D01*
X169441311Y-175828851D01*
X169524307Y-175628480D01*
X169644795Y-175448156D01*
X169798156Y-175294795D01*
X169978480Y-175174307D01*
X170178850Y-175091311D01*
X170285206Y-175070155D01*
X170391560Y-175049000D01*
X170608440Y-175049000D01*
X170714794Y-175070155D01*
X170714794Y-175070155D01*
G37*
G36*
X142621000Y-175861000D02*
G01*
X140119000Y-175861000D01*
X140119000Y-172709000D01*
X142621000Y-172709000D01*
X142621000Y-175861000D01*
X142621000Y-175861000D01*
G37*
G36*
X128811000Y-175861000D02*
G01*
X126309000Y-175861000D01*
X126309000Y-172709000D01*
X128811000Y-172709000D01*
X128811000Y-175861000D01*
X128811000Y-175861000D01*
G37*
G36*
X139211000Y-172811000D02*
G01*
X129809000Y-172811000D01*
X129809000Y-171909000D01*
X139211000Y-171909000D01*
X139211000Y-172811000D01*
X139211000Y-172811000D01*
G37*
G36*
X160864794Y-168970155D02*
G01*
X160971150Y-168991311D01*
X161171520Y-169074307D01*
X161351844Y-169194795D01*
X161505205Y-169348156D01*
X161625693Y-169528480D01*
X161625693Y-169528481D01*
X161687979Y-169678851D01*
X161708689Y-169728851D01*
X161751000Y-169941560D01*
X161751000Y-170158440D01*
X161708689Y-170371149D01*
X161625693Y-170571520D01*
X161505205Y-170751844D01*
X161351844Y-170905205D01*
X161171520Y-171025693D01*
X161091860Y-171058689D01*
X160971150Y-171108689D01*
X160864795Y-171129844D01*
X160758440Y-171151000D01*
X160541560Y-171151000D01*
X160435205Y-171129844D01*
X160328850Y-171108689D01*
X160208140Y-171058689D01*
X160128480Y-171025693D01*
X159948156Y-170905205D01*
X159794795Y-170751844D01*
X159674307Y-170571520D01*
X159591311Y-170371149D01*
X159549000Y-170158440D01*
X159549000Y-169941560D01*
X159591311Y-169728851D01*
X159612022Y-169678851D01*
X159674307Y-169528481D01*
X159674307Y-169528480D01*
X159794795Y-169348156D01*
X159948156Y-169194795D01*
X160128480Y-169074307D01*
X160328850Y-168991311D01*
X160435206Y-168970155D01*
X160541560Y-168949000D01*
X160758440Y-168949000D01*
X160864794Y-168970155D01*
X160864794Y-168970155D01*
G37*
G36*
X108564795Y-168920156D02*
G01*
X108671150Y-168941311D01*
X108871520Y-169024307D01*
X109051844Y-169144795D01*
X109205205Y-169298156D01*
X109325693Y-169478480D01*
X109346404Y-169528481D01*
X109408689Y-169678850D01*
X109451000Y-169891561D01*
X109451000Y-170108439D01*
X109408689Y-170321150D01*
X109387978Y-170371150D01*
X109325693Y-170521520D01*
X109205205Y-170701844D01*
X109051844Y-170855205D01*
X108871520Y-170975693D01*
X108771334Y-171017191D01*
X108671150Y-171058689D01*
X108564794Y-171079845D01*
X108458440Y-171101000D01*
X108241560Y-171101000D01*
X108135206Y-171079845D01*
X108028850Y-171058689D01*
X107928666Y-171017191D01*
X107828480Y-170975693D01*
X107648156Y-170855205D01*
X107494795Y-170701844D01*
X107374307Y-170521520D01*
X107312022Y-170371150D01*
X107291311Y-170321150D01*
X107249000Y-170108439D01*
X107249000Y-169891561D01*
X107291311Y-169678850D01*
X107353596Y-169528481D01*
X107374307Y-169478480D01*
X107494795Y-169298156D01*
X107648156Y-169144795D01*
X107828480Y-169024307D01*
X108028850Y-168941311D01*
X108135205Y-168920156D01*
X108241560Y-168899000D01*
X108458440Y-168899000D01*
X108564795Y-168920156D01*
X108564795Y-168920156D01*
G37*
G36*
X105858626Y-169006723D02*
G01*
X105858627Y-169006723D01*
X105858630Y-169006724D01*
X105895209Y-169021876D01*
X105928130Y-169043873D01*
X105956127Y-169071870D01*
X105978124Y-169104791D01*
X105993276Y-169141370D01*
X106001000Y-169180203D01*
X106001000Y-169219797D01*
X105993276Y-169258630D01*
X105978124Y-169295209D01*
X105956127Y-169328130D01*
X105928130Y-169356127D01*
X105895209Y-169378124D01*
X105858630Y-169393276D01*
X105858627Y-169393277D01*
X105858626Y-169393277D01*
X105819798Y-169401000D01*
X105780202Y-169401000D01*
X105741374Y-169393277D01*
X105741373Y-169393277D01*
X105741370Y-169393276D01*
X105704791Y-169378124D01*
X105671870Y-169356127D01*
X105643873Y-169328130D01*
X105621876Y-169295209D01*
X105606724Y-169258630D01*
X105599000Y-169219797D01*
X105599000Y-169180203D01*
X105606724Y-169141370D01*
X105621876Y-169104791D01*
X105643873Y-169071870D01*
X105643874Y-169071869D01*
X105647005Y-169067183D01*
X105658556Y-169045572D01*
X105664192Y-169026991D01*
X105666929Y-169027261D01*
X105691315Y-169024859D01*
X105714754Y-169017749D01*
X105741370Y-169006724D01*
X105741373Y-169006723D01*
X105741374Y-169006723D01*
X105780202Y-168999000D01*
X105819798Y-168999000D01*
X105858626Y-169006723D01*
X105858626Y-169006723D01*
G37*
G36*
X163258626Y-168996723D02*
G01*
X163258627Y-168996723D01*
X163258630Y-168996724D01*
X163295209Y-169011876D01*
X163295213Y-169011879D01*
X163303651Y-169015374D01*
X163327100Y-169022487D01*
X163338686Y-169023628D01*
X163343029Y-169037944D01*
X163354580Y-169059555D01*
X163356127Y-169061870D01*
X163378124Y-169094791D01*
X163393276Y-169131370D01*
X163401000Y-169170203D01*
X163401000Y-169209797D01*
X163393276Y-169248630D01*
X163378124Y-169285209D01*
X163356127Y-169318130D01*
X163328130Y-169346127D01*
X163295209Y-169368124D01*
X163258630Y-169383276D01*
X163258627Y-169383277D01*
X163258626Y-169383277D01*
X163219798Y-169391000D01*
X163180202Y-169391000D01*
X163141374Y-169383277D01*
X163141373Y-169383277D01*
X163141370Y-169383276D01*
X163104791Y-169368124D01*
X163071870Y-169346127D01*
X163043873Y-169318130D01*
X163021876Y-169285209D01*
X163006724Y-169248630D01*
X162999000Y-169209797D01*
X162999000Y-169170203D01*
X163006724Y-169131370D01*
X163021876Y-169094791D01*
X163043873Y-169061870D01*
X163071870Y-169033873D01*
X163104791Y-169011876D01*
X163141370Y-168996724D01*
X163141373Y-168996723D01*
X163141374Y-168996723D01*
X163180202Y-168989000D01*
X163219798Y-168989000D01*
X163258626Y-168996723D01*
X163258626Y-168996723D01*
G37*
G36*
X105468626Y-168506723D02*
G01*
X105468627Y-168506723D01*
X105468630Y-168506724D01*
X105505209Y-168521876D01*
X105538130Y-168543873D01*
X105566127Y-168571870D01*
X105588124Y-168604791D01*
X105603276Y-168641370D01*
X105611000Y-168680203D01*
X105611000Y-168719797D01*
X105603276Y-168758630D01*
X105588124Y-168795209D01*
X105588122Y-168795212D01*
X105562995Y-168832817D01*
X105551444Y-168854428D01*
X105545808Y-168873009D01*
X105543071Y-168872739D01*
X105518685Y-168875141D01*
X105495246Y-168882251D01*
X105468630Y-168893276D01*
X105468627Y-168893277D01*
X105468626Y-168893277D01*
X105429798Y-168901000D01*
X105390202Y-168901000D01*
X105351374Y-168893277D01*
X105351373Y-168893277D01*
X105351370Y-168893276D01*
X105314791Y-168878124D01*
X105281870Y-168856127D01*
X105253873Y-168828130D01*
X105231876Y-168795209D01*
X105216724Y-168758630D01*
X105209000Y-168719797D01*
X105209000Y-168680203D01*
X105216724Y-168641370D01*
X105231876Y-168604791D01*
X105253873Y-168571870D01*
X105255420Y-168569555D01*
X105266971Y-168547944D01*
X105271314Y-168533628D01*
X105282900Y-168532487D01*
X105306349Y-168525374D01*
X105314787Y-168521879D01*
X105314791Y-168521876D01*
X105351370Y-168506724D01*
X105351373Y-168506723D01*
X105351374Y-168506723D01*
X105390202Y-168499000D01*
X105429798Y-168499000D01*
X105468626Y-168506723D01*
X105468626Y-168506723D01*
G37*
G36*
X163668626Y-168506723D02*
G01*
X163668627Y-168506723D01*
X163668630Y-168506724D01*
X163695246Y-168517749D01*
X163718685Y-168524859D01*
X163743071Y-168527261D01*
X163745808Y-168526991D01*
X163751444Y-168545572D01*
X163762995Y-168567183D01*
X163766126Y-168571869D01*
X163766127Y-168571870D01*
X163788124Y-168604791D01*
X163803276Y-168641370D01*
X163811000Y-168680203D01*
X163811000Y-168719797D01*
X163803276Y-168758630D01*
X163788124Y-168795209D01*
X163766127Y-168828130D01*
X163738130Y-168856127D01*
X163705209Y-168878124D01*
X163668630Y-168893276D01*
X163668627Y-168893277D01*
X163668626Y-168893277D01*
X163629798Y-168901000D01*
X163590202Y-168901000D01*
X163551374Y-168893277D01*
X163551373Y-168893277D01*
X163551370Y-168893276D01*
X163514791Y-168878124D01*
X163514787Y-168878121D01*
X163506349Y-168874626D01*
X163482900Y-168867513D01*
X163471314Y-168866372D01*
X163466971Y-168852056D01*
X163455420Y-168830445D01*
X163431878Y-168795212D01*
X163431876Y-168795209D01*
X163416724Y-168758630D01*
X163409000Y-168719797D01*
X163409000Y-168680203D01*
X163416724Y-168641370D01*
X163431876Y-168604791D01*
X163453873Y-168571870D01*
X163481870Y-168543873D01*
X163514791Y-168521876D01*
X163551370Y-168506724D01*
X163551373Y-168506723D01*
X163551374Y-168506723D01*
X163590202Y-168499000D01*
X163629798Y-168499000D01*
X163668626Y-168506723D01*
X163668626Y-168506723D01*
G37*
G36*
X105058626Y-168016723D02*
G01*
X105058627Y-168016723D01*
X105058630Y-168016724D01*
X105095209Y-168031876D01*
X105128130Y-168053873D01*
X105156127Y-168081870D01*
X105178124Y-168114791D01*
X105193276Y-168151370D01*
X105201000Y-168190203D01*
X105201000Y-168229797D01*
X105193276Y-168268630D01*
X105178124Y-168305209D01*
X105178122Y-168305212D01*
X105154580Y-168340445D01*
X105143029Y-168362056D01*
X105138686Y-168376372D01*
X105127100Y-168377513D01*
X105103651Y-168384626D01*
X105095213Y-168388121D01*
X105095209Y-168388124D01*
X105058630Y-168403276D01*
X105058627Y-168403277D01*
X105058626Y-168403277D01*
X105019798Y-168411000D01*
X104980202Y-168411000D01*
X104941374Y-168403277D01*
X104941373Y-168403277D01*
X104941370Y-168403276D01*
X104904791Y-168388124D01*
X104871870Y-168366127D01*
X104843873Y-168338130D01*
X104821876Y-168305209D01*
X104806724Y-168268630D01*
X104799000Y-168229797D01*
X104799000Y-168190203D01*
X104806724Y-168151370D01*
X104821876Y-168114791D01*
X104843873Y-168081870D01*
X104871870Y-168053873D01*
X104904791Y-168031876D01*
X104941370Y-168016724D01*
X104941373Y-168016723D01*
X104941374Y-168016723D01*
X104980202Y-168009000D01*
X105019798Y-168009000D01*
X105058626Y-168016723D01*
X105058626Y-168016723D01*
G37*
G36*
X164058626Y-168006723D02*
G01*
X164058627Y-168006723D01*
X164058630Y-168006724D01*
X164095209Y-168021876D01*
X164128130Y-168043873D01*
X164156127Y-168071870D01*
X164178124Y-168104791D01*
X164193276Y-168141370D01*
X164201000Y-168180203D01*
X164201000Y-168219797D01*
X164193276Y-168258630D01*
X164178124Y-168295209D01*
X164156127Y-168328130D01*
X164128130Y-168356127D01*
X164095209Y-168378124D01*
X164058630Y-168393276D01*
X164058627Y-168393277D01*
X164058626Y-168393277D01*
X164019798Y-168401000D01*
X163980202Y-168401000D01*
X163941374Y-168393277D01*
X163941373Y-168393277D01*
X163941370Y-168393276D01*
X163914754Y-168382251D01*
X163891315Y-168375141D01*
X163866929Y-168372739D01*
X163864192Y-168373009D01*
X163858556Y-168354428D01*
X163847005Y-168332817D01*
X163821878Y-168295212D01*
X163821876Y-168295209D01*
X163806724Y-168258630D01*
X163799000Y-168219797D01*
X163799000Y-168180203D01*
X163806724Y-168141370D01*
X163821876Y-168104791D01*
X163843873Y-168071870D01*
X163871870Y-168043873D01*
X163904791Y-168021876D01*
X163941370Y-168006724D01*
X163941373Y-168006723D01*
X163941374Y-168006723D01*
X163980202Y-167999000D01*
X164019798Y-167999000D01*
X164058626Y-168006723D01*
X164058626Y-168006723D01*
G37*
G36*
X105058626Y-163106723D02*
G01*
X105058627Y-163106723D01*
X105058630Y-163106724D01*
X105085246Y-163117749D01*
X105108685Y-163124859D01*
X105133071Y-163127261D01*
X105135808Y-163126991D01*
X105141444Y-163145572D01*
X105152995Y-163167183D01*
X105156126Y-163171869D01*
X105156127Y-163171870D01*
X105178124Y-163204791D01*
X105193276Y-163241370D01*
X105201000Y-163280203D01*
X105201000Y-163319797D01*
X105193276Y-163358630D01*
X105178124Y-163395209D01*
X105156127Y-163428130D01*
X105128130Y-163456127D01*
X105095209Y-163478124D01*
X105058630Y-163493276D01*
X105058627Y-163493277D01*
X105058626Y-163493277D01*
X105019798Y-163501000D01*
X104980202Y-163501000D01*
X104941374Y-163493277D01*
X104941373Y-163493277D01*
X104941370Y-163493276D01*
X104904791Y-163478124D01*
X104871870Y-163456127D01*
X104843873Y-163428130D01*
X104821876Y-163395209D01*
X104806724Y-163358630D01*
X104799000Y-163319797D01*
X104799000Y-163280203D01*
X104806724Y-163241370D01*
X104821876Y-163204791D01*
X104843873Y-163171870D01*
X104871870Y-163143873D01*
X104904791Y-163121876D01*
X104941370Y-163106724D01*
X104941373Y-163106723D01*
X104941374Y-163106723D01*
X104980202Y-163099000D01*
X105019798Y-163099000D01*
X105058626Y-163106723D01*
X105058626Y-163106723D01*
G37*
G36*
X164058626Y-163096723D02*
G01*
X164058627Y-163096723D01*
X164058630Y-163096724D01*
X164095209Y-163111876D01*
X164128130Y-163133873D01*
X164156127Y-163161870D01*
X164178124Y-163194791D01*
X164193276Y-163231370D01*
X164201000Y-163270203D01*
X164201000Y-163309797D01*
X164193276Y-163348630D01*
X164178124Y-163385209D01*
X164156127Y-163418130D01*
X164128130Y-163446127D01*
X164095209Y-163468124D01*
X164058630Y-163483276D01*
X164058627Y-163483277D01*
X164058626Y-163483277D01*
X164019798Y-163491000D01*
X163980202Y-163491000D01*
X163941374Y-163483277D01*
X163941373Y-163483277D01*
X163941370Y-163483276D01*
X163904791Y-163468124D01*
X163871870Y-163446127D01*
X163843873Y-163418130D01*
X163821876Y-163385209D01*
X163806724Y-163348630D01*
X163799000Y-163309797D01*
X163799000Y-163270203D01*
X163806724Y-163231370D01*
X163821876Y-163194791D01*
X163843873Y-163161870D01*
X163845420Y-163159555D01*
X163856971Y-163137944D01*
X163861314Y-163123628D01*
X163872900Y-163122487D01*
X163896349Y-163115374D01*
X163904787Y-163111879D01*
X163904791Y-163111876D01*
X163941370Y-163096724D01*
X163941373Y-163096723D01*
X163941374Y-163096723D01*
X163980202Y-163089000D01*
X164019798Y-163089000D01*
X164058626Y-163096723D01*
X164058626Y-163096723D01*
G37*
G36*
X105448626Y-162606723D02*
G01*
X105448627Y-162606723D01*
X105448630Y-162606724D01*
X105485209Y-162621876D01*
X105485213Y-162621879D01*
X105493651Y-162625374D01*
X105517100Y-162632487D01*
X105528686Y-162633628D01*
X105533029Y-162647944D01*
X105544580Y-162669555D01*
X105546127Y-162671870D01*
X105568124Y-162704791D01*
X105583276Y-162741370D01*
X105591000Y-162780203D01*
X105591000Y-162819797D01*
X105583276Y-162858630D01*
X105568124Y-162895209D01*
X105546127Y-162928130D01*
X105518130Y-162956127D01*
X105485209Y-162978124D01*
X105448630Y-162993276D01*
X105448627Y-162993277D01*
X105448626Y-162993277D01*
X105409798Y-163001000D01*
X105370202Y-163001000D01*
X105331374Y-162993277D01*
X105331373Y-162993277D01*
X105331370Y-162993276D01*
X105304754Y-162982251D01*
X105281315Y-162975141D01*
X105256929Y-162972739D01*
X105254192Y-162973009D01*
X105248556Y-162954428D01*
X105237005Y-162932817D01*
X105211878Y-162895212D01*
X105211876Y-162895209D01*
X105196724Y-162858630D01*
X105189000Y-162819797D01*
X105189000Y-162780203D01*
X105196724Y-162741370D01*
X105211876Y-162704791D01*
X105233873Y-162671870D01*
X105261870Y-162643873D01*
X105294791Y-162621876D01*
X105331370Y-162606724D01*
X105331373Y-162606723D01*
X105331374Y-162606723D01*
X105370202Y-162599000D01*
X105409798Y-162599000D01*
X105448626Y-162606723D01*
X105448626Y-162606723D01*
G37*
G36*
X163648626Y-162606723D02*
G01*
X163648627Y-162606723D01*
X163648630Y-162606724D01*
X163685209Y-162621876D01*
X163718130Y-162643873D01*
X163746127Y-162671870D01*
X163768124Y-162704791D01*
X163783276Y-162741370D01*
X163791000Y-162780203D01*
X163791000Y-162819797D01*
X163783276Y-162858630D01*
X163768124Y-162895209D01*
X163768122Y-162895212D01*
X163744580Y-162930445D01*
X163733029Y-162952056D01*
X163728686Y-162966372D01*
X163717100Y-162967513D01*
X163693651Y-162974626D01*
X163685213Y-162978121D01*
X163685209Y-162978124D01*
X163648630Y-162993276D01*
X163648627Y-162993277D01*
X163648626Y-162993277D01*
X163609798Y-163001000D01*
X163570202Y-163001000D01*
X163531374Y-162993277D01*
X163531373Y-162993277D01*
X163531370Y-162993276D01*
X163494791Y-162978124D01*
X163461870Y-162956127D01*
X163433873Y-162928130D01*
X163411876Y-162895209D01*
X163396724Y-162858630D01*
X163389000Y-162819797D01*
X163389000Y-162780203D01*
X163396724Y-162741370D01*
X163411876Y-162704791D01*
X163433873Y-162671870D01*
X163433874Y-162671869D01*
X163437005Y-162667183D01*
X163448556Y-162645572D01*
X163454192Y-162626991D01*
X163456929Y-162627261D01*
X163481315Y-162624859D01*
X163504754Y-162617749D01*
X163531370Y-162606724D01*
X163531373Y-162606723D01*
X163531374Y-162606723D01*
X163570202Y-162599000D01*
X163609798Y-162599000D01*
X163648626Y-162606723D01*
X163648626Y-162606723D01*
G37*
G36*
X160864794Y-160420155D02*
G01*
X160971150Y-160441311D01*
X161050809Y-160474307D01*
X161171520Y-160524307D01*
X161351844Y-160644795D01*
X161505205Y-160798156D01*
X161625693Y-160978480D01*
X161625693Y-160978481D01*
X161687979Y-161128851D01*
X161708689Y-161178851D01*
X161751000Y-161391560D01*
X161751000Y-161608440D01*
X161708689Y-161821149D01*
X161625693Y-162021520D01*
X161505205Y-162201844D01*
X161351844Y-162355205D01*
X161171520Y-162475693D01*
X161129068Y-162493277D01*
X160971150Y-162558689D01*
X160864795Y-162579844D01*
X160758440Y-162601000D01*
X160541560Y-162601000D01*
X160435205Y-162579844D01*
X160328850Y-162558689D01*
X160170932Y-162493277D01*
X160128480Y-162475693D01*
X159948156Y-162355205D01*
X159794795Y-162201844D01*
X159674307Y-162021520D01*
X159591311Y-161821149D01*
X159549000Y-161608440D01*
X159549000Y-161391560D01*
X159591311Y-161178851D01*
X159612022Y-161128851D01*
X159674307Y-160978481D01*
X159674307Y-160978480D01*
X159794795Y-160798156D01*
X159948156Y-160644795D01*
X160128480Y-160524307D01*
X160249191Y-160474307D01*
X160328850Y-160441311D01*
X160435206Y-160420155D01*
X160541560Y-160399000D01*
X160758440Y-160399000D01*
X160864794Y-160420155D01*
X160864794Y-160420155D01*
G37*
G36*
X108564794Y-160370155D02*
G01*
X108671150Y-160391311D01*
X108871520Y-160474307D01*
X109051844Y-160594795D01*
X109205205Y-160748156D01*
X109325693Y-160928480D01*
X109346404Y-160978481D01*
X109408689Y-161128850D01*
X109451000Y-161341561D01*
X109451000Y-161558439D01*
X109408689Y-161771150D01*
X109387978Y-161821150D01*
X109325693Y-161971520D01*
X109205205Y-162151844D01*
X109051844Y-162305205D01*
X108871520Y-162425693D01*
X108773906Y-162466126D01*
X108671150Y-162508689D01*
X108564795Y-162529844D01*
X108458440Y-162551000D01*
X108241560Y-162551000D01*
X108135205Y-162529844D01*
X108028850Y-162508689D01*
X107926094Y-162466126D01*
X107828480Y-162425693D01*
X107648156Y-162305205D01*
X107494795Y-162151844D01*
X107374307Y-161971520D01*
X107312022Y-161821150D01*
X107291311Y-161771150D01*
X107249000Y-161558439D01*
X107249000Y-161341561D01*
X107291311Y-161128850D01*
X107353596Y-160978481D01*
X107374307Y-160928480D01*
X107494795Y-160748156D01*
X107648156Y-160594795D01*
X107828480Y-160474307D01*
X108028850Y-160391311D01*
X108135206Y-160370155D01*
X108241560Y-160349000D01*
X108458440Y-160349000D01*
X108564794Y-160370155D01*
X108564794Y-160370155D01*
G37*
G36*
X105858626Y-162116723D02*
G01*
X105858627Y-162116723D01*
X105858630Y-162116724D01*
X105895209Y-162131876D01*
X105928130Y-162153873D01*
X105956127Y-162181870D01*
X105978124Y-162214791D01*
X105993276Y-162251370D01*
X106001000Y-162290203D01*
X106001000Y-162329797D01*
X105993276Y-162368630D01*
X105978124Y-162405209D01*
X105956127Y-162438130D01*
X105928130Y-162466127D01*
X105895209Y-162488124D01*
X105858630Y-162503276D01*
X105858627Y-162503277D01*
X105858626Y-162503277D01*
X105819798Y-162511000D01*
X105780202Y-162511000D01*
X105741374Y-162503277D01*
X105741373Y-162503277D01*
X105741370Y-162503276D01*
X105704791Y-162488124D01*
X105704787Y-162488121D01*
X105696349Y-162484626D01*
X105672900Y-162477513D01*
X105661314Y-162476372D01*
X105656971Y-162462056D01*
X105645420Y-162440445D01*
X105621878Y-162405212D01*
X105621876Y-162405209D01*
X105606724Y-162368630D01*
X105599000Y-162329797D01*
X105599000Y-162290203D01*
X105606724Y-162251370D01*
X105621876Y-162214791D01*
X105643873Y-162181870D01*
X105671870Y-162153873D01*
X105704791Y-162131876D01*
X105741370Y-162116724D01*
X105741373Y-162116723D01*
X105741374Y-162116723D01*
X105780202Y-162109000D01*
X105819798Y-162109000D01*
X105858626Y-162116723D01*
X105858626Y-162116723D01*
G37*
G36*
X163258626Y-162106723D02*
G01*
X163258627Y-162106723D01*
X163258630Y-162106724D01*
X163295209Y-162121876D01*
X163328130Y-162143873D01*
X163356127Y-162171870D01*
X163378124Y-162204791D01*
X163393276Y-162241370D01*
X163401000Y-162280203D01*
X163401000Y-162319797D01*
X163393276Y-162358630D01*
X163378124Y-162395209D01*
X163378122Y-162395212D01*
X163352995Y-162432817D01*
X163341444Y-162454428D01*
X163335808Y-162473009D01*
X163333071Y-162472739D01*
X163308685Y-162475141D01*
X163285246Y-162482251D01*
X163258630Y-162493276D01*
X163258627Y-162493277D01*
X163258626Y-162493277D01*
X163219798Y-162501000D01*
X163180202Y-162501000D01*
X163141374Y-162493277D01*
X163141373Y-162493277D01*
X163141370Y-162493276D01*
X163104791Y-162478124D01*
X163071870Y-162456127D01*
X163043873Y-162428130D01*
X163021876Y-162395209D01*
X163006724Y-162358630D01*
X162999000Y-162319797D01*
X162999000Y-162280203D01*
X163006724Y-162241370D01*
X163021876Y-162204791D01*
X163043873Y-162171870D01*
X163071870Y-162143873D01*
X163104791Y-162121876D01*
X163141370Y-162106724D01*
X163141373Y-162106723D01*
X163141374Y-162106723D01*
X163180202Y-162099000D01*
X163219798Y-162099000D01*
X163258626Y-162106723D01*
X163258626Y-162106723D01*
G37*
G36*
X139191000Y-159591000D02*
G01*
X129789000Y-159591000D01*
X129789000Y-158689000D01*
X139191000Y-158689000D01*
X139191000Y-159591000D01*
X139191000Y-159591000D01*
G37*
G36*
X128881000Y-158791000D02*
G01*
X126379000Y-158791000D01*
X126379000Y-155639000D01*
X128881000Y-155639000D01*
X128881000Y-158791000D01*
X128881000Y-158791000D01*
G37*
G36*
X142691000Y-158791000D02*
G01*
X140189000Y-158791000D01*
X140189000Y-155639000D01*
X142691000Y-155639000D01*
X142691000Y-158791000D01*
X142691000Y-158791000D01*
G37*
G36*
X176361000Y-158191000D02*
G01*
X173209000Y-158191000D01*
X173209000Y-155689000D01*
X176361000Y-155689000D01*
X176361000Y-158191000D01*
X176361000Y-158191000D01*
G37*
G36*
X173311000Y-154691000D02*
G01*
X172409000Y-154691000D01*
X172409000Y-145289000D01*
X173311000Y-145289000D01*
X173311000Y-154691000D01*
X173311000Y-154691000D01*
G37*
G36*
X195383642Y-149229781D02*
G01*
X195529414Y-149290162D01*
X195529416Y-149290163D01*
X195660608Y-149377822D01*
X195772178Y-149489392D01*
X195859837Y-149620584D01*
X195859838Y-149620586D01*
X195920219Y-149766358D01*
X195951000Y-149921107D01*
X195951000Y-150078893D01*
X195920219Y-150233642D01*
X195859838Y-150379414D01*
X195859837Y-150379416D01*
X195772178Y-150510608D01*
X195660608Y-150622178D01*
X195529416Y-150709837D01*
X195529415Y-150709838D01*
X195529414Y-150709838D01*
X195383642Y-150770219D01*
X195228893Y-150801000D01*
X195071107Y-150801000D01*
X194916358Y-150770219D01*
X194770586Y-150709838D01*
X194770585Y-150709838D01*
X194770584Y-150709837D01*
X194639392Y-150622178D01*
X194527822Y-150510608D01*
X194440163Y-150379416D01*
X194440162Y-150379414D01*
X194379781Y-150233642D01*
X194349000Y-150078893D01*
X194349000Y-149921107D01*
X194379781Y-149766358D01*
X194440162Y-149620586D01*
X194440163Y-149620584D01*
X194527822Y-149489392D01*
X194639392Y-149377822D01*
X194770584Y-149290163D01*
X194770586Y-149290162D01*
X194916358Y-149229781D01*
X195071107Y-149199000D01*
X195228893Y-149199000D01*
X195383642Y-149229781D01*
X195383642Y-149229781D01*
G37*
G36*
X196658626Y-149806723D02*
G01*
X196658627Y-149806723D01*
X196658630Y-149806724D01*
X196695209Y-149821876D01*
X196728130Y-149843873D01*
X196756127Y-149871870D01*
X196778124Y-149904791D01*
X196793276Y-149941370D01*
X196801000Y-149980203D01*
X196801000Y-150019797D01*
X196793276Y-150058630D01*
X196778124Y-150095209D01*
X196756127Y-150128130D01*
X196728130Y-150156127D01*
X196695209Y-150178124D01*
X196658630Y-150193276D01*
X196658627Y-150193277D01*
X196658626Y-150193277D01*
X196619798Y-150201000D01*
X196580202Y-150201000D01*
X196541374Y-150193277D01*
X196541373Y-150193277D01*
X196541370Y-150193276D01*
X196504791Y-150178124D01*
X196471870Y-150156127D01*
X196443873Y-150128130D01*
X196421876Y-150095209D01*
X196406724Y-150058630D01*
X196399000Y-150019797D01*
X196399000Y-149980203D01*
X196406724Y-149941370D01*
X196421876Y-149904791D01*
X196443873Y-149871870D01*
X196471870Y-149843873D01*
X196504791Y-149821876D01*
X196541370Y-149806724D01*
X196541373Y-149806723D01*
X196541374Y-149806723D01*
X196580202Y-149799000D01*
X196619798Y-149799000D01*
X196658626Y-149806723D01*
X196658626Y-149806723D01*
G37*
G36*
X176361000Y-144381000D02*
G01*
X173209000Y-144381000D01*
X173209000Y-141879000D01*
X176361000Y-141879000D01*
X176361000Y-144381000D01*
X176361000Y-144381000D01*
G37*
G36*
X160375256Y-138391298D02*
G01*
X160481579Y-138412447D01*
X160782042Y-138536903D01*
X161052451Y-138717585D01*
X161282415Y-138947549D01*
X161463097Y-139217958D01*
X161587553Y-139518421D01*
X161651000Y-139837391D01*
X161651000Y-140162609D01*
X161587553Y-140481579D01*
X161463097Y-140782042D01*
X161282415Y-141052451D01*
X161052451Y-141282415D01*
X160782042Y-141463097D01*
X160481579Y-141587553D01*
X160375256Y-141608702D01*
X160162611Y-141651000D01*
X159837389Y-141651000D01*
X159624744Y-141608702D01*
X159518421Y-141587553D01*
X159217958Y-141463097D01*
X158947549Y-141282415D01*
X158717585Y-141052451D01*
X158536903Y-140782042D01*
X158412447Y-140481579D01*
X158349000Y-140162609D01*
X158349000Y-139837391D01*
X158412447Y-139518421D01*
X158536903Y-139217958D01*
X158717585Y-138947549D01*
X158947549Y-138717585D01*
X159217958Y-138536903D01*
X159518421Y-138412447D01*
X159624744Y-138391298D01*
X159837389Y-138349000D01*
X160162611Y-138349000D01*
X160375256Y-138391298D01*
X160375256Y-138391298D01*
G37*
G36*
X134733642Y-136079781D02*
G01*
X134879414Y-136140162D01*
X134879416Y-136140163D01*
X135010608Y-136227822D01*
X135122178Y-136339392D01*
X135209837Y-136470584D01*
X135209838Y-136470586D01*
X135270219Y-136616358D01*
X135301000Y-136771107D01*
X135301000Y-136928893D01*
X135270219Y-137083642D01*
X135209838Y-137229414D01*
X135209837Y-137229416D01*
X135122178Y-137360608D01*
X135010608Y-137472178D01*
X134879416Y-137559837D01*
X134879415Y-137559838D01*
X134879414Y-137559838D01*
X134733642Y-137620219D01*
X134578893Y-137651000D01*
X134421107Y-137651000D01*
X134266358Y-137620219D01*
X134120586Y-137559838D01*
X134120585Y-137559838D01*
X134120584Y-137559837D01*
X133989392Y-137472178D01*
X133877822Y-137360608D01*
X133790163Y-137229416D01*
X133790162Y-137229414D01*
X133729781Y-137083642D01*
X133699000Y-136928893D01*
X133699000Y-136771107D01*
X133729781Y-136616358D01*
X133790162Y-136470586D01*
X133790163Y-136470584D01*
X133877822Y-136339392D01*
X133989392Y-136227822D01*
X134120584Y-136140163D01*
X134120586Y-136140162D01*
X134266358Y-136079781D01*
X134421107Y-136049000D01*
X134578893Y-136049000D01*
X134733642Y-136079781D01*
X134733642Y-136079781D01*
G37*
G36*
X134558626Y-135206723D02*
G01*
X134558627Y-135206723D01*
X134558630Y-135206724D01*
X134595209Y-135221876D01*
X134628130Y-135243873D01*
X134656127Y-135271870D01*
X134678124Y-135304791D01*
X134693276Y-135341370D01*
X134701000Y-135380203D01*
X134701000Y-135419797D01*
X134693276Y-135458630D01*
X134678124Y-135495209D01*
X134656127Y-135528130D01*
X134628130Y-135556127D01*
X134595209Y-135578124D01*
X134558630Y-135593276D01*
X134558627Y-135593277D01*
X134558626Y-135593277D01*
X134519798Y-135601000D01*
X134480202Y-135601000D01*
X134441374Y-135593277D01*
X134441373Y-135593277D01*
X134441370Y-135593276D01*
X134404791Y-135578124D01*
X134371870Y-135556127D01*
X134343873Y-135528130D01*
X134321876Y-135495209D01*
X134306724Y-135458630D01*
X134299000Y-135419797D01*
X134299000Y-135380203D01*
X134306724Y-135341370D01*
X134321876Y-135304791D01*
X134343873Y-135271870D01*
X134371870Y-135243873D01*
X134404791Y-135221876D01*
X134441370Y-135206724D01*
X134441373Y-135206723D01*
X134441374Y-135206723D01*
X134480202Y-135199000D01*
X134519798Y-135199000D01*
X134558626Y-135206723D01*
X134558626Y-135206723D01*
G37*
G36*
X105058626Y-131106723D02*
G01*
X105058627Y-131106723D01*
X105058630Y-131106724D01*
X105085246Y-131117749D01*
X105108685Y-131124859D01*
X105133071Y-131127261D01*
X105135808Y-131126991D01*
X105141444Y-131145572D01*
X105152995Y-131167183D01*
X105156126Y-131171869D01*
X105156127Y-131171870D01*
X105178124Y-131204791D01*
X105193276Y-131241370D01*
X105201000Y-131280203D01*
X105201000Y-131319797D01*
X105193276Y-131358630D01*
X105178124Y-131395209D01*
X105156127Y-131428130D01*
X105128130Y-131456127D01*
X105095209Y-131478124D01*
X105058630Y-131493276D01*
X105058627Y-131493277D01*
X105058626Y-131493277D01*
X105019798Y-131501000D01*
X104980202Y-131501000D01*
X104941374Y-131493277D01*
X104941373Y-131493277D01*
X104941370Y-131493276D01*
X104904791Y-131478124D01*
X104871870Y-131456127D01*
X104843873Y-131428130D01*
X104821876Y-131395209D01*
X104806724Y-131358630D01*
X104799000Y-131319797D01*
X104799000Y-131280203D01*
X104806724Y-131241370D01*
X104821876Y-131204791D01*
X104843873Y-131171870D01*
X104871870Y-131143873D01*
X104904791Y-131121876D01*
X104941370Y-131106724D01*
X104941373Y-131106723D01*
X104941374Y-131106723D01*
X104980202Y-131099000D01*
X105019798Y-131099000D01*
X105058626Y-131106723D01*
X105058626Y-131106723D01*
G37*
G36*
X164058626Y-131096723D02*
G01*
X164058627Y-131096723D01*
X164058630Y-131096724D01*
X164095209Y-131111876D01*
X164128130Y-131133873D01*
X164156127Y-131161870D01*
X164178124Y-131194791D01*
X164193276Y-131231370D01*
X164201000Y-131270203D01*
X164201000Y-131309797D01*
X164193276Y-131348630D01*
X164178124Y-131385209D01*
X164156127Y-131418130D01*
X164128130Y-131446127D01*
X164095209Y-131468124D01*
X164058630Y-131483276D01*
X164058627Y-131483277D01*
X164058626Y-131483277D01*
X164019798Y-131491000D01*
X163980202Y-131491000D01*
X163941374Y-131483277D01*
X163941373Y-131483277D01*
X163941370Y-131483276D01*
X163904791Y-131468124D01*
X163871870Y-131446127D01*
X163843873Y-131418130D01*
X163821876Y-131385209D01*
X163806724Y-131348630D01*
X163799000Y-131309797D01*
X163799000Y-131270203D01*
X163806724Y-131231370D01*
X163821876Y-131194791D01*
X163843873Y-131161870D01*
X163845420Y-131159555D01*
X163856971Y-131137944D01*
X163861314Y-131123628D01*
X163872900Y-131122487D01*
X163896349Y-131115374D01*
X163904787Y-131111879D01*
X163904791Y-131111876D01*
X163941370Y-131096724D01*
X163941373Y-131096723D01*
X163941374Y-131096723D01*
X163980202Y-131089000D01*
X164019798Y-131089000D01*
X164058626Y-131096723D01*
X164058626Y-131096723D01*
G37*
G36*
X105448626Y-130606723D02*
G01*
X105448627Y-130606723D01*
X105448630Y-130606724D01*
X105485209Y-130621876D01*
X105485213Y-130621879D01*
X105493651Y-130625374D01*
X105517100Y-130632487D01*
X105528686Y-130633628D01*
X105533029Y-130647944D01*
X105544580Y-130669555D01*
X105546127Y-130671870D01*
X105568124Y-130704791D01*
X105583276Y-130741370D01*
X105591000Y-130780203D01*
X105591000Y-130819797D01*
X105583276Y-130858630D01*
X105568124Y-130895209D01*
X105546127Y-130928130D01*
X105518130Y-130956127D01*
X105485209Y-130978124D01*
X105448630Y-130993276D01*
X105448627Y-130993277D01*
X105448626Y-130993277D01*
X105409798Y-131001000D01*
X105370202Y-131001000D01*
X105331374Y-130993277D01*
X105331373Y-130993277D01*
X105331370Y-130993276D01*
X105304754Y-130982251D01*
X105281315Y-130975141D01*
X105256929Y-130972739D01*
X105254192Y-130973009D01*
X105248556Y-130954428D01*
X105237005Y-130932817D01*
X105211878Y-130895212D01*
X105211876Y-130895209D01*
X105196724Y-130858630D01*
X105189000Y-130819797D01*
X105189000Y-130780203D01*
X105196724Y-130741370D01*
X105211876Y-130704791D01*
X105233873Y-130671870D01*
X105261870Y-130643873D01*
X105294791Y-130621876D01*
X105331370Y-130606724D01*
X105331373Y-130606723D01*
X105331374Y-130606723D01*
X105370202Y-130599000D01*
X105409798Y-130599000D01*
X105448626Y-130606723D01*
X105448626Y-130606723D01*
G37*
G36*
X163648626Y-130606723D02*
G01*
X163648627Y-130606723D01*
X163648630Y-130606724D01*
X163685209Y-130621876D01*
X163718130Y-130643873D01*
X163746127Y-130671870D01*
X163768124Y-130704791D01*
X163783276Y-130741370D01*
X163791000Y-130780203D01*
X163791000Y-130819797D01*
X163783276Y-130858630D01*
X163768124Y-130895209D01*
X163768122Y-130895212D01*
X163744580Y-130930445D01*
X163733029Y-130952056D01*
X163728686Y-130966372D01*
X163717100Y-130967513D01*
X163693651Y-130974626D01*
X163685213Y-130978121D01*
X163685209Y-130978124D01*
X163648630Y-130993276D01*
X163648627Y-130993277D01*
X163648626Y-130993277D01*
X163609798Y-131001000D01*
X163570202Y-131001000D01*
X163531374Y-130993277D01*
X163531373Y-130993277D01*
X163531370Y-130993276D01*
X163494791Y-130978124D01*
X163461870Y-130956127D01*
X163433873Y-130928130D01*
X163411876Y-130895209D01*
X163396724Y-130858630D01*
X163389000Y-130819797D01*
X163389000Y-130780203D01*
X163396724Y-130741370D01*
X163411876Y-130704791D01*
X163433873Y-130671870D01*
X163433874Y-130671869D01*
X163437005Y-130667183D01*
X163448556Y-130645572D01*
X163454192Y-130626991D01*
X163456929Y-130627261D01*
X163481315Y-130624859D01*
X163504754Y-130617749D01*
X163531370Y-130606724D01*
X163531373Y-130606723D01*
X163531374Y-130606723D01*
X163570202Y-130599000D01*
X163609798Y-130599000D01*
X163648626Y-130606723D01*
X163648626Y-130606723D01*
G37*
G36*
X160864795Y-128420156D02*
G01*
X160971150Y-128441311D01*
X161050809Y-128474307D01*
X161171520Y-128524307D01*
X161351844Y-128644795D01*
X161505205Y-128798156D01*
X161625693Y-128978480D01*
X161625693Y-128978481D01*
X161687979Y-129128851D01*
X161708689Y-129178851D01*
X161751000Y-129391560D01*
X161751000Y-129608440D01*
X161708689Y-129821149D01*
X161625693Y-130021520D01*
X161505205Y-130201844D01*
X161351844Y-130355205D01*
X161171520Y-130475693D01*
X161129068Y-130493277D01*
X160971150Y-130558689D01*
X160864794Y-130579845D01*
X160758440Y-130601000D01*
X160541560Y-130601000D01*
X160435206Y-130579845D01*
X160328850Y-130558689D01*
X160170932Y-130493277D01*
X160128480Y-130475693D01*
X159948156Y-130355205D01*
X159794795Y-130201844D01*
X159674307Y-130021520D01*
X159591311Y-129821149D01*
X159549000Y-129608440D01*
X159549000Y-129391560D01*
X159591311Y-129178851D01*
X159612022Y-129128851D01*
X159674307Y-128978481D01*
X159674307Y-128978480D01*
X159794795Y-128798156D01*
X159948156Y-128644795D01*
X160128480Y-128524307D01*
X160249191Y-128474307D01*
X160328850Y-128441311D01*
X160435205Y-128420156D01*
X160541560Y-128399000D01*
X160758440Y-128399000D01*
X160864795Y-128420156D01*
X160864795Y-128420156D01*
G37*
G36*
X108564795Y-128370156D02*
G01*
X108671150Y-128391311D01*
X108771334Y-128432809D01*
X108871520Y-128474307D01*
X109051844Y-128594795D01*
X109205205Y-128748156D01*
X109325693Y-128928480D01*
X109346404Y-128978481D01*
X109408689Y-129128850D01*
X109451000Y-129341561D01*
X109451000Y-129558439D01*
X109408689Y-129771150D01*
X109387978Y-129821150D01*
X109325693Y-129971520D01*
X109205205Y-130151844D01*
X109051844Y-130305205D01*
X108871520Y-130425693D01*
X108773906Y-130466126D01*
X108671150Y-130508689D01*
X108564794Y-130529845D01*
X108458440Y-130551000D01*
X108241560Y-130551000D01*
X108135206Y-130529845D01*
X108028850Y-130508689D01*
X107926094Y-130466126D01*
X107828480Y-130425693D01*
X107648156Y-130305205D01*
X107494795Y-130151844D01*
X107374307Y-129971520D01*
X107312022Y-129821150D01*
X107291311Y-129771150D01*
X107249000Y-129558439D01*
X107249000Y-129341561D01*
X107291311Y-129128850D01*
X107353596Y-128978481D01*
X107374307Y-128928480D01*
X107494795Y-128748156D01*
X107648156Y-128594795D01*
X107828480Y-128474307D01*
X107928666Y-128432809D01*
X108028850Y-128391311D01*
X108135205Y-128370156D01*
X108241560Y-128349000D01*
X108458440Y-128349000D01*
X108564795Y-128370156D01*
X108564795Y-128370156D01*
G37*
G36*
X105858626Y-130116723D02*
G01*
X105858627Y-130116723D01*
X105858630Y-130116724D01*
X105895209Y-130131876D01*
X105928130Y-130153873D01*
X105956127Y-130181870D01*
X105978124Y-130214791D01*
X105993276Y-130251370D01*
X106001000Y-130290203D01*
X106001000Y-130329797D01*
X105993276Y-130368630D01*
X105978124Y-130405209D01*
X105956127Y-130438130D01*
X105928130Y-130466127D01*
X105895209Y-130488124D01*
X105858630Y-130503276D01*
X105858627Y-130503277D01*
X105858626Y-130503277D01*
X105819798Y-130511000D01*
X105780202Y-130511000D01*
X105741374Y-130503277D01*
X105741373Y-130503277D01*
X105741370Y-130503276D01*
X105704791Y-130488124D01*
X105704787Y-130488121D01*
X105696349Y-130484626D01*
X105672900Y-130477513D01*
X105661314Y-130476372D01*
X105656971Y-130462056D01*
X105645420Y-130440445D01*
X105621878Y-130405212D01*
X105621876Y-130405209D01*
X105606724Y-130368630D01*
X105599000Y-130329797D01*
X105599000Y-130290203D01*
X105606724Y-130251370D01*
X105621876Y-130214791D01*
X105643873Y-130181870D01*
X105671870Y-130153873D01*
X105704791Y-130131876D01*
X105741370Y-130116724D01*
X105741373Y-130116723D01*
X105741374Y-130116723D01*
X105780202Y-130109000D01*
X105819798Y-130109000D01*
X105858626Y-130116723D01*
X105858626Y-130116723D01*
G37*
G36*
X163258626Y-130106723D02*
G01*
X163258627Y-130106723D01*
X163258630Y-130106724D01*
X163295209Y-130121876D01*
X163328130Y-130143873D01*
X163356127Y-130171870D01*
X163378124Y-130204791D01*
X163393276Y-130241370D01*
X163401000Y-130280203D01*
X163401000Y-130319797D01*
X163393276Y-130358630D01*
X163378124Y-130395209D01*
X163378122Y-130395212D01*
X163352995Y-130432817D01*
X163341444Y-130454428D01*
X163335808Y-130473009D01*
X163333071Y-130472739D01*
X163308685Y-130475141D01*
X163285246Y-130482251D01*
X163258630Y-130493276D01*
X163258627Y-130493277D01*
X163258626Y-130493277D01*
X163219798Y-130501000D01*
X163180202Y-130501000D01*
X163141374Y-130493277D01*
X163141373Y-130493277D01*
X163141370Y-130493276D01*
X163104791Y-130478124D01*
X163071870Y-130456127D01*
X163043873Y-130428130D01*
X163021876Y-130395209D01*
X163006724Y-130358630D01*
X162999000Y-130319797D01*
X162999000Y-130280203D01*
X163006724Y-130241370D01*
X163021876Y-130204791D01*
X163043873Y-130171870D01*
X163071870Y-130143873D01*
X163104791Y-130121876D01*
X163141370Y-130106724D01*
X163141373Y-130106723D01*
X163141374Y-130106723D01*
X163180202Y-130099000D01*
X163219798Y-130099000D01*
X163258626Y-130106723D01*
X163258626Y-130106723D01*
G37*
G36*
X139191000Y-127591000D02*
G01*
X129789000Y-127591000D01*
X129789000Y-126689000D01*
X139191000Y-126689000D01*
X139191000Y-127591000D01*
X139191000Y-127591000D01*
G37*
G36*
X128881000Y-126791000D02*
G01*
X126379000Y-126791000D01*
X126379000Y-123639000D01*
X128881000Y-123639000D01*
X128881000Y-126791000D01*
X128881000Y-126791000D01*
G37*
G36*
X142691000Y-126791000D02*
G01*
X140189000Y-126791000D01*
X140189000Y-123639000D01*
X142691000Y-123639000D01*
X142691000Y-126791000D01*
X142691000Y-126791000D01*
G37*
G36*
X170764795Y-122770156D02*
G01*
X170871150Y-122791311D01*
X170971334Y-122832809D01*
X171071520Y-122874307D01*
X171251844Y-122994795D01*
X171405205Y-123148156D01*
X171525693Y-123328480D01*
X171608689Y-123528851D01*
X171651000Y-123741560D01*
X171651000Y-123958440D01*
X171608689Y-124171149D01*
X171525693Y-124371520D01*
X171405205Y-124551844D01*
X171251844Y-124705205D01*
X171071520Y-124825693D01*
X170871150Y-124908689D01*
X170764794Y-124929845D01*
X170658440Y-124951000D01*
X170441560Y-124951000D01*
X170335206Y-124929845D01*
X170228850Y-124908689D01*
X170028480Y-124825693D01*
X169848156Y-124705205D01*
X169694795Y-124551844D01*
X169574307Y-124371520D01*
X169491311Y-124171149D01*
X169449000Y-123958440D01*
X169449000Y-123741560D01*
X169491311Y-123528851D01*
X169574307Y-123328480D01*
X169694795Y-123148156D01*
X169848156Y-122994795D01*
X170028480Y-122874307D01*
X170128666Y-122832809D01*
X170228850Y-122791311D01*
X170335205Y-122770156D01*
X170441560Y-122749000D01*
X170658440Y-122749000D01*
X170764795Y-122770156D01*
X170764795Y-122770156D01*
G37*
G36*
X169748626Y-121106723D02*
G01*
X169748627Y-121106723D01*
X169748630Y-121106724D01*
X169785209Y-121121876D01*
X169818130Y-121143873D01*
X169846127Y-121171870D01*
X169868124Y-121204791D01*
X169883276Y-121241370D01*
X169891000Y-121280203D01*
X169891000Y-121319797D01*
X169883276Y-121358630D01*
X169868124Y-121395209D01*
X169846127Y-121428130D01*
X169818130Y-121456127D01*
X169785209Y-121478124D01*
X169748630Y-121493276D01*
X169748627Y-121493277D01*
X169748626Y-121493277D01*
X169709798Y-121501000D01*
X169670202Y-121501000D01*
X169631374Y-121493277D01*
X169631373Y-121493277D01*
X169631370Y-121493276D01*
X169594791Y-121478124D01*
X169561870Y-121456127D01*
X169533873Y-121428130D01*
X169511876Y-121395209D01*
X169496724Y-121358630D01*
X169489000Y-121319797D01*
X169489000Y-121280203D01*
X169496724Y-121241370D01*
X169511876Y-121204791D01*
X169511879Y-121204787D01*
X169515374Y-121196349D01*
X169522487Y-121172900D01*
X169523628Y-121161314D01*
X169537944Y-121156971D01*
X169559555Y-121145420D01*
X169594788Y-121121878D01*
X169594790Y-121121877D01*
X169594791Y-121121876D01*
X169631370Y-121106724D01*
X169631373Y-121106723D01*
X169631374Y-121106723D01*
X169670202Y-121099000D01*
X169709798Y-121099000D01*
X169748626Y-121106723D01*
X169748626Y-121106723D01*
G37*
G36*
X169258626Y-120696723D02*
G01*
X169258627Y-120696723D01*
X169258630Y-120696724D01*
X169295209Y-120711876D01*
X169328130Y-120733873D01*
X169356127Y-120761870D01*
X169378124Y-120794791D01*
X169393276Y-120831370D01*
X169401000Y-120870203D01*
X169401000Y-120909797D01*
X169393276Y-120948630D01*
X169378124Y-120985209D01*
X169378121Y-120985213D01*
X169374626Y-120993651D01*
X169367513Y-121017100D01*
X169366372Y-121028686D01*
X169352056Y-121033029D01*
X169330445Y-121044580D01*
X169328131Y-121046126D01*
X169328130Y-121046127D01*
X169295209Y-121068124D01*
X169258630Y-121083276D01*
X169258627Y-121083277D01*
X169258626Y-121083277D01*
X169219798Y-121091000D01*
X169180202Y-121091000D01*
X169141374Y-121083277D01*
X169141373Y-121083277D01*
X169141370Y-121083276D01*
X169104791Y-121068124D01*
X169071870Y-121046127D01*
X169043873Y-121018130D01*
X169021876Y-120985209D01*
X169006724Y-120948630D01*
X168999000Y-120909797D01*
X168999000Y-120870203D01*
X169006724Y-120831370D01*
X169017749Y-120804754D01*
X169024859Y-120781315D01*
X169027261Y-120756929D01*
X169026991Y-120754192D01*
X169045572Y-120748556D01*
X169067183Y-120737005D01*
X169104788Y-120711878D01*
X169104790Y-120711877D01*
X169104791Y-120711876D01*
X169141370Y-120696724D01*
X169141373Y-120696723D01*
X169141374Y-120696723D01*
X169180202Y-120689000D01*
X169219798Y-120689000D01*
X169258626Y-120696723D01*
X169258626Y-120696723D01*
G37*
G36*
X168758626Y-120306723D02*
G01*
X168758627Y-120306723D01*
X168758630Y-120306724D01*
X168795209Y-120321876D01*
X168828130Y-120343873D01*
X168856127Y-120371870D01*
X168878124Y-120404791D01*
X168893276Y-120441370D01*
X168901000Y-120480203D01*
X168901000Y-120519797D01*
X168893276Y-120558630D01*
X168882251Y-120585246D01*
X168875141Y-120608685D01*
X168872739Y-120633071D01*
X168873009Y-120635808D01*
X168854428Y-120641444D01*
X168832817Y-120652995D01*
X168828131Y-120656126D01*
X168828130Y-120656127D01*
X168795209Y-120678124D01*
X168758630Y-120693276D01*
X168758627Y-120693277D01*
X168758626Y-120693277D01*
X168719798Y-120701000D01*
X168680202Y-120701000D01*
X168641374Y-120693277D01*
X168641373Y-120693277D01*
X168641370Y-120693276D01*
X168604791Y-120678124D01*
X168571870Y-120656127D01*
X168543873Y-120628130D01*
X168521876Y-120595209D01*
X168506724Y-120558630D01*
X168499000Y-120519797D01*
X168499000Y-120480203D01*
X168506724Y-120441370D01*
X168521876Y-120404791D01*
X168543873Y-120371870D01*
X168571870Y-120343873D01*
X168604791Y-120321876D01*
X168641370Y-120306724D01*
X168641373Y-120306723D01*
X168641374Y-120306723D01*
X168680202Y-120299000D01*
X168719798Y-120299000D01*
X168758626Y-120306723D01*
X168758626Y-120306723D01*
G37*
G36*
X105375256Y-103391298D02*
G01*
X105481579Y-103412447D01*
X105782042Y-103536903D01*
X106052451Y-103717585D01*
X106282415Y-103947549D01*
X106411115Y-104140162D01*
X106463098Y-104217960D01*
X106587553Y-104518422D01*
X106651000Y-104837389D01*
X106651000Y-105162611D01*
X106611616Y-105360607D01*
X106587553Y-105481579D01*
X106463097Y-105782042D01*
X106282415Y-106052451D01*
X106052451Y-106282415D01*
X105782042Y-106463097D01*
X105481579Y-106587553D01*
X105375256Y-106608702D01*
X105162611Y-106651000D01*
X104837389Y-106651000D01*
X104624744Y-106608702D01*
X104518421Y-106587553D01*
X104217958Y-106463097D01*
X103947549Y-106282415D01*
X103717585Y-106052451D01*
X103536903Y-105782042D01*
X103412447Y-105481579D01*
X103388384Y-105360607D01*
X103349000Y-105162611D01*
X103349000Y-104837389D01*
X103412447Y-104518422D01*
X103536902Y-104217960D01*
X103588885Y-104140162D01*
X103717585Y-103947549D01*
X103947549Y-103717585D01*
X104217958Y-103536903D01*
X104518421Y-103412447D01*
X104624744Y-103391298D01*
X104837389Y-103349000D01*
X105162611Y-103349000D01*
X105375256Y-103391298D01*
X105375256Y-103391298D01*
G37*
G36*
X195375256Y-103391298D02*
G01*
X195481579Y-103412447D01*
X195782042Y-103536903D01*
X196052451Y-103717585D01*
X196282415Y-103947549D01*
X196411115Y-104140162D01*
X196463098Y-104217960D01*
X196587553Y-104518422D01*
X196651000Y-104837389D01*
X196651000Y-105162611D01*
X196611616Y-105360607D01*
X196587553Y-105481579D01*
X196463097Y-105782042D01*
X196282415Y-106052451D01*
X196052451Y-106282415D01*
X195782042Y-106463097D01*
X195481579Y-106587553D01*
X195375256Y-106608702D01*
X195162611Y-106651000D01*
X194837389Y-106651000D01*
X194624744Y-106608702D01*
X194518421Y-106587553D01*
X194217958Y-106463097D01*
X193947549Y-106282415D01*
X193717585Y-106052451D01*
X193536903Y-105782042D01*
X193412447Y-105481579D01*
X193388384Y-105360607D01*
X193349000Y-105162611D01*
X193349000Y-104837389D01*
X193412447Y-104518422D01*
X193536902Y-104217960D01*
X193588885Y-104140162D01*
X193717585Y-103947549D01*
X193947549Y-103717585D01*
X194217958Y-103536903D01*
X194518421Y-103412447D01*
X194624744Y-103391298D01*
X194837389Y-103349000D01*
X195162611Y-103349000D01*
X195375256Y-103391298D01*
X195375256Y-103391298D01*
G37*
G36*
X134733642Y-104079781D02*
G01*
X134879414Y-104140162D01*
X134879416Y-104140163D01*
X135010608Y-104227822D01*
X135122178Y-104339392D01*
X135209837Y-104470584D01*
X135209838Y-104470586D01*
X135270219Y-104616358D01*
X135301000Y-104771107D01*
X135301000Y-104928893D01*
X135270219Y-105083642D01*
X135209838Y-105229414D01*
X135209837Y-105229416D01*
X135122178Y-105360608D01*
X135010608Y-105472178D01*
X134879416Y-105559837D01*
X134879415Y-105559838D01*
X134879414Y-105559838D01*
X134733642Y-105620219D01*
X134578893Y-105651000D01*
X134421107Y-105651000D01*
X134266358Y-105620219D01*
X134120586Y-105559838D01*
X134120585Y-105559838D01*
X134120584Y-105559837D01*
X133989392Y-105472178D01*
X133877822Y-105360608D01*
X133790163Y-105229416D01*
X133790162Y-105229414D01*
X133729781Y-105083642D01*
X133699000Y-104928893D01*
X133699000Y-104771107D01*
X133729781Y-104616358D01*
X133790162Y-104470586D01*
X133790163Y-104470584D01*
X133877822Y-104339392D01*
X133989392Y-104227822D01*
X134120584Y-104140163D01*
X134120586Y-104140162D01*
X134266358Y-104079781D01*
X134421107Y-104049000D01*
X134578893Y-104049000D01*
X134733642Y-104079781D01*
X134733642Y-104079781D01*
G37*
G36*
X134558626Y-103206723D02*
G01*
X134558627Y-103206723D01*
X134558630Y-103206724D01*
X134595209Y-103221876D01*
X134628130Y-103243873D01*
X134656127Y-103271870D01*
X134678124Y-103304791D01*
X134693276Y-103341370D01*
X134701000Y-103380203D01*
X134701000Y-103419797D01*
X134693276Y-103458630D01*
X134678124Y-103495209D01*
X134656127Y-103528130D01*
X134628130Y-103556127D01*
X134595209Y-103578124D01*
X134558630Y-103593276D01*
X134558627Y-103593277D01*
X134558626Y-103593277D01*
X134519798Y-103601000D01*
X134480202Y-103601000D01*
X134441374Y-103593277D01*
X134441373Y-103593277D01*
X134441370Y-103593276D01*
X134404791Y-103578124D01*
X134371870Y-103556127D01*
X134343873Y-103528130D01*
X134321876Y-103495209D01*
X134306724Y-103458630D01*
X134299000Y-103419797D01*
X134299000Y-103380203D01*
X134306724Y-103341370D01*
X134321876Y-103304791D01*
X134343873Y-103271870D01*
X134371870Y-103243873D01*
X134404791Y-103221876D01*
X134441370Y-103206724D01*
X134441373Y-103206723D01*
X134441374Y-103206723D01*
X134480202Y-103199000D01*
X134519798Y-103199000D01*
X134558626Y-103206723D01*
X134558626Y-103206723D01*
G37*
M02*
