M48
; DRILL file {KiCad 5.1.2} date Di 04 Jun 2019 19:46:52 CEST
; FORMAT={-:-/ absolute / metric / decimal}
; #@! TF.CreationDate,2019-06-04T19:46:52+02:00
; #@! TF.GenerationSoftware,Kicad,Pcbnew,5.1.2
; #@! TF.FileFunction,NonPlated,1,2,NPTH
FMAT,2
METRIC
T1C0.300
T2C1.500
T3C2.100
T4C3.200
%
G90
G05
T1
X105.8Y-130.31
X163.59Y-130.8
X105.8Y-162.31
X134.5Y-135.4
X134.5Y-196.1
X169.2Y-120.89
X105.39Y-130.8
X105.0Y-163.3
X164.0Y-163.29
X168.71Y-179.5
X169.2Y-179.09
X163.2Y-169.19
X163.61Y-168.7
X134.5Y-103.4
X163.2Y-130.3
X168.7Y-120.5
X105.0Y-168.21
X105.41Y-168.7
X105.0Y-131.3
X163.59Y-162.8
X169.69Y-121.3
X164.0Y-168.2
X169.7Y-178.7
X163.2Y-162.3
X105.39Y-162.8
X105.8Y-169.2
X164.0Y-131.29
X196.6Y-150.0
T2
X134.5Y-194.65
X134.5Y-136.85
X134.5Y-104.85
X195.15Y-150.0
T3
X108.35Y-170.0
X160.65Y-129.5
X170.5Y-176.15
X160.65Y-170.05
X170.55Y-123.85
X160.65Y-161.5
X108.35Y-161.45
X108.35Y-129.45
T4
X195.0Y-105.0
X105.0Y-105.0
X195.0Y-195.0
X105.0Y-195.0
X160.0Y-140.0
T0
M30
