M48
; DRILL file {KiCad 5.1.2} date Di 04 Jun 2019 19:46:52 CEST
; FORMAT={-:-/ absolute / metric / decimal}
; #@! TF.CreationDate,2019-06-04T19:46:52+02:00
; #@! TF.GenerationSoftware,Kicad,Pcbnew,5.1.2
; #@! TF.FileFunction,Plated,1,2,PTH
FMAT,2
METRIC
T1C0.200
T2C0.300
%
G90
G05
T1
X131.95Y-115.45
X131.95Y-116.725
X131.95Y-118.0
X131.95Y-119.275
X131.95Y-120.55
X133.225Y-115.45
X133.225Y-116.725
X133.225Y-118.0
X133.225Y-119.275
X133.225Y-120.55
X134.5Y-115.45
X134.5Y-116.725
X134.5Y-118.0
X134.5Y-119.275
X134.5Y-120.55
X135.775Y-115.45
X135.775Y-116.725
X135.775Y-118.0
X135.775Y-119.275
X135.775Y-120.55
X137.05Y-115.45
X137.05Y-116.725
X137.05Y-118.0
X137.05Y-119.275
X137.05Y-120.55
X179.45Y-147.45
X179.45Y-148.725
X179.45Y-150.0
X179.45Y-151.275
X179.45Y-152.55
X180.725Y-147.45
X180.725Y-148.725
X180.725Y-150.0
X180.725Y-151.275
X180.725Y-152.55
X182.0Y-147.45
X182.0Y-148.725
X182.0Y-150.0
X182.0Y-151.275
X182.0Y-152.55
X183.275Y-147.45
X183.275Y-148.725
X183.275Y-150.0
X183.275Y-151.275
X183.275Y-152.55
X184.55Y-147.45
X184.55Y-148.725
X184.55Y-150.0
X184.55Y-151.275
X184.55Y-152.55
X131.95Y-147.45
X131.95Y-148.725
X131.95Y-150.0
X131.95Y-151.275
X131.95Y-152.55
X133.225Y-147.45
X133.225Y-148.725
X133.225Y-150.0
X133.225Y-151.275
X133.225Y-152.55
X134.5Y-147.45
X134.5Y-148.725
X134.5Y-150.0
X134.5Y-151.275
X134.5Y-152.55
X135.775Y-147.45
X135.775Y-148.725
X135.775Y-150.0
X135.775Y-151.275
X135.775Y-152.55
X137.05Y-147.45
X137.05Y-148.725
X137.05Y-150.0
X137.05Y-151.275
X137.05Y-152.55
X131.95Y-178.95
X131.95Y-180.225
X131.95Y-181.5
X131.95Y-182.775
X131.95Y-184.05
X133.225Y-178.95
X133.225Y-180.225
X133.225Y-181.5
X133.225Y-182.775
X133.225Y-184.05
X134.5Y-178.95
X134.5Y-180.225
X134.5Y-181.5
X134.5Y-182.775
X134.5Y-184.05
X135.775Y-178.95
X135.775Y-180.225
X135.775Y-181.5
X135.775Y-182.775
X135.775Y-184.05
X137.05Y-178.95
X137.05Y-180.225
X137.05Y-181.5
X137.05Y-182.775
X137.05Y-184.05
T2
X109.49Y-171.9
X111.27Y-125.85
X111.27Y-157.85
X111.38Y-171.69
X112.48Y-170.99
X113.23Y-175.59
X113.24Y-123.9
X113.24Y-155.9
X113.76Y-128.324
X113.76Y-160.324
X113.77Y-126.679
X113.77Y-158.679
X114.93Y-177.64
X116.06Y-124.96
X116.06Y-156.96
X116.38Y-174.77
X116.68Y-120.08
X116.68Y-152.08
X117.14Y-176.676
X117.24Y-175.549
X117.35Y-123.151
X117.35Y-155.151
X117.8Y-127.9
X117.8Y-159.9
X118.54Y-177.05
X118.62Y-181.19
X118.63Y-118.33
X118.63Y-150.33
X118.67Y-122.34
X118.67Y-154.34
X119.09Y-177.68
X119.37Y-121.64
X119.37Y-122.34
X119.37Y-153.64
X119.37Y-154.34
X119.61Y-177.003
X119.94Y-177.87
X120.07Y-121.64
X120.07Y-122.34
X120.07Y-153.64
X120.07Y-154.34
X120.28Y-172.04
X120.43Y-183.03
X122.21Y-114.7
X122.21Y-146.7
X122.56Y-120.47
X122.56Y-152.47
X123.14Y-174.41
X123.26Y-120.47
X123.26Y-152.47
X123.37Y-125.03
X123.37Y-157.03
X123.532Y-119.06
X123.532Y-151.06
X123.532Y-180.44
X123.82Y-172.57
X123.84Y-174.41
X123.84Y-175.11
X123.96Y-120.47
X123.96Y-152.47
X124.0Y-112.64
X124.0Y-126.88
X124.0Y-144.64
X124.0Y-158.88
X124.07Y-125.03
X124.07Y-157.03
X124.17Y-186.58
X124.34Y-116.602
X124.34Y-148.602
X124.54Y-174.41
X124.54Y-175.11
X124.66Y-118.37
X124.66Y-119.07
X124.66Y-119.77
X124.66Y-120.47
X124.66Y-150.37
X124.66Y-151.07
X124.66Y-151.77
X124.66Y-152.47
X125.21Y-179.94
X125.21Y-180.64
X125.21Y-181.34
X125.24Y-174.41
X125.24Y-175.11
X125.36Y-117.67
X125.36Y-118.37
X125.36Y-119.07
X125.36Y-119.77
X125.36Y-149.67
X125.36Y-150.37
X125.36Y-151.07
X125.36Y-151.77
X125.77Y-183.21
X125.91Y-179.94
X125.91Y-180.64
X125.91Y-181.34
X125.94Y-174.41
X125.94Y-175.11
X126.06Y-117.67
X126.06Y-118.37
X126.06Y-119.07
X126.06Y-119.77
X126.06Y-149.67
X126.06Y-150.37
X126.06Y-151.07
X126.06Y-151.77
X126.168Y-115.63
X126.168Y-147.63
X126.26Y-188.21
X126.3Y-183.6
X126.592Y-114.952
X126.592Y-146.952
X126.61Y-180.64
X126.61Y-181.34
X126.76Y-117.67
X126.76Y-118.37
X126.76Y-119.07
X126.76Y-119.77
X126.76Y-149.67
X126.76Y-150.37
X126.76Y-151.07
X126.76Y-151.77
X127.063Y-183.265
X127.31Y-181.34
X127.44Y-184.51
X127.46Y-117.67
X127.46Y-118.37
X127.46Y-149.67
X127.46Y-150.37
X127.61Y-183.88
X127.81Y-114.01
X127.81Y-146.01
X127.94Y-185.01
X127.955Y-116.313
X127.955Y-148.314
X128.08Y-184.38
X128.16Y-117.67
X128.16Y-149.67
X128.17Y-109.66
X128.17Y-141.66
X128.28Y-124.39
X128.28Y-156.39
X128.318Y-182.002
X128.33Y-126.42
X128.33Y-158.42
X128.51Y-113.31
X128.51Y-114.01
X128.51Y-145.31
X128.51Y-146.01
X128.56Y-184.87
X129.21Y-114.01
X129.21Y-146.01
X129.316Y-112.517
X129.316Y-144.517
X129.75Y-173.07
X129.76Y-177.02
X129.91Y-113.31
X129.91Y-114.01
X129.91Y-145.31
X129.91Y-146.01
X129.91Y-186.05
X130.08Y-108.33
X130.08Y-140.33
X130.13Y-191.13
X130.61Y-186.05
X130.97Y-173.44
X131.066Y-111.964
X131.066Y-143.964
X131.17Y-172.64
X131.28Y-175.11
X131.36Y-172.03
X131.52Y-110.04
X131.52Y-142.04
X131.98Y-174.41
X131.98Y-175.11
X132.15Y-126.88
X132.15Y-158.88
X132.2Y-125.76
X132.2Y-157.76
X132.281Y-124.326
X132.281Y-156.326
X132.34Y-127.5
X132.34Y-159.5
X132.78Y-173.91
X133.13Y-188.21
X133.25Y-193.05
X133.358Y-123.618
X133.358Y-155.618
X133.427Y-125.32
X133.427Y-157.32
X134.01Y-173.49
X134.03Y-187.54
X134.053Y-176.04
X134.25Y-186.62
X134.27Y-111.95
X134.27Y-143.95
X134.49Y-189.537
X134.51Y-109.962
X134.51Y-141.963
X134.73Y-187.55
X134.75Y-112.88
X134.75Y-144.88
X134.947Y-123.46
X134.947Y-155.46
X134.97Y-111.96
X134.97Y-143.96
X134.99Y-126.01
X134.99Y-158.01
X135.573Y-174.18
X135.642Y-175.882
X135.75Y-106.45
X135.75Y-138.45
X135.87Y-111.29
X135.87Y-143.29
X136.22Y-125.59
X136.22Y-157.59
X136.66Y-172.0
X136.719Y-175.174
X136.8Y-173.74
X136.85Y-172.62
X137.02Y-124.39
X137.02Y-125.09
X137.02Y-156.39
X137.02Y-157.09
X137.48Y-189.46
X137.64Y-127.47
X137.64Y-159.47
X137.72Y-124.39
X137.72Y-156.39
X137.83Y-126.86
X137.83Y-158.86
X137.934Y-187.536
X138.03Y-126.06
X138.03Y-158.06
X138.39Y-113.45
X138.39Y-145.45
X138.87Y-108.37
X138.87Y-140.37
X138.92Y-191.17
X139.09Y-113.45
X139.09Y-145.45
X139.09Y-185.49
X139.09Y-186.19
X139.24Y-122.48
X139.24Y-154.48
X139.25Y-126.43
X139.25Y-158.43
X139.684Y-186.983
X139.79Y-185.49
X140.44Y-114.63
X140.44Y-146.63
X140.49Y-185.49
X140.49Y-186.19
X140.67Y-173.08
X140.682Y-117.498
X140.682Y-149.498
X140.72Y-175.11
X140.83Y-189.84
X140.84Y-181.83
X140.92Y-115.12
X140.92Y-147.12
X141.045Y-183.186
X141.06Y-114.49
X141.06Y-146.49
X141.19Y-185.49
X141.39Y-115.62
X141.39Y-147.62
X141.54Y-181.13
X141.54Y-181.83
X141.56Y-114.99
X141.56Y-146.99
X141.69Y-118.16
X141.69Y-150.16
X141.937Y-116.235
X141.937Y-148.235
X142.24Y-179.73
X142.24Y-180.43
X142.24Y-181.13
X142.24Y-181.83
X142.39Y-118.16
X142.39Y-118.86
X142.39Y-150.16
X142.39Y-150.86
X142.408Y-184.548
X142.7Y-115.9
X142.7Y-147.9
X142.74Y-111.29
X142.74Y-143.29
X142.832Y-183.87
X142.94Y-179.73
X142.94Y-180.43
X142.94Y-181.13
X142.94Y-181.83
X143.06Y-124.39
X143.06Y-125.09
X143.06Y-156.39
X143.06Y-157.09
X143.09Y-118.16
X143.09Y-118.86
X143.09Y-119.56
X143.09Y-150.16
X143.09Y-150.86
X143.09Y-151.56
X143.23Y-116.29
X143.23Y-148.29
X143.64Y-179.73
X143.64Y-180.43
X143.64Y-181.13
X143.64Y-181.83
X143.76Y-124.39
X143.76Y-125.09
X143.76Y-156.39
X143.76Y-157.09
X143.79Y-118.16
X143.79Y-118.86
X143.79Y-119.56
X143.79Y-150.16
X143.79Y-150.86
X143.79Y-151.56
X144.34Y-179.03
X144.34Y-179.73
X144.34Y-180.43
X144.34Y-181.13
X144.46Y-124.39
X144.46Y-125.09
X144.46Y-156.39
X144.46Y-157.09
X144.66Y-182.898
X144.83Y-112.92
X144.83Y-144.92
X144.93Y-174.47
X145.0Y-172.62
X145.0Y-186.86
X145.04Y-179.03
X145.16Y-124.39
X145.16Y-125.09
X145.16Y-156.39
X145.16Y-157.09
X145.18Y-126.93
X145.18Y-158.93
X145.468Y-119.06
X145.468Y-151.06
X145.468Y-180.44
X145.63Y-174.47
X145.74Y-179.03
X145.86Y-125.09
X145.86Y-157.09
X146.44Y-179.03
X146.79Y-184.8
X148.57Y-116.47
X148.57Y-148.47
X148.72Y-127.46
X148.72Y-159.46
X148.93Y-177.16
X148.93Y-177.86
X149.06Y-121.63
X149.06Y-153.63
X149.39Y-122.497
X149.39Y-154.497
X149.63Y-177.16
X149.63Y-177.86
X149.91Y-121.82
X149.91Y-153.82
X150.33Y-177.16
X150.37Y-181.17
X150.38Y-118.31
X150.38Y-150.31
X150.46Y-122.45
X150.46Y-154.45
X151.2Y-171.6
X151.65Y-176.349
X151.76Y-123.951
X151.76Y-155.951
X151.86Y-122.824
X151.86Y-154.824
X152.32Y-179.42
X152.62Y-124.73
X152.62Y-156.73
X152.94Y-174.54
X154.07Y-121.86
X154.07Y-153.86
X155.23Y-172.821
X155.24Y-171.176
X155.76Y-175.6
X155.77Y-123.91
X155.77Y-155.91
X156.52Y-128.51
X156.52Y-160.51
X157.62Y-127.81
X157.62Y-159.81
X157.73Y-173.65
X159.51Y-127.6
X159.51Y-159.6
X171.49Y-172.02
X171.676Y-129.26
X172.1Y-133.3
X172.19Y-173.12
X172.4Y-175.01
X172.5Y-147.84
X172.53Y-153.14
X172.54Y-164.22
X173.07Y-160.68
X173.12Y-139.5
X173.12Y-147.65
X173.14Y-153.33
X173.321Y-129.27
X173.57Y-154.75
X173.58Y-143.83
X173.94Y-153.53
X173.99Y-150.49
X174.15Y-126.77
X174.24Y-147.7
X174.41Y-151.72
X174.68Y-148.927
X174.91Y-152.52
X174.91Y-158.56
X174.91Y-159.26
X174.91Y-159.96
X174.91Y-160.66
X174.91Y-161.36
X174.97Y-138.87
X174.97Y-139.57
X175.04Y-131.56
X175.27Y-168.12
X175.61Y-143.78
X175.61Y-152.52
X175.61Y-153.22
X175.61Y-158.56
X175.61Y-159.26
X175.61Y-159.96
X175.61Y-160.66
X175.674Y-147.781
X176.049Y-167.26
X176.09Y-171.27
X176.1Y-128.74
X176.382Y-148.858
X176.54Y-150.447
X176.849Y-132.85
X177.176Y-167.36
X177.503Y-164.89
X177.52Y-154.74
X177.55Y-165.96
X177.66Y-134.17
X177.66Y-134.87
X177.66Y-135.57
X178.14Y-169.57
X178.18Y-165.41
X178.36Y-134.87
X178.36Y-135.57
X178.37Y-164.56
X179.53Y-138.06
X179.53Y-138.76
X179.53Y-139.46
X179.53Y-140.16
X179.92Y-132.18
X180.23Y-140.16
X180.23Y-140.86
X180.23Y-141.56
X180.23Y-142.26
X180.44Y-158.59
X180.44Y-159.29
X180.93Y-140.16
X180.93Y-140.86
X180.93Y-141.56
X180.93Y-142.26
X180.94Y-139.032
X180.94Y-160.968
X181.14Y-157.89
X181.14Y-158.59
X181.14Y-159.29
X181.63Y-140.16
X181.63Y-140.86
X181.63Y-141.56
X181.63Y-142.26
X181.63Y-142.96
X181.67Y-134.13
X181.69Y-165.88
X181.84Y-157.19
X181.84Y-157.89
X181.84Y-158.59
X181.84Y-159.29
X182.33Y-140.86
X182.33Y-141.56
X182.33Y-142.26
X182.33Y-142.96
X182.33Y-143.66
X182.502Y-156.182
X183.398Y-139.84
X183.53Y-164.07
X183.686Y-143.455
X183.71Y-158.73
X183.765Y-157.437
X184.1Y-158.2
X184.37Y-141.668
X184.38Y-156.89
X184.88Y-156.42
X185.01Y-157.06
X185.048Y-142.092
X185.3Y-137.71
X185.37Y-155.94
X185.51Y-156.56
X185.99Y-143.31
X185.99Y-144.01
X185.99Y-144.71
X185.99Y-145.41
X186.55Y-153.89
X186.55Y-154.59
X186.69Y-144.01
X186.69Y-145.41
X187.08Y-160.33
X187.12Y-150.25
X187.36Y-139.5
X187.483Y-144.816
X188.036Y-146.566
X188.04Y-150.47
X188.05Y-149.77
X188.71Y-151.37
X188.71Y-158.24
X189.96Y-147.02
X190.037Y-150.01
X190.34Y-143.67
X191.63Y-154.37
X191.67Y-145.58
X193.55Y-151.25
T0
M30
